<?xml version="1.0" encoding="utf-8"?>
<!-- Generator: Adobe Illustrator 16.2.1, SVG Export Plug-In . SVG Version: 6.00 Build 0)  -->
<!DOCTYPE svg PUBLIC "-//W3C//DTD SVG 1.1//EN" "http://www.w3.org/Graphics/SVG/1.1/DTD/svg11.dtd">
<svg version="1.1" id="Layer_1" xmlns="http://www.w3.org/2000/svg" xmlns:xlink="http://www.w3.org/1999/xlink" x="0px" y="0px"
	 width="179.25px" height="54.75px" viewBox="0 0 179.25 54.75" enable-background="new 0 0 179.25 54.75" xml:space="preserve">
<g>
	<path d="M2.118,3.731h10.704v38.199h18.75v8.955H2.118V3.731z"/>
	<path d="M78.375,26.819c0,15.461-9.375,24.836-23.157,24.836c-13.992,0-22.178-10.564-22.178-23.997
		c0-14.132,9.025-24.697,22.947-24.697C70.469,2.962,78.375,13.806,78.375,26.819z M44.304,27.449
		c0,9.235,4.338,15.742,11.474,15.742c7.206,0,11.334-6.856,11.334-16.021c0-8.465-4.058-15.742-11.404-15.742
		C48.501,11.427,44.304,18.284,44.304,27.449z"/>
	<path d="M124.759,48.717c-3.288,1.119-9.515,2.658-15.741,2.658c-8.604,0-14.832-2.168-19.169-6.366
		c-4.338-4.058-6.716-10.214-6.646-17.141c0.07-15.671,11.474-24.626,26.936-24.626c6.086,0,10.773,1.189,13.082,2.309l-2.238,8.535
		c-2.589-1.119-5.807-2.029-10.984-2.029c-8.885,0-15.602,5.037-15.602,15.251c0,9.725,6.087,15.462,14.832,15.462
		c2.449,0,4.408-0.28,5.247-0.7v-9.864h-7.275V23.88h17.56V48.717z"/>
	<path d="M176.251,26.819c0,15.461-9.375,24.836-23.157,24.836c-13.993,0-22.179-10.564-22.179-23.997
		c0-14.132,9.025-24.697,22.948-24.697C168.345,2.962,176.251,13.806,176.251,26.819z M142.18,27.449
		c0,9.235,4.337,15.742,11.474,15.742c7.206,0,11.333-6.856,11.333-16.021c0-8.465-4.058-15.742-11.403-15.742
		C146.377,11.427,142.18,18.284,142.18,27.449z"/>
</g>
</svg>
