<?xml version="1.0" encoding="utf-8"?>
<!-- Generator: Adobe Illustrator 16.2.1, SVG Export Plug-In . SVG Version: 6.00 Build 0)  -->
<!DOCTYPE svg PUBLIC "-//W3C//DTD SVG 1.1//EN" "http://www.w3.org/Graphics/SVG/1.1/DTD/svg11.dtd">
<svg version="1.1" id="Layer_1" xmlns="http://www.w3.org/2000/svg" xmlns:xlink="http://www.w3.org/1999/xlink" x="0px" y="0px"
	 width="21px" height="17px" viewBox="0 0 21 17" enable-background="new 0 0 21 17" xml:space="preserve">
<g>
	<rect x="3.468" y="15.861" fill-rule="evenodd" clip-rule="evenodd" width="15.076" height="0.613"/>
	<path fill-rule="evenodd" clip-rule="evenodd" d="M19.999,5.097c-0.19-0.691-0.918-1.102-1.627-0.917
		c-0.047,0.012-0.089,0.032-0.133,0.049L18.23,4.207L13.52,5.434L5.981,0.526L3.468,1.753L9.75,6.66L5.981,7.58L2.84,5.434
		L0.956,6.047l3.769,4.294L19.172,6.66l-0.006-0.014C19.808,6.418,20.179,5.752,19.999,5.097z"/>
</g>
<g>
	<path fill-rule="evenodd" clip-rule="evenodd" fill="none" d="M-118.672-1074.965h15.075v0.613h-15.075V-1074.965z"/>
	<path fill-rule="evenodd" clip-rule="evenodd" fill="none" d="M-117.416-1080.485l14.447-3.681l-0.942-2.454l-4.711,1.227
		l-7.538-4.908l-2.513,1.227l6.281,4.907l-3.769,0.92l-3.141-2.146l-1.884,0.613L-117.416-1080.485z"/>
	<path fill-rule="evenodd" clip-rule="evenodd" fill="none" d="M-103.539-1086.62c0.67-0.175,1.359,0.213,1.539,0.867
		s-0.218,1.327-0.888,1.503c-0.67,0.175-1.359-0.213-1.539-0.868C-104.606-1085.772-104.209-1086.445-103.539-1086.62z"/>
</g>
</svg>
