<?xml version="1.0" encoding="utf-8"?>
<!-- Generator: Adobe Illustrator 16.2.1, SVG Export Plug-In . SVG Version: 6.00 Build 0)  -->
<!DOCTYPE svg PUBLIC "-//W3C//DTD SVG 1.1//EN" "http://www.w3.org/Graphics/SVG/1.1/DTD/svg11.dtd">
<svg version="1.1" id="Layer_1" xmlns="http://www.w3.org/2000/svg" xmlns:xlink="http://www.w3.org/1999/xlink" x="0px" y="0px"
	 width="190px" height="100px" viewBox="0 0 190 100" enable-background="new 0 0 190 100" xml:space="preserve">
<g>
	<path d="M185.837,44.616c0,0-4.822-3.541-24.84,1.615c6.789-0.965,9.742-1.231,13.721-1.746c0.288,0.151,0.617,0.187,2.077,0.128
		c-3.574,0.482-11.792,1.98-20.852,4.241c-2.778,0.628-16.548,4.091-22.468,5.642c-5.918,1.558-31.611,9.62-81.932,10.516
		c2.19-0.129,4.708-0.327,3.904-0.406c-0.8-0.08-1.673-0.418-1.673-0.418s13.333-0.313,17.719-1.347
		c-2.334,0.09-32.783,2.429-60.796-4.513c2.988,0.242,5.241,1.027,12.133,0.901c-1.128-0.116-3.496-0.646-3.496-0.646
		c-0.148,0.035-0.946-0.153-2.986-0.501c-2.039-0.346-9.496-2.228-10.115-2.306c3.243,0.425,3.387,0.354,3.932,0.359
		c0,0-2-0.396-2.144-0.564c1.02,0.134,2.486,0.212,2.851,0.212c0.527,0,0.613-0.257,0.87-0.362c0.255-0.109,0.767-0.214,0.767-0.214
		s-0.291-0.223-0.654-0.439c-0.361-0.226-0.251-0.406-0.833-0.596c-0.581-0.188-0.654-0.188-1.09-0.368
		c-0.435-0.19-0.327-0.151-0.873-0.266c-0.545-0.113-2.396-1.113-2.396-1.113c1.347,0.485,2.438,0.603,3.022,0.608
		c0.582,0.005,0.946-0.028,1.604,0.087c0.653,0.114,3.348,0.794,3.348,0.794c-0.362-0.476-1.168-1.234-1.263-2.055
		c0.329,0.149,3.812,2.182,8.987,2.335c-0.252-0.22-0.613-0.586-1.305-0.666c1.091,0.047,1.637,0.015,1.893,0.091
		c0.254,0.072,0.365,0.185,1.058,0.188c0.692,0.009,0.654,0.042,1.166,0.046c0.509,0.005,0.692,0.005,0.692,0.005
		s0.003-0.289-0.431-0.438c-0.439-0.151-0.873-0.483-0.873-0.483s0.837-0.062,0.472-0.178c-0.361-0.113-0.87-0.444-1.524-0.629
		c-0.653-0.191-2.071-0.642-2.433-0.824c-0.366-0.187-0.581-0.592-0.979-0.738c-0.401-0.15-0.584-0.188-0.584-0.188
		s0.562-1.418,0.053-1.858c-0.507-0.443-1.919-1.472-2.427-2.026c-0.503-0.553-0.866-0.698-1.373-1.032
		c-0.51-0.331-1.671-1.253-2.391-1.988c-0.724-0.735-2.061-2.095-1.589-1.724c0.469,0.365,0.757,0.696,1.449,0.847
		c0.69,0.153,0.656,0.19,1.163,0.447c0.508,0.264,1.123,0.884,1.521,1.217c0.398,0.332,0.799,0.59,1.382,0.594
		c0.583,0.003,1.055,0.083,1.313-0.062c0.256-0.147,0.802-0.103,0.333-0.619c-0.47-0.513-0.576-1.022-2.567-2.535
		c-1.995-1.51-2.141-1.291-2.752-2.393c-0.61-1.098-0.61-1.134-0.61-1.317c0.002-0.182,0.038-0.33-0.179-0.439
		c-0.217-0.11-0.251-0.223-0.363-0.257c-0.107-0.038-0.393-0.804-0.492-2.011c-0.102-1.204-0.312-1.932-0.312-1.932
		s0.295-0.254,0.478-0.474c0.185-0.217,0.258-0.142,0.732-0.358c0.476-0.213,0.914-0.355,0.551-0.688
		c-0.361-0.328-0.686-0.77-1.047-1.063c-0.362-0.299-0.688-0.626-0.722-0.773c-0.037-0.146,0.077-0.512,0.552-0.54
		c0.471-0.034,0.768-0.181,1.279-0.429c0.512-0.251-0.217-0.369,0.951-0.466c1.167-0.101,1.058-0.102,1.75-0.098
		c0.695,0.01,2.301-0.196,2.376-0.704c0.617,0.33,0.836,0.366,0.836,0.366l0.368-0.175c0,0,0.052-2.335-1.251-3.146
		c-1.306-0.813-1.049-0.883-1.518-1.29c-0.474-0.404-1.559-1.437-0.939-1.103c0.617,0.334,1.015,0.518,1.234,0.557
		c0.217,0.039,0.691-0.031,0.619-0.175c-0.071-0.149-0.177-0.513-0.433-0.734c-0.253-0.223-0.393-0.66-0.721-0.918
		c-0.326-0.256-0.253-0.148-0.758-0.807c-0.505-0.663-0.213-0.442-1.159-0.959c-0.942-0.517-1.668-0.924-1.849-1.324
		c-0.176-0.405-0.359-0.479-0.61-0.774c-0.254-0.292-1.02-0.482-0.65-0.878c0.365-0.402,0.914-0.395,0.37-0.692
		c-0.543-0.293-0.578-0.662-0.83-1.102c-0.253-0.437-0.814-3.105-1.096-4.202c-0.28-1.093-0.241-1.603-1.836-2.929
		c-1.591-1.327-5.865-5.08-6.222-5.741C2.957,2.412,6.399,5.065,6.689,5.14c-0.9-0.953-1.552-1.798-1.552-1.798
		s3.583,3.021,5.981,4.098c-0.904-0.704-2.677-2.43-2.677-2.43s3.043,2.105,4.389,2.661c-1.195-1.103-2.964-2.903-2.964-2.903
		s6.92,5.013,9.352,6.348c-2.644-1.953-7.535-5.787-7.535-5.787c2.173,1.44,14.107,9.377,19.698,11.867
		c4.65,2.043,23.94,10.297,46.739,12.636c2.37,0.275,13.298,1.351,20.376,0.862c-0.733,0.214-6.498,0.495-7.336,0.596
		c-0.837,0.104-0.986,0.431-1.645,0.569c-1.423,0.026-3.244,0.012-3.244,0.012l-0.187,0.179c0,0-3.534,0.005-4.7,0.105
		c-1.169,0.101,0.03,0.219,3.64,0.321c3.612,0.104,10.61,0.162,18.053-0.721c7.446-0.89,35.676-2.819,42.287-2.813
		c3.307,0.029,7.189,0.691,8.404,0.751c1.457,0.207,2.523,0.412,2.523,0.412s0.875,0.249,0.484,0.296
		c-0.388,0.042-0.683,0.042-1.411,0.036c-0.729-0.007-1.602-0.159-1.602-0.159c-0.778,0.091-4.229-0.035-5.542-0.045
		c-1.312-0.015-1.992,0.03-2.624,0.073c-0.634,0.044-2.092,0.274-2.092,0.274s2.284-0.03,3.79,0.031
		c1.506,0.062,3.34,0.249,3.741,0.214c0.474,0.075,0.728,0.188,1.673,0.271c0.95,0.081,3.206,0.351,2.916,0.46
		c-0.295,0.107-1.172,0.354-0.443,0.468c0.729,0.116,1.969,0.346,2.328,0.385c0.366,0.042,3.787,0.349,5.232,0.53
		c1.445,0.182,11.649,2.466,16.614,5.969c-6.056-2.7-11.075-4.565-21.67-5.678c2.038,0.818,5.322,1.458,5.322,1.458
		C165.711,35.201,179.116,37.087,185.837,44.616z M5.152,38.159c0,0,0.579,0.687,1.473,1.082c0.896,0.395,2.42,1.285,2.614,1.552
		c0.191,0.269,0.29,0.343,0.29,0.343s0.288,0.027,0.655-0.068c0.363-0.094,0.585-0.358,0.467-0.651
		c-0.121-0.292-0.505-0.709-0.968-0.86c-0.459-0.149-0.531-0.22-0.871-0.247c-0.339-0.03-0.243-0.03-0.656-0.055
		c-0.415-0.031-0.29,0.021-0.681-0.104c-0.569-0.181-0.094-0.101-0.798-0.349c-0.703-0.247-1.813-1.178-1.574-0.719 M10.008,18.913
		c0,0,1.095,1.073,1.679,1.523c0.587,0.452,1.76,1.473,2.019,1.871c0.231,0.256,1.312,0.307,1.092-0.32
		c-0.229-0.627-0.671-1.076-1.09-1.319c-0.417-0.241-0.523-0.4-1.148-0.496c-0.621-0.094-0.881-0.293-1.094-0.487
		C11.258,19.492,9.776,18.53,10.008,18.913z"/>
	<path d="M187.691,53.126c-1.25,3.206-3.748,4.963-4.474,5.444c4.945-6.54,3.164-11.529,3.047-12.793
		c0.295,4.879-3.088,7.67-3.879,8.462c0.854-1.732,0.647-2.583,0.531-3.034c-0.351,0.787-1.473,1.859-2.382,2.477
		c1.585-2.114,1.882-3.584,1.998-4.348c-2.794,5.679-16.229,9.922-31.943,13.004c-8.701,1.64-20.302,3.328-36.82,5.229
		c-2.793,0.287-5.422,0.536-7.823,0.751c-9.124,0.755-14.19,1.029-14.214,1.103c0,0-0.079,0.122,0.363,0.251
		c0.438,0.129,1.524,0.572,1.721,0.651c0.197,0.081,0.197,0.109,0.243,0.081c0.044-0.029-0.119-0.078,0.091-0.075
		c0.214,0.005-0.013,0.002,0.213,0.08c0.227,0.083,1.713,0.407,2.26,0.509c0.327,0.371,0.372,0.465,0.615,0.577
		c0.238,0.107,0.13,0.093,0.36,0.17c0.227,0.08,0.377,0.144,0.454,0.192c0.072,0.047,0.133,0.079,0.209,0.187
		c0.072,0.106-0.065,0.195,0.25,0.383c0.319,0.187,0.258,0.169,0.379,0.16c0.123-0.017,0.182,0.002,0.305,0.021
		c0.119,0.016,0.031-0.005,0.257,0.03c0.229,0.035,0.184-0.011,0.408,0.04c0.23,0.049,0.304,0.096,0.454,0.113
		c0.153,0.016,0.29,0.001,0.413,0.069c0.117,0.061,0.133,0.063,0.394,0.172c0.255,0.109,0.069,0.153,0.468,0.161
		c0.396,0.008,0.396-0.011,0.562,0.038c0.167,0.051,0.058,0.079,0.272,0.082c0.213,0.001,0.181,0.034,0.306,0.006
		c0.121-0.03,0.21-0.03,0.35-0.029c0.137,0.006,0.151,0.021,0.224,0.036c0.078,0.019,0.275,0.065,0.275,0.065
		s0.183,0.067,0.026,0.123c-0.15,0.06-0.12,0.06-0.425,0.099c-0.306,0.04-1.435,0.267-1.801,0.29
		c-0.364,0.023-0.566,0.218-0.917,0.246c-0.349,0.024-0.855,0.165-1.204,0.206c-0.354,0.037-0.306,0.057-0.761,0.062
		c-0.46,0.009-0.867-0.027-1.112-0.034c-0.242-0.006-0.166,0.014-0.639-0.011c-0.471-0.024-0.745,0.033-0.412,0.145
		c0.333,0.115,0.455,0.146,0.682,0.162c0.228,0.024,0.123,0.004,0.714,0.031c0.595,0.025,1.521,0.067,2.097,0.096
		c0.579,0.025,2.344-0.009,3.639-0.031c1.291-0.023,9.425-0.349,11.21-0.667c-1.238,0.269-1.678,0.437-5.541,0.838
		c-1.881,0.193-5.906,0.507-5.906,0.507c0.242,0.112,1.109,1.466,1.224,1.769c0.118,0.307,0.449,1.438,0.612,1.729
		c0.164,0.295,0.744,1.047,0.486,0.966c-0.259-0.077-0.469-0.247-0.577-0.13c-0.106,0.122-0.059,0.104-0.257,0.042
		c-0.198-0.066-0.451-0.326-0.65-0.466c-0.195-0.143-0.239-0.146-0.421-0.194c-0.18-0.046-0.48-0.263-0.586-0.344
		c-0.108-0.075-0.002,0.138,0.16,0.295c0.164,0.153,0.181,0.292,0.3,0.385c0.117,0.093,0.132,0.232,0.313,0.384
		c0.179,0.154,0.539,0.301,0.754,0.487c0.209,0.185,0.355,0.444,0.536,0.572c0.182,0.119,0.422,0.267,0.495,0.34
		c0.074,0.078,0.194,0.187,0.194,0.291c-0.002,0.11,0.102,0.295,0.225,0.188c0.122-0.105,0.073,0.092,0.332-0.008
		c0.262-0.104,0.384-0.114,0.443-0.114c0.061,0,0.261,0.108,0.346,0.247c0.091,0.138,0.362,0.283,0.084,0.476
		c-0.277,0.192-0.383,0.208-0.492,0.312c-0.106,0.102-0.334,0.037-0.077,0.255c0.254,0.219,0.192,0.307,0.325,0.341
		c0.137,0.031,0.135,0.216,0.498,0.324c0.363,0.114,3.398,0.604,3.943,0.856c0.543,0.252,0.66,0.355,0.95,0.58
		c0.608,0.472-0.28,0.383-0.51,0.379c-0.226-0.004-0.454-0.084-0.619-0.164c-0.168-0.075-0.799-0.453-1.162-0.564
		c-0.362-0.111-2.162-0.005-2.617-0.057c-0.459-0.054-1.14-0.095-1.067,0.072c0.074,0.169,4.071,1.357,4.479,1.519
		c0.408,0.157,0.655,0.178,0.939,0.378c0.286,0.205,0.845,0.372,1.161,0.576c0.313,0.199,1.357,0.75,1.562,1.03
		c0.208,0.277,1.018,1.065,1.229,1.206s0.167,0.171-0.062,0.165c-0.228-0.003-0.604-0.1-0.487,0.066
		c0.119,0.173,0.119,0.173,0.269,0.339c0.146,0.173,0.328,0.28,0.161,0.388c-0.17,0.101-0.144,0.117-0.31,0.252
		c-0.173,0.136-0.992,1.616-0.764,1.603c0.229-0.009,0.105,0.08,0.365,0.083c0.257,0.006,0.456-0.007,0.317,0.112
		c-0.141,0.12-0.809,0.963-1.039,1.187c-0.231,0.222-0.416,0.266-0.661,0.37c-0.243,0.102-0.124,0.039-0.396,0.217
		c-0.281,0.18-0.983,0.47-0.62,0.447c0.369-0.023,0.611-0.155,0.442,0.115c-0.176,0.27-0.561,1.4-0.947,1.884
		c-0.349,0.428-2.31,1.864-0.761,1.667c-0.061,0.025,0.37-0.043,0.311-0.015c20.294-4.387,46.999-14.655,50.131-16.063
		C191.349,69.298,187.795,54.123,187.691,53.126z"/>
	<path fill="#FFFFFF" d="M146.932,44.062c-0.393-0.576-2.764-2.936-4.553-4.304c-1.788-1.37-3.884-2.999-5.355-3.842
		c-1.444-0.791-4.036-2.089-7.876-1.755c-0.714,0.062-2.113,0.299-2.21,1.074c-0.044,0.35-0.009,0.862,0.996,1.719
		c1.005,0.858,5.68,5.116,5.68,5.116l2.743,2.241c0,0,3.554,3.544,8.23,2.307C145.291,46.382,148.096,45.767,146.932,44.062z
		 M142.349,44.484c-1.253,0.145-2.755-1.205-2.755-1.205s-6.644-5.423-7.412-5.986c-0.767-0.565-0.787-0.839-0.827-0.961
		c0.057-0.414,0.948-0.38,1.236-0.344c1.658,0.204,4.37,2.417,6.989,4.473c2.618,2.049,3.671,2.954,3.735,3.456
		C143.374,44.37,142.708,44.425,142.349,44.484z"/>
	<path fill="#FFFFFF" d="M160.928,78.482c-2.311,0.813-3.041,0.349-4.553-3.202c-0.648-1.474-1.799-3.646-2.657-5.036
		c-2.125-3.331-2.044-3.847,0.688-4.398c2.691-0.427,4.002-0.248,5.836,2.768c0.737,1.267,1.533,2.884,2.148,4.377
		C163.732,76.254,163.059,77.601,160.928,78.482z M155.625,67.187c-0.791,0.172-0.518,0.637,0.297,1.912
		c1.061,1.67,2.413,4.265,3.119,6.082c0.528,1.393,0.71,1.933,1.425,1.68c0.672-0.252,0.676-0.843,0.183-2.209
		c-0.663-1.792-1.974-4.344-2.995-5.971C156.87,67.44,156.425,67.029,155.625,67.187L155.625,67.187z"/>
	<path fill="#FFFFFF" d="M38.332,28.553c0,0,0.943,10.4,4.983,17.619c-1.894-2.956-4.689-7.421-8-18.711
		c-4.778-1.847-3.028-1.16-4.667-1.813c-0.002,0.196-0.239,8.309,3.795,18.096c-1.747-3.573-4.295-8.861-6.292-19.125
		c-2.979-1.313-4.667-2.022-4.667-2.022s3.667,17.866,15.401,31.584c1.223,0.202,2.403,0.336,3.689,0.523
		c-0.659-1.015-8.251-12.918-8.578-22.646c0.623,2.283,4.353,12.298,13.308,23.259c1.294,0.158,2.574,0.288,3.928,0.429
		c-0.834-1.049-8.593-11.322-9.226-25.949L38.332,28.553z"/>
	<path fill="#FFFFFF" d="M148.323,33.311c-1.215-0.014-2.258-0.026-2.691-0.008c1.675,0.962,7.581,4.118,12.299,8.817
		c-0.535-0.41-10.311-6.747-14.938-8.765c-1.784,0.097-3.791,0.145-5.655,0.286c1.165,0.728,10.282,6.661,14.277,11.273
		c0.886-0.18,1.875-0.373,2.744-0.54c-0.348-0.362-4.681-4.737-10.878-8.686c1.361,0.688,6.685,3.256,13.115,8.278
		c1.719-0.313,3.451-0.575,5.092-0.832C158.947,40.571,153.966,35.851,148.323,33.311z"/>
	<path fill="#FFFFFF" d="M125.313,37.146l-2.919-2.064c-3,0.264-5.918,0.68-9.104,0.936l2.626,2.292l2.931-0.347l12.873,11.406
		c1.242-0.277,2.479-0.567,3.719-0.847l-12.93-11.016L125.313,37.146z"/>
	<path fill="#FFFFFF" d="M57.917,52.173c0,0-2.971-3.594-4.504-6.628c4.035,0.652,4.035,0.652,4.035,0.652s-1.448-2.735-1.71-3.398
		c-2.015-0.311-3.962-0.684-3.962-0.684s-1.513-3.793-2.05-6.57c1.837,0.436,4.249,0.977,4.249,0.977s-0.811-2.954-0.939-3.606
		c0,0-4.128-0.979-8.094-2.197c0.021,0.279,0.743,13.08,12.45,25.562c2.274,0.154,4.665,0.293,8.552,0.457
		c-0.378-0.398-2.002-2.121-3.438-4.17C60.163,52.398,57.917,52.173,57.917,52.173z"/>
	<path fill="#FFFFFF" d="M69.874,52.98c0,0-5.602-4.337-9.721-18.52c-1.367-0.257-2.71-0.537-4.03-0.822
		c0.219,1.023,3.192,14.142,12.958,23.173c3.042,0.049,6.234,0.079,9.471-0.009c-0.414-0.438-2.909-3.105-3.422-3.685
		C72.534,53.091,69.874,52.98,69.874,52.98z"/>
	<path fill="#FFFFFF" d="M81.862,53.062c0,0-7.008-6.997-10.357-16.913c-1.24-0.14-2.477-0.285-3.686-0.449
		c0.279,0.972,4.004,13.167,13.198,21.026c3.035-0.117,6.117-0.303,9.306-0.554l-3.361-3.299L81.862,53.062z"/>
	<path fill="#FFFFFF" d="M82.936,36.974c-2.144-0.066-3.906-0.189-4.014-0.197c0.143,0.333,5.317,12.187,14.237,19.14
		c1.421-0.129,2.83-0.3,4.282-0.461C96.268,54.527,87.79,47.577,82.936,36.974z"/>
	<path fill="#FFFFFF" d="M98.956,36.997c-1.008,0.055-2.045,0.06-3.035,0.093c0.49,0.711,6.692,9.651,12.096,13.936
		c-5.937-3.926-10.288-7.444-15.784-13.882c-1.871,0.027-3.891-0.016-5.705-0.05c0.417,0.787,5.368,10.503,14.605,17.901
		l3.496-0.482c0,0-8.131-6.449-12.741-13.896c1.498,1.591,8.029,8.282,16.463,13.332c1.051-0.148,4.654-0.766,5.707-0.96
		C113.229,52.416,107.618,48.442,98.956,36.997z"/>
	<path fill="#FFFFFF" d="M126.821,89.006c-0.164-0.981-0.441-2.606-0.812-3.987c2.082-0.587,3.31-0.756,3.31-0.756
		s1.071,1.842,1.825,3.614c0.939-0.249,1.901-0.509,2.883-0.773c-0.379-0.93-3.245-7.316-13.106-14.828
		c-1.531,0.234-3.234,0.476-4.405,0.63c0.515,0.626,6.644,8.33,7.355,16.846C124.814,89.529,125.79,89.26,126.821,89.006z
		 M127.658,81.761c0,0-0.838,0.228-2.433,0.545c-0.785-2.71-4.272-7.479-4.272-7.479C124.083,77.021,127.658,81.761,127.658,81.761z
		"/>
	<path fill="#FFFFFF" d="M136.378,86.452c0.539-0.151,2.798-0.796,2.831-0.809c-1.553-4.37-5.818-10.997-9.761-14.646
		c-1.071,0.17-2.117,0.343-3.158,0.498C130.449,75.301,134.811,81.729,136.378,86.452z"/>
	<path fill="#FFFFFF" d="M141.784,84.881c0.812-0.249,1.639-0.483,2.462-0.742c-0.604-1.64-1.807-4.105-3.104-6.25
		c0.1-0.022,0.196-0.045,0.295-0.066c1.262-0.281,1.642,0.12,2.353,1.415c0.806,1.485,1.585,3.27,2.005,4.424
		c0.828-0.271,1.657-0.511,2.487-0.789c-0.3-0.884-0.875-2.31-1.432-3.426c-1.226-2.416-2.518-3.368-4.657-3.107
		c1.702-0.726,1.806-1.923,0.4-3.862c-0.138-0.188-0.272-0.372-0.413-0.552c-1.68-2.159-3.468-2.546-6.229-2.041
		c-1.205,0.221-2.352,0.418-3.592,0.612C136.08,73.985,140.264,80.751,141.784,84.881z M136.984,71.651
		c1.14-0.185,1.991-0.042,2.895,1.13c0.187,0.247,0.373,0.498,0.56,0.757c0.883,1.23,0.605,1.841-0.479,2.061
		c-0.085,0.015-0.161,0.029-0.246,0.048c-0.952-1.416-1.973-2.775-2.989-3.949C136.812,71.682,136.897,71.664,136.984,71.651z"/>
	<path fill="#FFFFFF" d="M152.66,81.41c-0.379-1.363-1.406-3.896-2.396-5.725c0.231-0.062,0.459-0.13,0.689-0.191
		c2.164-0.612,2.579-2.179,0.997-4.626c-0.188-0.284-0.373-0.556-0.56-0.822c-1.706-2.361-3.171-2.619-5.771-2.055
		c-1.047,0.229-2.038,0.436-3.092,0.64c3.006,3,6.71,10.018,7.847,13.554C151.113,81.933,151.926,81.675,152.66,81.41z
		 M149.595,73.799c-0.076,0.021-0.155,0.04-0.232,0.062c-0.939-1.538-2.027-3.153-3.016-4.369c0.081-0.016,0.159-0.034,0.24-0.049
		c1.027-0.195,1.645,0.072,2.509,1.278c0.185,0.264,0.438,0.672,0.621,0.943C150.568,72.943,150.565,73.555,149.595,73.799z"/>
	<path fill="#FFFFFF" d="M167.282,75.607c-0.386-1.916-0.767-3.096-1.468-4.812c0.074-0.025,0.15-0.055,0.225-0.081
		c0.97-0.36,1.597-0.143,1.931,0.907c0.593,1.871,0.884,3.237,0.884,3.237c0.633-0.305,1.07-0.55,1.683-0.863
		c0,0-0.318-1.413-0.528-2.335c-0.479-1.949-1.335-3.102-2.951-2.704c1.353-0.761,1.326-2.143,0.506-3.594
		c-0.081-0.14-0.162-0.277-0.245-0.411c-1.007-1.604-2.328-1.925-4.5-1.269c-0.929,0.28-2.396,0.699-2.88,0.826
		c2.006,2.393,4.964,8.569,5.474,11.948C166.032,76.184,166.679,75.892,167.282,75.607z M163.07,65.165
		c0.069-0.02,0.427-0.134,0.493-0.153c0.934-0.238,1.234-0.065,1.801,0.848c0.119,0.189,0.24,0.388,0.354,0.593
		c0.55,0.972,0.688,1.824-0.188,2.106c-0.063,0.024-0.45,0.203-0.518,0.222C164.43,67.632,163.716,66.054,163.07,65.165z"/>
	<path fill-rule="evenodd" clip-rule="evenodd" fill="#FFFFFF" d="M115.81,40.517l-3.715,0.479c0,0-1.574-1.503-2.008-1.78
		c-0.433-0.276-1.484-1.061-2.349-0.739c-0.38,0.142-0.47,0.652,1.153,2.215c1.623,1.561,7.688,7.421,7.688,7.421
		s2.063,2.198,4.142,1.128c-2.092-2.127-3.303-3.385-3.303-3.385l-1.082,0.172l-2.562-2.459l4.782-0.665l7.317,7.147
		c0,0-1.5,1.659-5.894,2.054c-0.453,0.04-2.417,0.506-5.523-1.853c-1.478-1.122-4.34-4.042-5.01-4.715
		c-0.668-0.673-3.898-3.912-4.42-4.524c-0.521-0.612-3.061-3.267-1.281-4.136c0.324-0.159,4.432-1.633,8.969,1.33
		C113.652,38.817,115.81,40.517,115.81,40.517z"/>
	<path fill="#FFFFFF" d="M167.464,62.241c0,0,0.509,0.818,1.009,1.639l1.92-0.699c0,0,2.173,4.715,2.916,9.337
		c0.978-0.594,1.776-1.053,1.776-1.053s-0.755-4.578-2.748-9.033l1.73-0.697c0,0-0.454-0.969-0.852-1.49
		C170.886,61.084,167.464,62.241,167.464,62.241z"/>
</g>
</svg>
