<?xml version="1.0" encoding="utf-8"?>
<!-- Generator: Adobe Illustrator 16.2.1, SVG Export Plug-In . SVG Version: 6.00 Build 0)  -->
<!DOCTYPE svg PUBLIC "-//W3C//DTD SVG 1.1//EN" "http://www.w3.org/Graphics/SVG/1.1/DTD/svg11.dtd">
<svg version="1.1" id="Layer_1" xmlns="http://www.w3.org/2000/svg" xmlns:xlink="http://www.w3.org/1999/xlink" x="0px" y="0px"
	 width="17px" height="13px" viewBox="0 0 17 13" enable-background="new 0 0 17 13" xml:space="preserve">
<g>
	<defs>
		<rect id="SVGID_1_" x="0.5" y="0.5" width="16" height="12"/>
	</defs>
	<clipPath id="SVGID_2_">
		<use xlink:href="#SVGID_1_"  overflow="visible"/>
	</clipPath>
	<path clip-path="url(#SVGID_2_)" d="M16.5,6.521l-4-4.02v2c-8,0-9,4-9,6c1-4,9-2,9-2v2L16.5,6.521z"/>
	<polygon clip-path="url(#SVGID_2_)" points="9.5,11.5 1.5,11.5 1.5,1.5 9.5,1.5 9.5,2.5 10.5,2.5 10.5,1.5 10.5,0.5 0.5,0.5 
		0.5,1.5 0.5,11.5 0.5,12.5 9.5,12.5 10.5,12.5 10.5,11.5 10.5,10.5 9.5,10.5 	"/>
</g>
</svg>
