<?xml version="1.0" encoding="utf-8"?>
<!-- Generator: Adobe Illustrator 16.2.1, SVG Export Plug-In . SVG Version: 6.00 Build 0)  -->
<!DOCTYPE svg PUBLIC "-//W3C//DTD SVG 1.1//EN" "http://www.w3.org/Graphics/SVG/1.1/DTD/svg11.dtd">
<svg version="1.1" id="Layer_1" xmlns="http://www.w3.org/2000/svg" xmlns:xlink="http://www.w3.org/1999/xlink" x="0px" y="0px"
	 width="346px" height="94px" viewBox="-13.365 -10.812 346 94" enable-background="new -13.365 -10.812 346 94"
	 xml:space="preserve">
<g>
	<g>
		<g>
			<defs>
				<rect id="SVGID_1_" width="318.27" height="73.375"/>
			</defs>
			<clipPath id="SVGID_2_">
				<use xlink:href="#SVGID_1_"  overflow="visible"/>
			</clipPath>
			<path clip-path="url(#SVGID_2_)" d="M173.766,18.856c-0.531,0.094-0.781-0.72-1.156-0.249h-0.91
				c0.033-0.064-0.029-0.098-0.029-0.098l-0.156,0.098c-0.281-0.284-0.471,0.09-0.816,0.03c0,0.185,0.158,0.185,0.128,0.404
				c-0.345-0.091-0.656-0.185-0.972-0.279h-0.25c0-0.095,0.033-0.219-0.035-0.253h-0.121l0.25-0.25
				c-0.28-0.248-0.938-0.406-1.184-0.248c-0.129,0.06-0.627-0.219-0.756,0.094c-0.375-0.282-1.406-0.094-2.1-0.159
				c-0.246-0.248-0.404,0.125-0.749,0c-0.375,0.159-0.5-0.312-0.75,0c-0.877-0.185-2.128-0.029-2.843-0.062l-0.129,0.158h-5.252
				l-0.033,0.094c-0.815,0.029-1.69-0.031-2.471,0.06v0.097c-1.065-0.097-1.818,0.216-2.883,0.091c-0.308,0.223-0.902,0-1.217,0.223
				c-0.283,0.03-0.752-0.129-0.845,0.155l-0.157-0.155c-0.062,0.03-0.062,0.09-0.033,0.155c-0.904,0.094-2.25,0.157-3.314,0.344
				V19.2c-0.596-0.125-0.782,0.313-1.315,0.188c-0.06,0.25-0.5-0.065-0.5,0.25l-0.125-0.125c-0.093,0-0.062,0.094-0.062,0.125
				c-0.625,0.062-1.129,0.311-1.842,0.217c-0.068,0.219-0.506-0.061-0.475,0.253c-0.437,0.09-0.906,0.031-1.283,0.185
				c-0.5,0-0.687,0.378-1,0.564c-0.344,0.688-0.314,1.595-0.717,2.19c-0.129,0.407-0.095,0.938-0.379,1.251
				c-0.031,0.598-0.375,0.843-0.31,1.502c-0.065,0.313-0.281,0.499-0.19,0.906c-0.408,0.252-0.281,0.909-0.501,1.253
				c-0.215,0.908-0.653,1.566-0.625,2.595c-0.092,0.253-0.186,0.471-0.284,0.721c-0.029,0.75-0.343,1.252-0.406,2.001
				c-0.496,0.095-0.094,0.876-0.344,1.129c-0.058,0.532-0.31,0.936-0.217,1.563c-0.373,0.252-0.033,1.033-0.373,1.314v0.375
				c-0.253,0.247-0.412,0.69-0.412,1.127c-0.25,0.563-0.154,1.282-0.466,1.782h-0.092c-0.129,0.346,0.058,0.813-0.158,1.064
				c-0.065,0.656-0.252,1.155-0.377,1.781c0.097,0.502-0.219,0.626-0.125,1.126c-0.219,0.097,0.035,0.5-0.188,0.595
				c-0.06,0.379-0.156,0.846-0.092,1.282c-0.187,0.253-0.312,0.502-0.254,0.908c-0.214,0.188,0,0.688-0.214,0.847
				c-0.096,0.312-0.096,0.688-0.096,1.062c-0.373,0.469-0.127,0.722-0.186,1.408c-0.316,0.252-0.035,0.969-0.252,1.281
				c0,0.031,0.03,0.061,0.094,0.061c-0.373,0.44-0.158,1.349-0.185,2.004c-0.067,0-0.094,0.033-0.129,0.064
				c0.191,0.403,0.25,0.876,0.379,1.344h0.093v0.502c-0.316-0.031-0.035,0.405-0.252,0.437c0.438,0.347,0.561,0.974,0.655,1.599
				c-0.309,0.312-0.28,0.812-0.403,1.221c-0.502,0.406-0.814,0.908-1.724,0.686c-0.217,0.188-0.309-0.312-0.686-0.25
				c0.033-0.188-0.094-0.279-0.25-0.279c-0.316,0.127-0.035-0.314-0.25-0.314c-0.533-0.125-0.439-0.876-0.562-1.344
				c-0.063-0.282-0.286-0.438-0.19-0.814c-0.722-0.468-0.816-1.406-0.937-2.251c0.215-0.03-0.094-0.159,0-0.25
				c0.029-0.627,0.343-1.252,0.091-1.909c0.315-0.312-0.248-0.626,0.096-0.938v-0.502c0.25-0.03-0.066-0.158,0-0.25
				c0.063-0.625,0.278-1.157,0.186-1.908c0.22-0.123,0-0.561,0.22-0.688c-0.156-0.596,0.284-0.971,0-1.47
				c0.188-0.253,0.059-0.72,0.094-1.095h0.094c-0.065-0.723,0.31-0.969,0.25-1.692c0.219-0.217,0-0.748,0.219-0.97
				c0.091-0.219,0.091-0.624,0.091-0.936c0.19-0.063-0.027-0.441,0.19-0.502v-0.598c0.158-0.216,0.314-0.498,0.25-0.904
				c0.221-0.188,0-0.688,0.221-0.846c0.123-0.562,0.093-1.252,0.377-1.721c-0.096-0.686,0.154-1.158,0.214-1.753
				c0.188-0.09,0.188-0.404,0.344-0.593c-0.027-0.843,0.41-1.343,0.41-2.191c0.403-0.157,0.127-0.814,0.438-1.064
				c0-0.656,0.404-0.999,0.404-1.656c0.158-0.252,0.375-0.532,0.317-1h0.093c-0.035-0.44,0.186-0.627,0.25-1.037
				c0.28-0.313,0.246-0.811,0.403-1.217c0.377-0.19,0.256-0.817,0.502-1.129c0.097-0.687,0.535-1.219,0.535-2
				c0.187-0.188,0.277-0.438,0.308-0.72c0.127-0.407,0.348-0.78,0.19-1.283c-0.342,0.22-0.125,0.845-0.533,1.001
				c-0.123,0.406-0.217,0.814-0.315,1.252c-0.06-0.032-0.088,0-0.088,0.031c0.28,0.221-0.129,0.406-0.066,0.659h-0.092
				c-0.098-0.597,0.158-0.909,0.186-1.411c0.093-0.312,0.22-0.625,0.316-0.938c-0.158-0.405,0.25-0.533,0.059-0.908
				c-0.469,0.095-0.969,0.22-1.252,0.439c-0.905-0.064-1.407,0.501-2.155,0.563c-0.254,0.127-0.564,0.157-0.722,0.346
				c-0.594,0.124-0.846,0.593-1.532,0.561c-0.06,0.22-0.406-0.03-0.472,0.19c-0.215,0.06-0.592-0.125-0.625,0.155
				c-0.469-0.095-0.592,0.219-1,0.094c-0.158-0.154-0.158-0.657,0-0.846c0.064-0.25,0-0.717-0.123-0.999
				c0.218-0.158,0-0.626,0.218-0.815c0.186-0.061,0.372,0,0.436-0.251c0.314,0,0.627-0.187,0.848,0
				c0.468,0.126,0.625-0.187,1.123-0.091c0.158-0.096,0.41-0.156,0.533-0.344c0.373,0,0.564-0.094,0.848-0.188
				c0.343,0.063,0.531-0.096,0.654-0.25c0.752,0.154,1-0.314,1.594-0.376v-0.096c0.564-0.094,1.127-0.187,1.662-0.342v-0.094
				c0.435,0.03,0.781-0.065,1-0.315c0-0.655,0.343-1.093,0.502-1.656c0-0.472-0.41-0.657-0.41-1.127
				c-0.215-0.03,0.066-0.469-0.25-0.407v-1c0.187-0.128,0.25-0.377,0.378-0.562c0.247-0.532,0.905-0.503,1.44-0.69v-0.094
				c0.246-0.063,0.717,0.156,0.746-0.22c0.156-0.279,0.064-0.751,0.439-0.844v-0.157c0.065,0,0.159,0.032,0.223-0.029v-0.127h0.34
				c0.125,0.188,0.312,0.313,0.662,0.251c0.156-0.346,0.652-0.78,1.029-0.376c0.155,0.064,0.467,0.094,0.563-0.061
				c0-0.91,1.312-0.566,1.437,0c0.159,0.249,0.159,0.842,0,1.094c0,0.939-0.781,1.313-0.5,2.471c-0.187,0.154,0,0.532-0.343,0.596
				c-0.155,0.531-0.94,0.656-0.659,1.438h0.161v0.094c0.183,0.095,0.498,0.095,0.716,0v-0.094c0.625,0.124,0.94-0.22,1.596-0.096
				c0.127-0.217,0.565,0,0.69-0.188c0.279-0.063,0.75,0.128,0.843-0.154c1.221-0.125,1.785-0.159,2.975-0.344v-0.125
				c0.373-0.031,0.871,0.094,1.154-0.096c1.223,0,2.694,0.033,3.695-0.031v-0.061c0.5,0.157,1.342,0.157,1.846,0
				c0.215,0.188,0.625,0.061,0.969,0.092c0.094,0.313,0.094-0.155,0.279,0c0.971,0.033,1.41-0.092,2.252,0.096
				c-0.058,0.438,0.567,0.062,0.567,0.469h0.591c0,0.031-0.029,0.125,0.061,0.154l0.127-0.154c-0.029,0.188,0.408,0.188,0.377,0
				v0.091c1.347,0,2.597,0.158,3.879,0.251c0.156-0.188,0.5-0.06,0.752-0.093c0.029,0.189,0.281,0.064,0.402,0.093
				c0-0.188,0.254-0.06,0.348-0.093c0,0.189,0.218,0.064,0.315,0.093l0.06-0.06c0.843,0.031,1.846,0.185,2.877,0.156v0.094
				c1.162-0.065,1.908,0.313,3.068,0.249c0.25,0.189,0.688,0.064,1.059,0.127c-0.027,0.062,0,0.156,0.098,0.123
				c0.061,0,0.157,0.062,0.186-0.031v-0.092c0.189,0.31,0.812,0,1.066,0.25c0.314,0.125,0.846,0.06,1.283,0.094 M132.97,32.964
				v0.407c-0.096,0.189-0.223,0.408-0.316,0.593c0.129,0.471-0.215,0.627-0.094,1.097c-0.436,0.408-0.375,1.159-0.436,1.845h-0.097
				c-0.061,0.189,0.068,0.501-0.123,0.564c0,0.312,0.033,0.719-0.092,0.938c-0.223,0.189,0,0.689-0.188,0.876
				c0.059,0.565-0.156,0.938-0.222,1.378c-0.186,0.188-0.215,0.499-0.344,0.748c-0.094,0.472-0.121,0.908-0.094,1.41
				c0.281,0.031,0.158-0.312,0.41-0.346c0.028-0.498,0.282-0.812,0.186-1.408c0.217-0.062,0-0.438,0.217-0.5
				c-0.217-0.469,0.347-0.812,0.25-1.438h0.097c0.032-0.187-0.097-0.467,0.092-0.562c-0.06-0.596,0.094-1.034,0.188-1.532
				c0.502-0.283,0.285-1.127,0.408-1.662c0.123-0.28,0.158-0.654,0.344-0.844c-0.034-0.749,0.064-0.78,0.216-1.375
				C133.313,33.025,133.185,32.935,132.97,32.964"/>
		</g>
		<g>
			<defs>
				<rect id="SVGID_3_" width="318.27" height="73.375"/>
			</defs>
			<clipPath id="SVGID_4_">
				<use xlink:href="#SVGID_3_"  overflow="visible"/>
			</clipPath>
			<path clip-path="url(#SVGID_4_)" d="M314.119,13.285c0.507,0.506,0.821,1.209,1.475,1.546c0,0.243,0.267,0.193,0.387,0.364
				l0.266,0.313c-0.121-0.047-0.172-0.266-0.337-0.119c0.021,0.41,0.435,0.288,0.508,0.653c0.288,0.167,0.312,0.553,0.578,0.725
				c0,0.047-0.047,0.142,0.023,0.169c0.192-0.049,0.121,0.24,0.192,0.313c0.193,0.577,0.725,0.797,0.748,1.498
				c-0.12-0.24-0.146-0.628-0.481-0.701c0.194-0.364-0.338-0.22-0.146-0.58c-0.312-0.073-0.337-0.434-0.578-0.579
				c-0.073-0.387-0.289-0.63-0.532-0.895c-0.221-0.338-0.533-0.557-0.771-0.844c-0.148,0.193,0.096,0.216,0.072,0.384
				c0.144-0.024,0,0.242,0.144,0.242c0.195,0.195,0.314,0.435,0.46,0.655c0.292,0.48,0.556,1.013,0.678,1.617
				c0.192,0.265,0.388,0.555,0.409,0.943c0.12,0.289,0.438,0.41,0.316,0.868c0.021,0.047,0.071,0.047,0.121,0.047
				c-0.05,0.292,0.071,0.414,0.144,0.63c0.12,0.194,0.021,0.507,0.167,0.677c0.026,0.097-0.073,0.242,0.073,0.242
				c-0.098,0.65,0.168,1.061,0.075,1.69c0.143,0.096,0.044,0.364,0.069,0.558c-0.025-0.026-0.048,0.021-0.069,0.021
				c0,0.052-0.026,0.146,0.044,0.171h0.099c0.095,0.265-0.191,0.409,0,0.604c-0.291,0.627-0.05,1.86-0.191,2.367h0.05
				c-0.05,0.532-0.223,1.014-0.148,1.619c-0.268,0.168-0.073,0.678-0.238,0.894c0.094,0.29-0.171,0.362-0.071,0.652h-0.075
				c0.075,0.507-0.312,0.605-0.195,1.137c-0.095,0.215-0.167,0.431-0.238,0.65c0.024,0.265-0.097,0.411-0.146,0.604v0.243
				c-0.146,0.168-0.241,0.386-0.192,0.702c-0.243,0.266-0.146,0.794-0.386,1.086c0.117,0.386-0.244,0.361-0.171,0.723
				c-0.146,0-0.048,0.194-0.073,0.269c-0.146,0.166-0.191,0.433-0.264,0.651c-0.049,0.435-0.314,0.722-0.314,1.16
				c-0.219,0.048-0.05,0.34-0.267,0.385c0,0.461-0.314,0.653-0.314,1.09c-0.022,0.24-0.314,0.291-0.243,0.627
				c-0.238,0.097-0.191,0.459-0.285,0.703c-0.073,0.602-0.653,0.746-0.558,1.448c-0.17,0.095,0.022,0.386-0.146,0.481
				c0.073,0.602-0.461,0.771-0.437,1.354c-0.266,0.312-0.412,0.726-0.462,1.232c-0.166,0.092-0.144,0.384-0.309,0.506
				c0.07,0.412-0.295,0.435-0.196,0.87c-0.12,0.268-0.385,0.387-0.312,0.773c-0.46,0.603-0.46,1.545-0.871,2.224v0.288
				c-0.216,0.048-0.073,0.312-0.191,0.435c-0.073,0.146,0.094,0.12,0.094,0.245c0.073,0.092,0.171,0.287,0.318,0.333
				c0.047,0.414-0.026,0.753-0.221,1.019c-0.12,0.072-0.289,0-0.289,0.191c-0.386,0.049-0.651-0.072-0.771-0.361
				c0.05-0.269-0.071-0.408-0.146-0.604c0.021-0.171-0.05-0.29-0.146-0.364c-0.435,0.219-0.435,0.799-0.628,1.211
				c-0.459,0.459-0.63,1.206-1.039,1.739c-0.243,0.991-0.87,1.618-1.4,2.342c-0.36,0.363-0.291,1.063-0.725,1.329
				c-0.217,0.895-0.941,1.331-1.398,2.004c-0.46,0.581-0.682,1.282-1.232,1.79c-0.122,0.192-0.387,0.288-0.51,0.532
				c-0.193,0.121-0.12,0.578-0.458,0.529c-0.241,0.605-0.797,0.92-1.089,1.476c-0.216,0.313-0.652,0.338-0.727,0.771
				c-0.19,0.099-0.407,0.27-0.507,0.463c-0.169,0.047-0.266,0.24-0.457,0.24c-0.049,0.264-0.363,0.166-0.363,0.459
				c-0.362-0.121-0.168,0.362-0.483,0.266v0.098c-0.358,0.07-0.726,0.145-1.062,0.266v0.071h-0.848v-0.071
				c-0.41,0.023-0.699-0.17-0.794-0.437c-0.437-0.362-1.019-0.483-1.33-0.99c-0.34-0.069-0.244-0.479-0.58-0.58
				c-0.022-0.267,0-0.508-0.219-0.627c-0.026-0.073,0.024-0.146-0.048-0.192h-0.073c-0.12-0.289-0.097-0.654-0.312-0.846
				c0.098-0.363-0.17-0.484-0.073-0.847c-0.171-0.099,0-0.46-0.171-0.556c-0.17-0.389,0.193-0.629-0.145-0.896
				c0.049-0.483-0.265-0.894,0.071-1.256c0.024-0.337-0.071-0.724,0.073-0.967c-0.238-0.196,0.193-0.386-0.073-0.58
				c0.147-0.05,0.049-0.241,0.073-0.362c0.242-0.072-0.096-0.072,0-0.219c-0.073-0.725,0.17-1.206,0.099-1.934
				c0.146-0.119-0.024-0.479,0.146-0.578c0.022-0.094-0.073-0.24,0.069-0.24c-0.069-0.459,0.173-0.678,0.073-1.111
				c0.169-0.049,0-0.34,0.169-0.388v-0.483c0.244,0.051,0-0.24,0.194-0.266c-0.146-0.023-0.049-0.219-0.073-0.336
				c0.073-0.245,0.146-0.51,0.219-0.751c-0.073-0.339,0.169-0.461,0.07-0.8c0.099-0.24,0.17-0.508,0.243-0.746v-0.29
				c0.171,0.022,0.096-0.144,0.121-0.242c0.219-0.362,0.146-0.966,0.386-1.304c-0.099-0.389,0.241-0.483,0.144-0.896
				c0.051-0.239,0.221-0.387,0.174-0.7c0.121-0.146,0.193-0.387,0.22-0.627c0.092-0.438,0.262-0.824,0.456-1.16
				c-0.053-0.291,0.07-0.482,0.191-0.654c0.191-0.481,0.438-0.819,0.512-1.375c0.069,0,0.117-0.024,0.117-0.098
				c0-0.047,0-0.146-0.07-0.146c-0.244,0-0.17,0.291-0.366,0.342c0,0.36-0.409,0.336-0.409,0.699
				c-0.266,0.216-0.266,0.604-0.577,0.773c-0.606,0.674-1.065,1.52-1.62,2.198c-0.145,0.509-0.58,0.748-0.701,1.208
				c-0.314,0.119-0.314,0.58-0.629,0.727v0.24h-0.072c-0.146,0.433-0.482,0.676-0.579,1.11c-0.218,0.192-0.339,0.483-0.507,0.699
				c-0.267,0.17-0.098,0.604-0.411,0.7c-0.316,0.363-0.362,0.871-0.556,1.307c-0.17,0.098-0.147,0.338-0.266,0.482
				c-0.074,0.629-0.46,1.037-0.535,1.69h-0.094c-0.072,0.847-0.555,1.4-0.771,2.127c-0.098,0.651-0.365,1.183-0.652,1.69
				c-0.338,0.65-0.557,1.326-0.895,1.98c-0.074,0.268-0.121,0.577-0.291,0.772c-0.024,0.289-0.242,0.461-0.17,0.821
				c-0.193,0.121-0.217,0.483-0.408,0.652c-0.05,0.387-0.244,0.604-0.293,0.99c-0.143,0.048-0.047,0.242-0.07,0.361
				c-0.605,0.555-1.188,1.354-2.319,0.968c-0.312-0.123-0.385-0.509-0.726-0.628c-0.168-0.072-0.36-0.123-0.459-0.266
				c-0.629-0.193-0.557-0.965-0.678-1.596c0.049,0.023,0.072,0,0.1-0.023c-0.315-0.34,0.217-0.412,0.146-0.752
				c-0.099-0.578,0.167-0.914,0.071-1.496c0.168-0.194,0-0.627,0.168-0.821c0.047-0.265,0.193-0.481,0.146-0.847
				c0.242,0,0-0.362,0.194-0.409c-0.147-0.095-0.049-0.337-0.073-0.509c0.312-0.072,0.024-0.532,0.219-0.651
				c0.047-0.532,0.24-0.968,0.168-1.546c0.144,0,0.047-0.168,0.072-0.241c-0.025-0.024-0.05-0.047-0.072-0.047
				c0.047-0.267,0.217-0.485,0.144-0.847c0.17,0.049,0.123-0.146,0.123-0.219c0.24-0.578,0.097-1.377,0.628-1.74v-0.117
				c0.241-0.1,0.192-0.461,0.288-0.705c0.17-0.434,0.363-0.867,0.483-1.301c0.072-0.17,0.146-0.315,0.216-0.484
				c0.049-0.46,0.196-0.82,0.389-1.186v-0.241c0.241-0.144,0.269-0.531,0.363-0.796c-0.05-0.629,0.41-0.821,0.29-1.473
				c0.216-0.293,0.145-0.848,0.167-1.281h0.073c0.023-0.268,0.121-0.703-0.073-0.848c-0.118-0.312-0.386-0.46-0.652-0.578h-0.481
				c-0.1-0.289-0.508-0.242-0.773-0.365h-0.385c-0.122-0.166-0.436-0.287-0.458-0.578c-0.172-0.627,0.287-0.797,0.312-1.305
				c0.34-0.289,0.508-0.846,1.088-0.895v-0.073c0.291-0.047,0.75,0.122,0.896-0.146c0.17-0.336,0.457-0.53,0.726-0.771
				c0.049-0.025,0.118,0.023,0.146-0.049c0.216-0.243,0.53-0.385,0.772-0.579c0.118-0.194,0.24-0.289,0.435-0.339
				c0.387-0.242,0.532-0.701,1.016-0.821c0.048-0.434,0.531-0.388,0.677-0.774c0.072,0,0.168,0.024,0.192-0.047v-0.097
				c0.169-0.073,0.146-0.289,0.312-0.362c0.221-0.386,0.221-1.016,0.703-1.161v-0.07c0.191-0.147,0.555-0.027,0.82-0.123
				c0.193-0.024,0.436,0.193,0.771,0.123c0.051,0.142,0.192,0.193,0.293,0.265c0.48,0.361,0.748,0.916,0.748,1.618
				c-0.121,0.24-0.39,0.388-0.39,0.7c-0.358,0.41-0.819,0.87-1.157,1.328c0.023,0,0.023,0.052,0.072,0.026
				c-0.312,0.603-0.848,1.039-0.968,1.785c-0.167,0.338-0.289,0.727-0.506,0.991c-0.072,0.29-0.146,0.558-0.22,0.819
				c-0.146,0.316-0.389,0.558-0.389,0.969c-0.238,0.193-0.335,0.456-0.357,0.848c-0.172,0.385-0.508,0.674-0.531,1.156
				c-0.073,0.438-0.363,0.68-0.363,1.137c-0.096,0.291-0.438,0.313-0.339,0.771c-0.194,0.24-0.265,0.533-0.387,0.848
				c-0.144,0.049-0.048,0.266-0.07,0.387c-0.317,0.17-0.172,0.725-0.438,0.965c-0.047,0.267-0.191,0.462-0.217,0.775
				c-0.049,0.17-0.242,0.241-0.17,0.508c-0.121,0.17-0.217,0.434-0.217,0.676c-0.216,0.361-0.049,0.918-0.436,1.137
				c0.268,0.268-0.191,0.506,0.07,0.771c-0.312,0.074-0.021,0.652-0.338,0.771c0.315,0.561-0.287,0.803-0.068,1.428
				c-0.316,0.096-0.051,0.627-0.244,0.82c-0.023,0.096,0.07,0.289-0.072,0.339c0.219,0.651-0.508,1.546,0.316,1.739
				c0.119-0.266,0.168-0.533,0.406-0.701c0.223-0.412,0.387-0.871,0.702-1.184c0.22-0.338,0.386-0.773,0.531-1.16
				c0.291-0.194,0.435-0.58,0.58-0.895c0.217-0.507,0.678-0.871,0.823-1.426c0.481-0.338,0.433-1.062,0.916-1.4
				c0.192-0.483,0.461-0.968,0.773-1.305c0.338-0.389,0.434-0.941,0.821-1.257c0.241-0.289,0.265-0.726,0.579-0.917
				c0.191-0.482,0.533-0.896,0.703-1.402c0.408-0.193,0.408-0.725,0.648-1.037c0.485-0.513,0.58-1.283,1.11-1.742
				c-0.044-0.24,0.266-0.289,0.243-0.529c0.363-0.217,0.363-0.748,0.822-0.896v-0.145c0.481-0.336,1.108-0.674,1.232-1.398
				c0.047-0.123,0.217-0.145,0.146-0.336c0.141-0.102,0.188-0.293,0.263-0.438c0.146-0.193,0.386-0.288,0.386-0.532
				c0.145-0.121,0.193-0.337,0.289-0.506c0.268-0.241,0.268-0.653,0.532-0.942v-0.193c0.193-0.194,0.388-0.46,0.435-0.798
				c0.171-0.361,0.561-0.531,0.654-0.968c0.022-0.192,0.24-0.289,0.387-0.36c0.12-0.123,0.384-0.123,0.578-0.219
				c0.753-0.265,0.753,0.46,1.355,0.413c0.12-0.437,0-1.162,0.58-1.184c0.337,0.168,0.506,0.747,0.986,0.651V34.33h0.172
				c-0.049,0.241,0.289,0,0.312,0.192c0.726,0.119-0.021,1.354,0.65,1.547c-0.069,0.652,0.729,0.628,0.607,1.306
				c-0.099,0.219-0.05,0.82-0.412,0.939c-0.195,0.412-0.409,0.773-0.627,1.164c-0.025,0.434-0.412,0.674-0.384,1.181
				c-0.245,0.17-0.146,0.63-0.393,0.771c-0.067,0.412-0.312,0.631-0.263,1.139c-0.122,0.242-0.146,0.555-0.34,0.773
				c-0.217,0.484-0.238,1.038-0.384,1.569c-0.196,0.047,0.021,0.362-0.196,0.362c-0.049,0.191-0.096,0.387-0.19,0.483
				c0,0.701-0.462,1.036-0.509,1.664c-0.146,0.147-0.215,0.39-0.24,0.629c-0.122,0.245-0.194,0.485-0.269,0.773
				c-0.216,0.243-0.191,0.651-0.312,0.966c-0.146,0.125-0.169,0.365-0.268,0.531v0.242c-0.048-0.023-0.048,0.021-0.073,0.021
				c0.22,0.174-0.12,0.27,0,0.51c-0.216,0.316-0.216,0.771-0.312,1.158v0.583h-0.071c0.024,0.409-0.194,0.627-0.122,1.039
				c-0.171,0.144,0,0.507-0.146,0.628c0.072,0.456-0.169,0.674-0.097,1.111c-0.146,0.191,0.023,0.628-0.146,0.82
				c-0.121,0.289,0,0.772-0.146,1.035c0.098,0.316-0.217,0.508-0.05,0.654c-0.072,0.095-0.022,0.24-0.047,0.359h-0.072
				c0.025,0.412-0.195,0.606-0.12,1.043c0.34,0.242,0.387,1.156,1.062,0.82c0.82,0.072,1.015-0.677,1.354-1.16v-0.678
				c0.24,0.051,0-0.238,0.193-0.266c0.095-0.145,0.363-0.12,0.388-0.336c0.313-0.049,0.577-0.195,0.796-0.391
				c0.071-0.217,0.362-0.19,0.362-0.455c0.146-0.437,0.676-0.531,0.726-1.062c0.095-0.241,0.482-0.241,0.434-0.607
				c0.264-0.144,0.436-0.457,0.607-0.697c0.457-0.291,0.457-0.918,0.938-1.207c0.341-0.774,0.873-1.209,1.186-2.008
				c0.578-0.653,0.872-1.476,1.401-2.199c0.245-0.312,0.386-0.772,0.653-1.086c-0.073-0.653,0.75-0.653,0.628-1.354
				c0.195-0.457,0.702-0.749,0.678-1.377c0.24-0.096,0.143-0.459,0.386-0.508c0.07-0.385,0.364-0.555,0.364-0.965
				c0.213-0.313,0.336-0.751,0.505-1.137c0.339-0.24,0.146-0.941,0.53-1.185v-0.12h0.075c0.095-0.289,0.432-0.482,0.432-0.848
				c-0.072-0.312,0.437-0.166,0.269-0.553c0.387-0.195,0.189-0.822,0.459-1.113c0.048-0.24,0.339-0.266,0.267-0.627
				c0.167-0.167,0.338-0.291,0.313-0.604c0.267-0.217,0.122-0.703,0.434-0.848c0.024-0.556,0.218-0.944,0.317-1.474
				c0.094-0.265,0.119-0.58,0.336-0.773c0.097-0.386,0.097-0.847,0.314-1.135c-0.098-0.482,0.119-0.724,0.313-1.041
				c-0.101-0.287,0.146-0.361,0.072-0.648h0.072c0.094-0.775,0.286-1.451,0.434-2.178c0.146-0.073,0.047-0.337,0.071-0.483
				c0.122-0.145,0.221-0.337,0.221-0.556c0.146-0.312,0.239-0.771,0.188-1.038c0.101-0.218,0.172-0.435,0.245-0.651
				c-0.123-0.339,0.241-0.509,0-0.775c0.024-0.098-0.073-0.266,0.073-0.266c0.095-0.578-0.172-0.939-0.073-1.519
				c-0.17-0.051,0-0.342-0.146-0.387c-0.049-0.171,0.048-0.437-0.1-0.532c0.122-0.411-0.188-0.921-0.141-1.426
				c-0.098-0.193-0.122-0.459-0.27-0.579c-0.049-0.632-0.189-1.16-0.455-1.645c-0.025-0.046,0.021-0.145-0.05-0.193
				c-0.172-0.12-0.195-0.338-0.314-0.532c-0.241-0.36-0.438-0.771-0.727-1.086c-0.069-0.385-0.46-0.604-0.58-0.919
				c-0.118-0.266-0.387-0.433-0.458-0.698c-0.265-0.05-0.652-0.1-0.869,0.045c-0.22,0.049-0.292-0.072-0.459-0.121
				c-0.146-0.192-0.05-0.554-0.069-0.821c0.188-0.024-0.052-0.121,0-0.191c0.263-0.339-0.197-0.702,0.069-1.042
				c0.023-0.362,0.218-0.627,0.437-0.844C312.884,13.045,313.708,13.239,314.119,13.285"/>
		</g>
		<g>
			<defs>
				<rect id="SVGID_5_" width="318.27" height="73.375"/>
			</defs>
			<clipPath id="SVGID_6_">
				<use xlink:href="#SVGID_5_"  overflow="visible"/>
			</clipPath>
			<path clip-path="url(#SVGID_6_)" d="M89.501,53.157c1.36-3.267,0.975-7.277-0.098-10.482c-0.756-0.881-1.036-2.664-2.265-2.643
				c-0.029-0.095-0.119-0.218,0.021-0.353c-2.011-1.19-4.637-1.261-6.839-0.527c-1.031-0.084-0.04-0.985-0.181-1.455
				c0.492-1.702,1.56-3.375,1.567-5.063c1.077-1.465,1.035-3.743,2.05-4.998c0.574-2.026,1.359-4.033,1.645-5.993
				c1.106-2.742,0.914-5.855,1.948-8.753c0.908-2.714,1.492-5.905,2.726-8.222c0.063-0.235,0.146-0.445,0.238-0.646
				c-0.414-0.669-1.048-1.227-1.777-1.274c-2.848,3.29-5.39,7.068-7.108,11.379l-0.618,0.512c-1.443,3.428-2.23,6.663-3.94,9.68
				c-0.154,0.646-0.329,1.276-0.561,1.872c-0.035,0.675-0.663,1.158-0.419,1.964c-1.294,3.743-2.366,7.71-3.17,11.277
				c-0.6,1.693-0.016,3.62-1.065,5.102c-0.203,3.088-1.614,10.072-2.54,12.863c1.522,1.283,3.658,0.692,4.917-0.004
				c0.905-2.554,3.194-8.418,4.372-11.004c0.218-1.671,0.837-2.871,1.693-4.641c0.826-0.941,2.032-1.217,3.19-1.396
				c3.385,0.105,3.6,4.318,4.369,6.696c-0.213,1.353-0.453,2.688-0.541,4.015c-0.593,2.823-1.408,3.502-2.903,5.9
				c-0.51,0.443-0.234,0.818,0.14,1.194c1.678,1.036,2.285,1.213,4.188,0.336c0.694-0.521,1.023-1.722,0.66-2.415
				C89.189,54.419,89.738,54.801,89.501,53.157"/>
		</g>
		<g>
			<defs>
				<rect id="SVGID_7_" width="318.27" height="73.375"/>
			</defs>
			<clipPath id="SVGID_8_">
				<use xlink:href="#SVGID_7_"  overflow="visible"/>
			</clipPath>
			<path clip-path="url(#SVGID_8_)" d="M95.059,1.669c0.809-0.5,1.976-0.306,2.561-1.232L97.298,0
				c-0.22,0.187-0.594,0.362-0.833,0.14c-1.504,2.085-4.233,0.892-5.88,2.871c-0.119,0.19-0.257,0.642,0.038,0.821
				C92.337,4.225,93.844,2.701,95.059,1.669"/>
		</g>
		<g>
			<defs>
				<rect id="SVGID_9_" width="318.27" height="73.375"/>
			</defs>
			<clipPath id="SVGID_10_">
				<use xlink:href="#SVGID_9_"  overflow="visible"/>
			</clipPath>
			<path clip-path="url(#SVGID_10_)" d="M283.943,50.455c0.431,0,0.141-0.549,0.214-0.783l-0.073-0.081
				c-1.152,0.711-2.012,1.578-3.02,2.527c-2.01,1.104-3.445,2.844-5.383,3.872c-0.148,0.472-0.65,0.632-0.941,0.867
				c-0.787,1.338-2.006,1.892-3.23,2.527c-0.066,1.021-1.222,0.711-1.365,1.575c-0.931,0.161-1.582,0.633-2.082,1.343
				c-1.365-0.074-1.65,1.184-2.731,1.426c-0.503,0.076-1.146-0.234-1.365,0.237c-1.729,0.009-3.674,0.168-4.541-1.081
				c-1.077,0.155-0.218-1.578-1.013-1.652c0.068-1.493-1.085-1.963-0.801-3.689h-0.215c-0.147-0.236,0.141-0.788-0.289-0.866
				c-0.002-0.706,0.068-1.573-0.08-2.282c-0.506,0.318-1.146,0.477-1.365,0.951c-1.153-0.549-0.723,0.948-1.51,0.869v0.237
				c-0.721,0.001-1.223,0.237-1.726,0.476c-0.721-0.078-1.079,0.24-1.37,0.633c-0.935-0.074-0.933,1.186-2.009,0.951l0.003,0.235
				c-0.938-0.313-1.301,0.476-2.02,0.476c-0.07,0.633-1.08-0.152-0.938,0.637h-0.355c0-0.078-0.002-0.313-0.146-0.393
				c-0.359,0.944-1.652,0.867-2.158,1.579c-1.078-0.312-1.438,0.634-1.938,1.106c-1.292,0.555-3.093,1.109-4.531,0.408
				c-1.159-0.707-2.312-1.49-2.169-3.375c-0.005-0.314,0.066-0.633-0.148-0.785h-0.071c0.067-1.891,0.493-3.467,1.716-4.412
				c1.943-0.637,3.527-0.799,5.398-0.018c-0.066,0.941,0.941,0.779,1.375,1.096c0.572-0.315,2.088,0.391,2.875-0.246
				c1.302,0.393,1.367-0.868,2.662-0.635c0.504-0.869,2.164-0.402,3.021-0.875c1.372,0.467,1.148-1.418,2.738-0.797
				c0.357-0.238,0.93-0.394,1.147-0.869c1.366-0.396,2.731-1.104,2.873-2.918c0.214-0.944,0.354-1.965,0.998-2.597
				c1.644-4.33,3.938-8.11,6.45-11.734c0.793-0.317,0.859-1.42,1.579-1.657c0.937-0.866,1.506-1.89,2.803-2.366v-0.238
				c0.722-0.157,1.726-0.793,2.302-0.557c1.582-0.239,2.162,1.016,3.242,1.64c1.014,1.415,1.809,2.985,1.451,5.5
				c-1.357,1.657-1.352,4.644-3.504,5.435c-0.434,1.027-1.441,1.188-1.872,2.051c-1.004,0.479-1.509,1.262-2.517,1.66
				c-0.14,1.025-1.51,0.477-1.58,1.501c-1.221,0.946-2.875,1.028-3.592,2.526c-1.223,0.316-1.939,1.262-3.092,1.658
				c-1.363,1.262,0.079,2.989-0.349,4.883c0.22,0.471,0.437,0.938,0.725,1.41c0.867,1.492,2.166,2.823,4.325,2.581
				c0.578-0.237,1.229-0.396,1.653-0.87c1.516-0.082,1.942-1.736,3.452-2.054c0.287-0.63,1.221-0.789,1.723-1.269
				c1.227-0.235,1.58-1.89,2.945-1.973c0.505-1.104,2.019-0.715,2.301-2.055c0.436,0.234,0.361-0.393,0.72-0.393
				c-0.144-0.475,0.646-0.002,0.72-0.478c0.862-0.313,1.219-1.34,2.153-1.66c0.862-1.414,2.444-1.731,3.306-3.153 M271.227,33.512
				c-1.506,1.028-2.586,2.447-3.879,3.789c-0.568,1.967-2.226,2.678-2.867,4.49c-0.357,0.709-0.504,1.573-1.072,1.889
				c-0.646,1.573-1.648,2.836-2.148,4.411l0.358-0.001l-0.002-0.078c1.01,0.231,1.006-0.865,2.087-0.638
				c0.936-0.868,1.652-1.974,3.091-2.292c0.505-0.785,1.511-0.946,2.085-1.73c1.795-1.106,3.594-2.373,4.667-4.343
				c-0.147-0.786,0.287-1.099,0.5-1.651c-0.219-0.863,0.353-2.361-0.515-2.75C273.17,33.668,272.38,33.274,271.227,33.512"/>
		</g>
		<g>
			<defs>
				<rect id="SVGID_11_" width="318.27" height="73.375"/>
			</defs>
			<clipPath id="SVGID_12_">
				<use xlink:href="#SVGID_11_"  overflow="visible"/>
			</clipPath>
			<path clip-path="url(#SVGID_12_)" d="M14.371,22.104c-0.315-0.504-0.802-1.263-0.255-1.818c0.148-0.382,0.677-0.371,0.803-0.722
				c0.286-0.023,0.69-0.043,0.989,0.007c0.348,0.116,0.58,0.382,0.746,0.61c-0.095,0.346,0.224,0.748-0.085,1.058
				c-0.218,0.47-0.705,0.633-1.041,0.97C15.172,22.042,14.71,22.325,14.371,22.104"/>
		</g>
		<g>
			<defs>
				<rect id="SVGID_13_" width="318.27" height="73.375"/>
			</defs>
			<clipPath id="SVGID_14_">
				<use xlink:href="#SVGID_13_"  overflow="visible"/>
			</clipPath>
			<path clip-path="url(#SVGID_14_)" d="M4.694,33.743c0.067-0.088,0.159-0.207,0.071-0.344c-0.088-0.135-0.284-0.101-0.427-0.078
				c-0.085,0.144-0.172,0.286-0.075,0.45C4.374,33.873,4.554,33.768,4.694,33.743"/>
		</g>
		<g>
			<defs>
				<rect id="SVGID_15_" width="318.27" height="73.375"/>
			</defs>
			<clipPath id="SVGID_16_">
				<use xlink:href="#SVGID_15_"  overflow="visible"/>
			</clipPath>
			<path clip-path="url(#SVGID_16_)" d="M3.203,34.918c-0.388-0.184-0.84-0.514-1.347-0.303c-0.677,0.095-1.025,0.64-1.55,0.909
				c0.08,0.493-0.619,1.021-0.133,1.528c0.583,0.507,1.532,0.061,2.169-0.099c0.606-0.282,0.97-0.878,1.105-1.463
				C3.326,35.333,3.248,35.116,3.203,34.918"/>
		</g>
		<g>
			<defs>
				<rect id="SVGID_17_" width="318.27" height="73.375"/>
			</defs>
			<clipPath id="SVGID_18_">
				<use xlink:href="#SVGID_17_"  overflow="visible"/>
			</clipPath>
			<path clip-path="url(#SVGID_18_)" d="M13.526,36.01c0.233-0.269-0.262-0.387-0.333-0.602c-0.535-0.421-1.462-0.283-1.876,0.221
				c-0.613,0.282-0.362,0.879-0.709,1.296c0.237,0.286,0.11,0.646,0.156,0.968c-0.121,0.244,0.153,0.176,0.284,0.231
				c0.177,0.269,0.579,0.381,0.927,0.374c0.87-0.152,1.218-0.823,1.67-1.413C13.464,36.786,13.726,36.409,13.526,36.01"/>
		</g>
		<g>
			<defs>
				<rect id="SVGID_19_" width="318.27" height="73.375"/>
			</defs>
			<clipPath id="SVGID_20_">
				<use xlink:href="#SVGID_19_"  overflow="visible"/>
			</clipPath>
			<path clip-path="url(#SVGID_20_)" d="M3.368,42.154c-0.13,0.201-0.141,0.406-0.088,0.65c0.22,0.346,0.654,0.066,0.934,0.021
				c0.185-0.211,0.043-0.468-0.033-0.685C3.949,42,3.61,42.062,3.368,42.154"/>
		</g>
		<g>
			<defs>
				<rect id="SVGID_21_" width="318.27" height="73.375"/>
			</defs>
			<clipPath id="SVGID_22_">
				<use xlink:href="#SVGID_21_"  overflow="visible"/>
			</clipPath>
			<path clip-path="url(#SVGID_22_)" d="M4.289,43.423c0.051,0.093-0.014,0.204-0.091,0.241c-0.103-0.059-0.207-0.143-0.116-0.262
				C4.136,43.395,4.216,43.359,4.289,43.423"/>
		</g>
		<g>
			<defs>
				<rect id="SVGID_23_" width="318.27" height="73.375"/>
			</defs>
			<clipPath id="SVGID_24_">
				<use xlink:href="#SVGID_23_"  overflow="visible"/>
			</clipPath>
			<path clip-path="url(#SVGID_24_)" d="M5.201,48.489c-0.175,0.129-0.397,0.196-0.499,0.391c-0.025,0.282-0.013,0.589,0.304,0.712
				c0.144,0,0.249-0.045,0.352-0.111c0.33-0.213,0.437-0.535,0.456-0.842C5.683,48.43,5.383,48.529,5.201,48.489"/>
		</g>
		<g>
			<defs>
				<rect id="SVGID_25_" width="318.27" height="73.375"/>
			</defs>
			<clipPath id="SVGID_26_">
				<use xlink:href="#SVGID_25_"  overflow="visible"/>
			</clipPath>
			<path clip-path="url(#SVGID_26_)" d="M11.043,48.695c0.017,0.078-0.001,0.129-0.053,0.162c-0.085,0.019-0.191-0.065-0.121-0.155
				C10.932,48.716,11.003,48.654,11.043,48.695"/>
		</g>
		<g>
			<defs>
				<rect id="SVGID_27_" width="318.27" height="73.375"/>
			</defs>
			<clipPath id="SVGID_28_">
				<use xlink:href="#SVGID_27_"  overflow="visible"/>
			</clipPath>
			<path clip-path="url(#SVGID_28_)" d="M22.801,52.729l0.007,0.047c-0.093,0.094-0.27,0.1-0.327-0.02
				C22.497,52.548,22.708,52.717,22.801,52.729"/>
		</g>
		<g>
			<defs>
				<rect id="SVGID_29_" width="318.27" height="73.375"/>
			</defs>
			<clipPath id="SVGID_30_">
				<use xlink:href="#SVGID_29_"  overflow="visible"/>
			</clipPath>
			<polygon clip-path="url(#SVGID_30_)" points="36.349,52.466 36.404,52.331 36.363,52.413 			"/>
		</g>
		<g>
			<defs>
				<rect id="SVGID_31_" width="318.27" height="73.375"/>
			</defs>
			<clipPath id="SVGID_32_">
				<use xlink:href="#SVGID_31_"  overflow="visible"/>
			</clipPath>
			<path clip-path="url(#SVGID_32_)" d="M44.886,51.462c0.449-1.556,0.801-3.118,1.096-4.7l-0.071-0.063
				c-0.473,0.233-0.256,0.834-0.684,1.14c0.181,0.555-0.562,0.891-0.466,1.457c-0.103,0.855-0.96,1.592-0.884,2.471
				C44.243,51.98,44.604,51.636,44.886,51.462"/>
		</g>
		<g>
			<defs>
				<rect id="SVGID_33_" width="318.27" height="73.375"/>
			</defs>
			<clipPath id="SVGID_34_">
				<use xlink:href="#SVGID_33_"  overflow="visible"/>
			</clipPath>
			<path clip-path="url(#SVGID_34_)" d="M43.276,42.951c-0.246,0.066-0.507,0.34-0.626,0.595c-0.687,0.576-0.718,1.372-1.089,2.07
				c-0.174,0.795-0.677,1.545-0.667,2.385c-0.331,0.49-0.235,1.06-0.442,1.58c0.026,0.378-0.486,0.694-0.266,1.042
				c-0.007-0.436,0.456-0.719,0.558-1.169c0.015-0.741,1.082-1.181,0.879-1.987c-0.025-0.224,0.432-0.404,0.228-0.674
				c0.221-0.445,0.479-0.874,0.666-1.341c-0.075-0.343,0.436-0.663,0.104-0.986c0.158-0.337-0.116-0.797,0.335-1.001
				C43.006,43.303,43.222,43.086,43.276,42.951"/>
		</g>
		<g>
			<defs>
				<rect id="SVGID_35_" width="318.27" height="73.375"/>
			</defs>
			<clipPath id="SVGID_36_">
				<use xlink:href="#SVGID_35_"  overflow="visible"/>
			</clipPath>
			<path clip-path="url(#SVGID_36_)" d="M39.154,52.15c-0.698,0.531-0.916,1.406-1.161,2.139c0.04,0.58-0.471,1.047-0.428,1.627
				c-0.594,0.484-0.031,1.18-0.534,1.674c0.145,0.535-0.222,0.983-0.228,1.491c-0.215,0.213-0.161,0.462-0.314,0.688
				c0.198,0.502-0.159,0.998-0.072,1.516c0.334-0.184,0.293-0.508,0.463-0.793c-0.064-0.424,0.228-0.831,0.338-1.253
				c0.313-0.155,0.361-0.47,0.303-0.738c-0.065-0.959,0.968-1.701,0.962-2.644c-0.241-0.693-0.166-1.424,0.471-1.969
				C38.971,53.305,39.25,52.723,39.154,52.15"/>
		</g>
		<g>
			<defs>
				<rect id="SVGID_37_" width="318.27" height="73.375"/>
			</defs>
			<clipPath id="SVGID_38_">
				<use xlink:href="#SVGID_37_"  overflow="visible"/>
			</clipPath>
			<path clip-path="url(#SVGID_38_)" d="M18.788,42.352c-0.37,0.166-0.649,0.494-0.898,0.82c-0.029,0.385-0.435,0.659-0.411,1.038
				c-0.454,0.459-0.376,1.081-0.547,1.622c0.158,0.587-0.476,1.027-0.564,1.552c-0.125,0.226-0.008,0.484-0.171,0.664
				c-0.115,0.399-0.36,0.752-0.262,1.195c-0.42,0.603-0.349,1.334-0.436,1.983c-0.298,0.512-0.264,1.064-0.38,1.597
				c0.014,0.456-0.214,0.876-0.2,1.334c0.124,0.562-0.236,1.059-0.017,1.657c-0.221,0.445-0.024,0.949-0.307,1.379
				c0.211,0.423,0.182,0.964,0.038,1.371c0.05,0.093,0.166,0.226,0.27,0.153c0.043-0.337,0.025-0.663,0.131-0.991
				c0.262-0.271,0.038-0.615,0.361-0.873c-0.089-1.056,0.296-2.094,0.722-3.084c0.129-0.734,0.256-1.471,0.479-2.172
				c0.433-0.558,0.015-1.275,0.565-1.804c-0.024-1.167,0.586-2.244,0.78-3.351c0.062-0.392-0.053-0.904,0.32-1.2
				c-0.233-0.267,0.281-0.431,0.071-0.724c0.191-0.596,0.355-1.187,0.419-1.81C18.663,42.577,19.045,42.46,18.788,42.352"/>
		</g>
		<g>
			<defs>
				<rect id="SVGID_39_" width="318.27" height="73.375"/>
			</defs>
			<clipPath id="SVGID_40_">
				<use xlink:href="#SVGID_39_"  overflow="visible"/>
			</clipPath>
			<path clip-path="url(#SVGID_40_)" d="M16.646,55.131c-0.273,0.354-0.269,0.76-0.508,1.135c0.025,0.248-0.099,0.476-0.128,0.734
				c-0.275,0.479-0.218,1.004-0.46,1.507c0.103,0.312-0.211,0.621-0.003,0.892c0.048-0.037,0.01-0.078,0.003-0.125
				c0.697-1.189,1.058-2.453,1.12-3.765C16.698,55.376,16.808,55.207,16.646,55.131"/>
		</g>
		<g>
			<defs>
				<rect id="SVGID_41_" width="318.27" height="73.375"/>
			</defs>
			<clipPath id="SVGID_42_">
				<use xlink:href="#SVGID_41_"  overflow="visible"/>
			</clipPath>
			<path clip-path="url(#SVGID_42_)" d="M15.581,60.489c-0.043-0.194,0.017-0.462-0.107-0.615c-0.135,0.172-0.124,0.476-0.076,0.701
				C15.474,60.663,15.536,60.546,15.581,60.489"/>
		</g>
		<g>
			<defs>
				<rect id="SVGID_43_" width="318.27" height="73.375"/>
			</defs>
			<clipPath id="SVGID_44_">
				<use xlink:href="#SVGID_43_"  overflow="visible"/>
			</clipPath>
			<path clip-path="url(#SVGID_44_)" d="M62.826,41.35c-0.274,0.604-0.281,1.242-0.672,1.849c-0.06,0.392-0.261,0.808-0.506,1.153
				c0.085,0.242-0.291,0.385-0.15,0.642c-0.238,0.37-0.305,0.845-0.629,1.231c-0.058,0.262-0.083,0.547-0.371,0.701
				c-0.299,0.766-0.575,1.5-1.023,2.239c-0.154,0.483-0.628,0.847-0.602,1.378c-0.237,0.5-0.805,0.956-0.714,1.502
				c-0.555,0.938-0.819,1.848-1.471,2.725c0.075,0.342-0.397,0.58-0.324,0.92c-0.749,0.949-0.928,1.998-1.594,2.955
				c-0.398,0.834-0.95,1.641-1.469,2.446c0.049,0.218-0.287,0.405-0.331,0.616l-0.586,1.171c-0.184,0.364-0.365,0.728-0.46,1.099
				c-0.414,0.226-0.173,0.668-0.528,0.909c0.14,0.382-0.5,0.646-0.181,1.024c-0.434,0.275-0.049,0.697-0.34,0.977
				c-0.081,0.422-0.211,0.752-0.452,1.124c-0.262,0.4-0.632,0.823-0.905,1.173c-0.368,0.194-0.623,0.49-0.954,0.701
				c-0.2,0.29-0.509,0.471-0.819,0.654c-0.436,0.404-0.821,1.029-1.532,0.977c-0.523,0.805-1.769,0.438-2.425,1.031
				c-0.682,0.348-1.496,0.485-2.255,0.749c-0.181,0.104-0.527,0.115-0.731-0.026c-0.245-0.312-0.735-0.026-1.061-0.301
				c-1.223-0.017-2.289-1.008-2.751-1.919c-0.439-0.405-0.779-0.882-1.037-1.399c-0.404-0.518-0.298-1.223-0.59-1.76
				c0.049-0.443-0.639-0.652-0.367-1.133c-0.099-0.722-0.065-1.49,0.16-2.195c-0.079-0.47,0.123-0.889,0.111-1.344
				c-0.202-0.525,0.217-1.005,0.154-1.553c0.35-0.395,0.064-0.9,0.415-1.296c-0.354-0.679,0.32-1.179,0.15-1.835
				c0.178-0.361,0.026-0.797,0.207-1.157c-0.088-0.419,0.24-0.78,0.143-1.224c0.118-0.127-0.014-0.18,0.044-0.314
				c0.278-0.732,0.576-1.502,0.756-2.271c-0.105-0.614,0.482-1.131,0.494-1.741c0.282-0.558,0.263-1.167,0.699-1.698
				c-0.063-0.17,0.234-0.398-0.102-0.471c-0.094-0.159,0.155-0.102,0.192-0.184c0.723-1.477,0.881-3.135,1.79-4.567
				c0.317-1.097,0.963-2.128,1.487-3.187c-0.205-0.268,0.164-0.307,0.233-0.523c0.265-0.659,0.813-1.213,0.965-1.853
				c0.743-1.374,1.393-2.787,2.321-4.145c0.168-0.565,0.821-0.905,0.922-1.511c0.345-0.541,0.777-1.103,1.155-1.627
				c-0.053-0.374,0.558-0.507,0.499-0.902c0.242-0.63,1.788-0.742,0.945-1.541c-0.394,0.071-0.722,0.432-1.082,0.646
				c-0.543,0.452-1.179,0.869-1.685,1.365c-0.396,0.044-0.486,0.415-0.757,0.64c-0.677,0.5-1.071,1.232-1.843,1.565
				c-0.308,0.314-0.73,0.535-0.886,1.001c-0.17,0.153-0.409,0.269-0.439,0.531c-0.91,0.49-1.441,1.524-2.277,2.076
				c-0.252,0.453-0.726,0.813-1.004,1.271c-0.29,0.149-0.361,0.497-0.514,0.724c-0.408,0.252-0.406,0.66-0.651,1.004
				c-0.391,0.606-1.04,1.102-1.341,1.736c-0.218,0.316-0.653,0.729-0.679,1.137c-0.493,0.545-0.886,1.147-1.287,1.699
				c-0.211,0.627-0.868,0.942-1.053,1.562c-0.585,0.533-0.927,1.232-1.395,1.875c-0.67,0.521-0.787,1.332-1.521,1.842
				c-0.125,0.479-0.592,0.868-0.817,1.312c-0.456,0.309-0.52,0.804-0.895,1.098c-0.409,0.531-0.626,1.127-1.1,1.615
				c-0.161,0.594-0.901,1.076-1.178,1.658c-0.356,0.367-0.559,0.916-0.996,1.166c-0.494,0.825-1.324,1.403-1.797,2.172
				c-0.807,0.699-1.113,1.696-2.031,2.291c-0.351,0.772-1.159,1.09-1.557,1.793c-0.578,0.818-1.532,1.517-2.645,1.353
				c-0.429-0.103-0.569-0.459-0.638-0.778l-0.122-0.031c-0.361,0.627-0.798,1.414-1.696,1.568c-0.683-0.062-0.735-0.689-0.954-1.16
				c0.049-0.312-0.122-0.69,0.133-0.963c-0.034-0.048-0.051-0.123-0.061-0.17c0.194-0.186,0.17,0.122,0.293,0.153
				c-0.074,0.444-0.232,1.059,0.249,1.381c0.382,0.293,0.661-0.166,1.01-0.17c0.434-0.408,0.881-0.771,0.992-1.319
				c0.271-0.355,0.169-0.818,0.615-1.178c-0.089-0.141-0.154-0.309-0.352-0.398c-0.251,0.174-0.159,0.459-0.163,0.715
				c-0.207,0.24-0.438,0.537-0.799,0.6c-0.361-0.446-1.166-0.538-1.324-1.119c-0.098-0.831,0.386-1.543,0.17-2.4
				c-0.357-0.705-0.224-1.416-0.381-2.127c0.232-0.547-0.083-1.182,0.057-1.742c-0.079-0.344,0.066-0.748-0.044-1.112
				c0.14-0.56,0.104-1.113,0.214-1.668c-0.003-0.817,0.304-1.532,0.307-2.325c0.371-0.697,0.346-1.48,0.562-2.209
				c0.017-0.462,0.27-0.889,0.253-1.371c0.209-0.234,0.271-0.479,0.39-0.756c-0.082-0.363,0.193-0.693,0.228-1.059
				c0.155-0.893,0.735-1.702,0.8-2.606c0.141-0.153,0.068-0.345,0.091-0.5c0.132-0.331,0.525-0.524,0.384-0.909
				c0.168-0.688,0.515-1.365,0.747-2.039c-0.17-0.248,0.176-0.387,0.155-0.613c-0.053-0.5,0.495-0.926,0.444-1.428
				c0.122-0.225,0.145-0.406,0.323-0.643c-0.058-0.139,0.137-0.303-0.041-0.45c-0.82-0.418-0.755-1.324-0.941-2.028
				c0.154-0.895,1.017-1.473,1.738-2.036c1.086,0.041,1.197-1.174,2.114-1.384c1.408-1.161,2.129-3.043,4.141-3.417
				c0.052-0.038,0.127-0.099,0.215-0.09c0.157,0.178,0.313,0.099,0.46-0.026c0.222-0.32,0.567-0.61,1.006-0.582
				c0.76-0.007,1.553-0.12,2.253,0.17c0.532,0.16,1.393,0.367,1.522,0.96c0.035,0.296,0.256,0.615-0.052,0.823
				c-0.132,0.047-0.297,0.103-0.29,0.252c-0.078,0.449-0.485,0.851-0.444,1.304c-0.113,0.398-0.037,1.024-0.585,1.171
				c-0.017,0.589-0.668,1.085-0.651,1.691c-0.275,0.329-0.241,0.755-0.561,1.014c0.146,0.409-0.163,0.718-0.201,1.079
				c-0.306,0.463-0.864,0.838-0.834,1.369c-0.252,0.449-0.351,0.928-0.667,1.337c-0.633,0.978-0.753,2.016-1.237,2.99
				c-0.033,1.053-0.638,1.998-0.826,3c-0.206,0.392-0.204,0.799-0.532,1.164c0.079,0.366-0.23,0.674-0.114,1.061
				c-0.285,0.968-0.938,1.847-0.881,2.881c-0.327,0.234-0.157,0.613-0.447,0.896c-0.258,0.551-0.235,1.188-0.609,1.735
				c-0.034,0.356-0.116,0.695-0.239,1.038c0.096-0.035,0.218-0.035,0.25,0.037l0.024,0.098c-0.074,0.064-0.245,0.071-0.36,0.09
				c-0.001,0-0.005-0.004-0.005-0.004c-0.044,0.102-0.09,0.2-0.14,0.299c0.103,0.338-0.37,0.572-0.096,0.886
				c-0.123,0.374-0.366,0.723-0.219,1.13c-0.177,0.52-0.083,1.087-0.347,1.59c0.03,0.405-0.052,0.823-0.209,1.186
				c0.041,0.043,0.095,0.033,0.181,0.019c0.234-0.116,0.176-0.517,0.531-0.498c1.196-1.05,1.934-2.324,3.111-3.347
				c0.07-0.34,0.452-0.586,0.627-0.844c0.78-0.949,1.676-1.797,2.334-2.777c0.636-0.542,0.963-1.312,1.514-1.99l-0.017-0.075
				c1.055-1.024,1.688-2.383,2.763-3.457c0.862-1.247,1.652-2.302,2.681-3.448c0.417-1.015,1.379-1.539,1.773-2.525
				c0.126-0.1,0.238-0.241,0.434-0.278c0.38-0.396,0.448-1.021,1.075-1.206c0.11-0.449,0.54-0.857,0.837-1.242
				c0.092-0.37,0.502-0.492,0.737-0.737c0.97-0.907,1.864-2.005,2.973-2.785c0.609-0.814,1.39-1.64,2.307-2.233
				c0.243-0.473,0.828-0.599,1.008-1.117c0.947-0.445,1.924-0.918,2.704-1.612c0.461-0.157,0.886,0.2,1.154,0.486
				c0.142,0.256,0.268,0.541,0.507,0.701c0.228-0.013,0.515-0.166,0.647,0.041c0.001,0.255,0.21,0.425-0.011,0.614
				c0.142,0.509,0.204,1.061-0.01,1.53c0.135,1.021-0.157,1.94-0.574,2.826c-0.15,0.384-0.08,0.829-0.255,1.218
				c-0.127,0.095-0.065,0.241-0.096,0.374c-0.382,0.501-0.341,1.076-0.549,1.597c-0.246,1.011-0.606,2.019-0.882,3.032
				c-0.27,0.229-0.075,0.574-0.225,0.831c0.253,1.405-0.752,2.653-1.07,4.006c-0.267,0.633-0.295,1.301-0.716,1.905
				c0.204,0.398-0.286,0.688-0.107,1.09c-0.121,0.377-0.423,0.734-0.207,1.185c-0.38,0.649-0.461,1.354-0.6,2.039
				c-0.008,0.234-0.166,0.438-0.171,0.667c-0.215,0.5-0.483,1.131-0.003,1.582c-0.09,0.523,0.215,1.105-0.221,1.516
				c-0.335,0.465-0.249,0.987-0.468,1.457c0.1,0.188-0.101,0.324-0.153,0.486c0.269,0.564-0.075,0.979,0.041,1.521
				c0.086,0.521-0.194,1.104,0.217,1.519c0.191,0.603,0.411,1.2,1.082,1.468c0.358,0.041,0.25-0.324,0.413-0.505
				c1.295-1.524,2.216-3.313,3.494-4.911c0.109-0.705,1.09-1.134,1.189-1.889c0.881-0.893,1.313-1.961,2.03-2.95
				c-0.042-0.325,0.553-0.401,0.411-0.784c0.158-0.207,0.415-0.377,0.411-0.631c0.742-0.613,0.89-1.531,1.423-2.289
				c0.509-0.721,0.667-1.593,1.078-2.375c0.307-0.334,0.215-0.752,0.488-1.104c0.264-0.508,0.276-1.119,0.803-1.516
				c0.041-0.211,0.252-0.429,0.228-0.681c0.265-0.249,0.241-0.623,0.544-0.83c0.127-0.103,0.058-0.267,0.092-0.399
				c0.514-0.547,0.542-1.237,1.028-1.81c0.099-0.348,0.382-0.649,0.558-1.038c0.88-1.171,0.917-2.58,1.818-3.781
				c0.543-1.24,0.841-2.54,1.494-3.802c0.354-1.029,0.647-2.097,1.239-3.118c0.074-0.316,0.172-0.668,0.429-0.963
				c-0.207-0.146,0.076-0.296,0.068-0.473c0.344-0.569,0.157-1.276,0.678-1.824c0.086-0.27,0.268-0.634,0.118-0.913
				c0.337-0.722,0.47-1.586,0.702-2.366c0.043-0.339,0.11-0.707,0.329-1.027c-0.091-0.286,0.12-0.527,0.171-0.813
				c0.336-0.855,0.704-1.702,0.615-2.632c-0.116-0.391,0.169-0.82-0.058-1.19c0.202-0.286-0.217-0.342-0.397-0.49
				c-0.072-0.855-0.841-1.307-1.244-1.951c-0.803,0.062-1.285-0.671-2.007-0.772c-0.224-0.088-0.112-0.365-0.261-0.518
				c-0.603-0.479-1.064-1.266-0.851-2.018c-0.188-0.453,0.449-0.739,0.698-1.062c0.266-0.252,0.663-0.446,1.006-0.457
				c0.239-0.245,0.742-0.077,0.829-0.472c0.68-0.222,1.496,0.044,1.994-0.347c0.42-0.072,0.575,0.357,1.009,0.235
				c0.92,0.322,0.997,1.205,1.905,1.504c0.485,0.477,0.913,0.96,1.16,1.555c0.062,0.143,0.252,0.211,0.234,0.396
				c0.436,0.125,0.499,0.548,0.512,0.877c-0.053,0.29-0.124,0.61,0.051,0.881c0.625,0.202-0.029,0.671,0.043,0.988
				c-0.227,0.574,0.122,1.228-0.351,1.719c-0.01,0.231-0.279,0.329-0.164,0.589c-0.181,0.108,0.011,0.302-0.045,0.439
				c-0.23,0.958-0.485,1.919-0.859,2.851c-0.191,1.257-0.81,2.431-1.035,3.645c-0.439,0.661-0.439,1.45-0.909,2.093
				c-0.011,0.488-0.58,0.814-0.522,1.343c-0.024,0.408-0.642,0.67-0.419,1.139c-0.203,0.545-0.674,1.035-0.722,1.631
				c-0.296,0.227-0.188,0.591-0.477,0.87c0.011,0.456,0.041,0.988-0.399,1.369c-0.208,0.371-0.407,0.782-0.432,1.197
				c-0.387,0.243-0.029,0.668-0.353,0.926c0.075,0.473-0.334,0.851-0.416,1.27c-0.399,1.113-0.827,2.209-1.175,3.288
				c-0.427,1.092-0.864,2.158-1.354,3.24C63.258,40.816,62.88,41.059,62.826,41.35"/>
		</g>
		<g>
			<defs>
				<rect id="SVGID_45_" width="318.27" height="73.375"/>
			</defs>
			<clipPath id="SVGID_46_">
				<use xlink:href="#SVGID_45_"  overflow="visible"/>
			</clipPath>
			<path clip-path="url(#SVGID_46_)" d="M14.371,22.104c-0.315-0.504-0.802-1.263-0.255-1.818c0.148-0.382,0.677-0.371,0.803-0.722
				c0.286-0.023,0.69-0.043,0.989,0.007c0.348,0.116,0.58,0.382,0.746,0.61c-0.095,0.346,0.224,0.748-0.085,1.058
				c-0.218,0.47-0.705,0.633-1.041,0.97C15.172,22.042,14.71,22.325,14.371,22.104"/>
		</g>
		<g>
			<defs>
				<rect id="SVGID_47_" width="318.27" height="73.375"/>
			</defs>
			<clipPath id="SVGID_48_">
				<use xlink:href="#SVGID_47_"  overflow="visible"/>
			</clipPath>
			<path clip-path="url(#SVGID_48_)" d="M4.694,33.743c0.067-0.088,0.159-0.207,0.071-0.344c-0.088-0.135-0.284-0.101-0.427-0.078
				c-0.085,0.144-0.172,0.286-0.075,0.45C4.374,33.873,4.554,33.768,4.694,33.743"/>
		</g>
		<g>
			<defs>
				<rect id="SVGID_49_" width="318.27" height="73.375"/>
			</defs>
			<clipPath id="SVGID_50_">
				<use xlink:href="#SVGID_49_"  overflow="visible"/>
			</clipPath>
			<path clip-path="url(#SVGID_50_)" d="M3.203,34.918c-0.388-0.184-0.84-0.514-1.347-0.303c-0.677,0.095-1.025,0.64-1.55,0.909
				c0.08,0.493-0.619,1.021-0.133,1.528c0.583,0.507,1.532,0.061,2.169-0.099c0.606-0.282,0.97-0.878,1.105-1.463
				C3.326,35.333,3.248,35.116,3.203,34.918"/>
		</g>
		<g>
			<defs>
				<rect id="SVGID_51_" width="318.27" height="73.375"/>
			</defs>
			<clipPath id="SVGID_52_">
				<use xlink:href="#SVGID_51_"  overflow="visible"/>
			</clipPath>
			<path clip-path="url(#SVGID_52_)" d="M13.526,36.01c0.233-0.269-0.262-0.387-0.333-0.602c-0.535-0.421-1.462-0.283-1.876,0.221
				c-0.613,0.282-0.362,0.879-0.709,1.296c0.237,0.286,0.11,0.646,0.156,0.968c-0.121,0.244,0.153,0.176,0.284,0.231
				c0.177,0.269,0.579,0.381,0.927,0.374c0.87-0.152,1.218-0.823,1.67-1.413C13.464,36.786,13.726,36.409,13.526,36.01"/>
		</g>
		<g>
			<defs>
				<rect id="SVGID_53_" width="318.27" height="73.375"/>
			</defs>
			<clipPath id="SVGID_54_">
				<use xlink:href="#SVGID_53_"  overflow="visible"/>
			</clipPath>
			<path clip-path="url(#SVGID_54_)" d="M3.368,42.154c-0.13,0.201-0.141,0.406-0.088,0.65c0.22,0.346,0.654,0.066,0.934,0.021
				c0.185-0.211,0.043-0.468-0.033-0.685C3.949,42,3.61,42.062,3.368,42.154"/>
		</g>
		<g>
			<defs>
				<rect id="SVGID_55_" width="318.27" height="73.375"/>
			</defs>
			<clipPath id="SVGID_56_">
				<use xlink:href="#SVGID_55_"  overflow="visible"/>
			</clipPath>
			<path clip-path="url(#SVGID_56_)" d="M4.289,43.423c0.051,0.093-0.014,0.204-0.091,0.241c-0.103-0.059-0.207-0.143-0.116-0.262
				C4.136,43.395,4.216,43.359,4.289,43.423"/>
		</g>
		<g>
			<defs>
				<rect id="SVGID_57_" width="318.27" height="73.375"/>
			</defs>
			<clipPath id="SVGID_58_">
				<use xlink:href="#SVGID_57_"  overflow="visible"/>
			</clipPath>
			<path clip-path="url(#SVGID_58_)" d="M5.201,48.489c-0.175,0.129-0.397,0.196-0.499,0.391c-0.025,0.282-0.013,0.589,0.304,0.712
				c0.144,0,0.249-0.045,0.352-0.111c0.33-0.213,0.437-0.535,0.456-0.842C5.683,48.43,5.383,48.529,5.201,48.489"/>
		</g>
		<g>
			<defs>
				<rect id="SVGID_59_" width="318.27" height="73.375"/>
			</defs>
			<clipPath id="SVGID_60_">
				<use xlink:href="#SVGID_59_"  overflow="visible"/>
			</clipPath>
			<path clip-path="url(#SVGID_60_)" d="M11.043,48.695c0.017,0.078-0.001,0.129-0.053,0.162c-0.085,0.019-0.191-0.065-0.121-0.155
				C10.932,48.716,11.003,48.654,11.043,48.695"/>
		</g>
		<g>
			<defs>
				<rect id="SVGID_61_" width="318.27" height="73.375"/>
			</defs>
			<clipPath id="SVGID_62_">
				<use xlink:href="#SVGID_61_"  overflow="visible"/>
			</clipPath>
			<path clip-path="url(#SVGID_62_)" d="M22.801,52.729l0.007,0.047c-0.093,0.094-0.27,0.1-0.327-0.02
				C22.497,52.548,22.708,52.717,22.801,52.729"/>
		</g>
		<g>
			<defs>
				<rect id="SVGID_63_" width="318.27" height="73.375"/>
			</defs>
			<clipPath id="SVGID_64_">
				<use xlink:href="#SVGID_63_"  overflow="visible"/>
			</clipPath>
			<polygon clip-path="url(#SVGID_64_)" points="36.349,52.466 36.404,52.331 36.363,52.413 			"/>
		</g>
		<g>
			<defs>
				<rect id="SVGID_65_" width="318.27" height="73.375"/>
			</defs>
			<clipPath id="SVGID_66_">
				<use xlink:href="#SVGID_65_"  overflow="visible"/>
			</clipPath>
			<path clip-path="url(#SVGID_66_)" d="M44.886,51.462c0.449-1.556,0.801-3.118,1.096-4.7l-0.071-0.063
				c-0.473,0.233-0.256,0.834-0.684,1.14c0.181,0.555-0.562,0.891-0.466,1.457c-0.103,0.855-0.96,1.592-0.884,2.471
				C44.243,51.98,44.604,51.636,44.886,51.462"/>
		</g>
		<g>
			<defs>
				<rect id="SVGID_67_" width="318.27" height="73.375"/>
			</defs>
			<clipPath id="SVGID_68_">
				<use xlink:href="#SVGID_67_"  overflow="visible"/>
			</clipPath>
			<path clip-path="url(#SVGID_68_)" d="M43.276,42.951c-0.246,0.066-0.507,0.34-0.626,0.595c-0.687,0.576-0.718,1.372-1.089,2.07
				c-0.174,0.795-0.677,1.545-0.667,2.385c-0.331,0.49-0.235,1.06-0.442,1.58c0.026,0.378-0.486,0.694-0.266,1.042
				c-0.007-0.436,0.456-0.719,0.558-1.169c0.015-0.741,1.082-1.181,0.879-1.987c-0.025-0.224,0.432-0.404,0.228-0.674
				c0.221-0.445,0.479-0.874,0.666-1.341c-0.075-0.343,0.436-0.663,0.104-0.986c0.158-0.337-0.116-0.797,0.335-1.001
				C43.006,43.303,43.222,43.086,43.276,42.951"/>
		</g>
		<g>
			<defs>
				<rect id="SVGID_69_" width="318.27" height="73.375"/>
			</defs>
			<clipPath id="SVGID_70_">
				<use xlink:href="#SVGID_69_"  overflow="visible"/>
			</clipPath>
			<path clip-path="url(#SVGID_70_)" d="M39.154,52.15c-0.698,0.531-0.916,1.406-1.161,2.139c0.04,0.58-0.471,1.047-0.428,1.627
				c-0.594,0.484-0.031,1.18-0.534,1.674c0.145,0.535-0.222,0.983-0.228,1.491c-0.215,0.213-0.161,0.462-0.314,0.688
				c0.198,0.502-0.159,0.998-0.072,1.516c0.334-0.184,0.293-0.508,0.463-0.793c-0.064-0.424,0.228-0.831,0.338-1.253
				c0.313-0.155,0.361-0.47,0.303-0.738c-0.065-0.959,0.968-1.701,0.962-2.644c-0.241-0.693-0.166-1.424,0.471-1.969
				C38.971,53.305,39.25,52.723,39.154,52.15"/>
		</g>
		<g>
			<defs>
				<rect id="SVGID_71_" width="318.27" height="73.375"/>
			</defs>
			<clipPath id="SVGID_72_">
				<use xlink:href="#SVGID_71_"  overflow="visible"/>
			</clipPath>
			<path clip-path="url(#SVGID_72_)" d="M18.788,42.352c-0.37,0.166-0.649,0.494-0.898,0.82c-0.029,0.385-0.435,0.659-0.411,1.038
				c-0.454,0.459-0.376,1.081-0.547,1.622c0.158,0.587-0.476,1.027-0.564,1.552c-0.125,0.226-0.008,0.484-0.171,0.664
				c-0.115,0.399-0.36,0.752-0.262,1.195c-0.42,0.603-0.349,1.334-0.436,1.983c-0.298,0.512-0.264,1.064-0.38,1.597
				c0.014,0.456-0.214,0.876-0.2,1.334c0.124,0.562-0.236,1.059-0.017,1.657c-0.221,0.445-0.024,0.949-0.307,1.379
				c0.211,0.423,0.182,0.964,0.038,1.371c0.05,0.093,0.166,0.226,0.27,0.153c0.043-0.337,0.025-0.663,0.131-0.991
				c0.262-0.271,0.038-0.615,0.361-0.873c-0.089-1.056,0.296-2.094,0.722-3.084c0.129-0.734,0.256-1.471,0.479-2.172
				c0.433-0.558,0.015-1.275,0.565-1.804c-0.024-1.167,0.586-2.244,0.78-3.351c0.062-0.392-0.053-0.904,0.32-1.2
				c-0.233-0.267,0.281-0.431,0.071-0.724c0.191-0.596,0.355-1.187,0.419-1.81C18.663,42.577,19.045,42.46,18.788,42.352"/>
		</g>
		<g>
			<defs>
				<rect id="SVGID_73_" width="318.27" height="73.375"/>
			</defs>
			<clipPath id="SVGID_74_">
				<use xlink:href="#SVGID_73_"  overflow="visible"/>
			</clipPath>
			<path clip-path="url(#SVGID_74_)" d="M16.646,55.131c-0.273,0.354-0.269,0.76-0.508,1.135c0.025,0.248-0.099,0.476-0.128,0.734
				c-0.275,0.479-0.218,1.004-0.46,1.507c0.103,0.312-0.211,0.621-0.003,0.892c0.048-0.037,0.01-0.078,0.003-0.125
				c0.697-1.189,1.058-2.453,1.12-3.765C16.698,55.376,16.808,55.207,16.646,55.131"/>
		</g>
		<g>
			<defs>
				<rect id="SVGID_75_" width="318.27" height="73.375"/>
			</defs>
			<clipPath id="SVGID_76_">
				<use xlink:href="#SVGID_75_"  overflow="visible"/>
			</clipPath>
			<path clip-path="url(#SVGID_76_)" d="M15.581,60.489c-0.043-0.194,0.017-0.462-0.107-0.615c-0.135,0.172-0.124,0.476-0.076,0.701
				C15.474,60.663,15.536,60.546,15.581,60.489"/>
		</g>
		<g>
			<defs>
				<rect id="SVGID_77_" width="318.27" height="73.375"/>
			</defs>
			<clipPath id="SVGID_78_">
				<use xlink:href="#SVGID_77_"  overflow="visible"/>
			</clipPath>
			<path clip-path="url(#SVGID_78_)" d="M62.826,41.35c-0.274,0.604-0.281,1.242-0.672,1.849c-0.06,0.392-0.261,0.808-0.506,1.153
				c0.085,0.242-0.291,0.385-0.15,0.642c-0.238,0.37-0.305,0.845-0.629,1.231c-0.058,0.262-0.083,0.547-0.371,0.701
				c-0.299,0.766-0.575,1.5-1.023,2.239c-0.154,0.483-0.628,0.847-0.602,1.378c-0.237,0.5-0.805,0.956-0.714,1.502
				c-0.555,0.938-0.819,1.848-1.471,2.725c0.075,0.342-0.397,0.58-0.324,0.92c-0.749,0.949-0.928,1.998-1.594,2.955
				c-0.398,0.834-0.95,1.641-1.469,2.446c0.049,0.218-0.287,0.405-0.331,0.616l-0.586,1.171c-0.184,0.364-0.365,0.728-0.46,1.099
				c-0.414,0.226-0.173,0.668-0.528,0.909c0.14,0.382-0.5,0.646-0.181,1.024c-0.434,0.275-0.049,0.697-0.34,0.977
				c-0.081,0.422-0.211,0.752-0.452,1.124c-0.262,0.4-0.632,0.823-0.905,1.173c-0.368,0.194-0.623,0.49-0.954,0.701
				c-0.2,0.29-0.509,0.471-0.819,0.654c-0.436,0.404-0.821,1.029-1.532,0.977c-0.523,0.805-1.769,0.438-2.425,1.031
				c-0.682,0.348-1.496,0.485-2.255,0.749c-0.181,0.104-0.527,0.115-0.731-0.026c-0.245-0.312-0.735-0.026-1.061-0.301
				c-1.223-0.017-2.289-1.008-2.751-1.919c-0.439-0.405-0.779-0.882-1.037-1.399c-0.404-0.518-0.298-1.223-0.59-1.76
				c0.049-0.443-0.639-0.652-0.367-1.133c-0.099-0.722-0.065-1.49,0.16-2.195c-0.079-0.47,0.123-0.889,0.111-1.344
				c-0.202-0.525,0.217-1.005,0.154-1.553c0.35-0.395,0.064-0.9,0.415-1.296c-0.354-0.679,0.32-1.179,0.15-1.835
				c0.178-0.361,0.026-0.797,0.207-1.157c-0.088-0.419,0.24-0.78,0.143-1.224c0.118-0.127-0.014-0.18,0.044-0.314
				c0.278-0.732,0.576-1.502,0.756-2.271c-0.105-0.614,0.482-1.131,0.494-1.741c0.282-0.558,0.263-1.167,0.699-1.698
				c-0.063-0.17,0.234-0.398-0.102-0.471c-0.094-0.159,0.155-0.102,0.192-0.184c0.723-1.477,0.881-3.135,1.79-4.567
				c0.317-1.097,0.963-2.128,1.487-3.187c-0.205-0.268,0.164-0.307,0.233-0.523c0.265-0.659,0.813-1.213,0.965-1.853
				c0.743-1.374,1.393-2.787,2.321-4.145c0.168-0.565,0.821-0.905,0.922-1.511c0.345-0.541,0.777-1.103,1.155-1.627
				c-0.053-0.374,0.558-0.507,0.499-0.902c0.242-0.63,1.788-0.742,0.945-1.541c-0.394,0.071-0.722,0.432-1.082,0.646
				c-0.543,0.452-1.179,0.869-1.685,1.365c-0.396,0.044-0.486,0.415-0.757,0.64c-0.677,0.5-1.071,1.232-1.843,1.565
				c-0.308,0.314-0.73,0.535-0.886,1.001c-0.17,0.153-0.409,0.269-0.439,0.531c-0.91,0.49-1.441,1.524-2.277,2.076
				c-0.252,0.453-0.726,0.813-1.004,1.271c-0.29,0.149-0.361,0.497-0.514,0.724c-0.408,0.252-0.406,0.66-0.651,1.004
				c-0.391,0.606-1.04,1.102-1.341,1.736c-0.218,0.316-0.653,0.729-0.679,1.137c-0.493,0.545-0.886,1.147-1.287,1.699
				c-0.211,0.627-0.868,0.942-1.053,1.562c-0.585,0.533-0.927,1.232-1.395,1.875c-0.67,0.521-0.787,1.332-1.521,1.842
				c-0.125,0.479-0.592,0.868-0.817,1.312c-0.456,0.309-0.52,0.804-0.895,1.098c-0.409,0.531-0.626,1.127-1.1,1.615
				c-0.161,0.594-0.901,1.076-1.178,1.658c-0.356,0.367-0.559,0.916-0.996,1.166c-0.494,0.825-1.324,1.403-1.797,2.172
				c-0.807,0.699-1.113,1.696-2.031,2.291c-0.351,0.772-1.159,1.09-1.557,1.793c-0.578,0.818-1.532,1.517-2.645,1.353
				c-0.429-0.103-0.569-0.459-0.638-0.778l-0.122-0.031c-0.361,0.627-0.798,1.414-1.696,1.568c-0.683-0.062-0.735-0.689-0.954-1.16
				c0.049-0.312-0.122-0.69,0.133-0.963c-0.034-0.048-0.051-0.123-0.061-0.17c0.194-0.186,0.17,0.122,0.293,0.153
				c-0.074,0.444-0.232,1.059,0.249,1.381c0.382,0.293,0.661-0.166,1.01-0.17c0.434-0.408,0.881-0.771,0.992-1.319
				c0.271-0.355,0.169-0.818,0.615-1.178c-0.089-0.141-0.154-0.309-0.352-0.398c-0.251,0.174-0.159,0.459-0.163,0.715
				c-0.207,0.24-0.438,0.537-0.799,0.6c-0.361-0.446-1.166-0.538-1.324-1.119c-0.098-0.831,0.386-1.543,0.17-2.4
				c-0.357-0.705-0.224-1.416-0.381-2.127c0.232-0.547-0.083-1.182,0.057-1.742c-0.079-0.344,0.066-0.748-0.044-1.112
				c0.14-0.56,0.104-1.113,0.214-1.668c-0.003-0.817,0.304-1.532,0.307-2.325c0.371-0.697,0.346-1.48,0.562-2.209
				c0.017-0.462,0.27-0.889,0.253-1.371c0.209-0.234,0.271-0.479,0.39-0.756c-0.082-0.363,0.193-0.693,0.228-1.059
				c0.155-0.893,0.735-1.702,0.8-2.606c0.141-0.153,0.068-0.345,0.091-0.5c0.132-0.331,0.525-0.524,0.384-0.909
				c0.168-0.688,0.515-1.365,0.747-2.039c-0.17-0.248,0.176-0.387,0.155-0.613c-0.053-0.5,0.495-0.926,0.444-1.428
				c0.122-0.225,0.145-0.406,0.323-0.643c-0.058-0.139,0.137-0.303-0.041-0.45c-0.82-0.418-0.755-1.324-0.941-2.028
				c0.154-0.895,1.017-1.473,1.738-2.036c1.086,0.041,1.197-1.174,2.114-1.384c1.408-1.161,2.129-3.043,4.141-3.417
				c0.052-0.038,0.127-0.099,0.215-0.09c0.157,0.178,0.313,0.099,0.46-0.026c0.222-0.32,0.567-0.61,1.006-0.582
				c0.76-0.007,1.553-0.12,2.253,0.17c0.532,0.16,1.393,0.367,1.522,0.96c0.035,0.296,0.256,0.615-0.052,0.823
				c-0.132,0.047-0.297,0.103-0.29,0.252c-0.078,0.449-0.485,0.851-0.444,1.304c-0.113,0.398-0.037,1.024-0.585,1.171
				c-0.017,0.589-0.668,1.085-0.651,1.691c-0.275,0.329-0.241,0.755-0.561,1.014c0.146,0.409-0.163,0.718-0.201,1.079
				c-0.306,0.463-0.864,0.838-0.834,1.369c-0.252,0.449-0.351,0.928-0.667,1.337c-0.633,0.978-0.753,2.016-1.237,2.99
				c-0.033,1.053-0.638,1.998-0.826,3c-0.206,0.392-0.204,0.799-0.532,1.164c0.079,0.366-0.23,0.674-0.114,1.061
				c-0.285,0.968-0.938,1.847-0.881,2.881c-0.327,0.234-0.157,0.613-0.447,0.896c-0.258,0.551-0.235,1.188-0.609,1.735
				c-0.034,0.356-0.116,0.695-0.239,1.038c0.096-0.035,0.218-0.035,0.25,0.037l0.024,0.098c-0.074,0.064-0.245,0.071-0.36,0.09
				c-0.001,0-0.005-0.004-0.005-0.004c-0.044,0.102-0.09,0.2-0.14,0.299c0.103,0.338-0.37,0.572-0.096,0.886
				c-0.123,0.374-0.366,0.723-0.219,1.13c-0.177,0.52-0.083,1.087-0.347,1.59c0.03,0.405-0.052,0.823-0.209,1.186
				c0.041,0.043,0.095,0.033,0.181,0.019c0.234-0.116,0.176-0.517,0.531-0.498c1.196-1.05,1.934-2.324,3.111-3.347
				c0.07-0.34,0.452-0.586,0.627-0.844c0.78-0.949,1.676-1.797,2.334-2.777c0.636-0.542,0.963-1.312,1.514-1.99l-0.017-0.075
				c1.055-1.024,1.688-2.383,2.763-3.457c0.862-1.247,1.652-2.302,2.681-3.448c0.417-1.015,1.379-1.539,1.773-2.525
				c0.126-0.1,0.238-0.241,0.434-0.278c0.38-0.396,0.448-1.021,1.075-1.206c0.11-0.449,0.54-0.857,0.837-1.242
				c0.092-0.37,0.502-0.492,0.737-0.737c0.97-0.907,1.864-2.005,2.973-2.785c0.609-0.814,1.39-1.64,2.307-2.233
				c0.243-0.473,0.828-0.599,1.008-1.117c0.947-0.445,1.924-0.918,2.704-1.612c0.461-0.157,0.886,0.2,1.154,0.486
				c0.142,0.256,0.268,0.541,0.507,0.701c0.228-0.013,0.515-0.166,0.647,0.041c0.001,0.255,0.21,0.425-0.011,0.614
				c0.142,0.509,0.204,1.061-0.01,1.53c0.135,1.021-0.157,1.94-0.574,2.826c-0.15,0.384-0.08,0.829-0.255,1.218
				c-0.127,0.095-0.065,0.241-0.096,0.374c-0.382,0.501-0.341,1.076-0.549,1.597c-0.246,1.011-0.606,2.019-0.882,3.032
				c-0.27,0.229-0.075,0.574-0.225,0.831c0.253,1.405-0.752,2.653-1.07,4.006c-0.267,0.633-0.295,1.301-0.716,1.905
				c0.204,0.398-0.286,0.688-0.107,1.09c-0.121,0.377-0.423,0.734-0.207,1.185c-0.38,0.649-0.461,1.354-0.6,2.039
				c-0.008,0.234-0.166,0.438-0.171,0.667c-0.215,0.5-0.483,1.131-0.003,1.582c-0.09,0.523,0.215,1.105-0.221,1.516
				c-0.335,0.465-0.249,0.987-0.468,1.457c0.1,0.188-0.101,0.324-0.153,0.486c0.269,0.564-0.075,0.979,0.041,1.521
				c0.086,0.521-0.194,1.104,0.217,1.519c0.191,0.603,0.411,1.2,1.082,1.468c0.358,0.041,0.25-0.324,0.413-0.505
				c1.295-1.524,2.216-3.313,3.494-4.911c0.109-0.705,1.09-1.134,1.189-1.889c0.881-0.893,1.313-1.961,2.03-2.95
				c-0.042-0.325,0.553-0.401,0.411-0.784c0.158-0.207,0.415-0.377,0.411-0.631c0.742-0.613,0.89-1.531,1.423-2.289
				c0.509-0.721,0.667-1.593,1.078-2.375c0.307-0.334,0.215-0.752,0.488-1.104c0.264-0.508,0.276-1.119,0.803-1.516
				c0.041-0.211,0.252-0.429,0.228-0.681c0.265-0.249,0.241-0.623,0.544-0.83c0.127-0.103,0.058-0.267,0.092-0.399
				c0.514-0.547,0.542-1.237,1.028-1.81c0.099-0.348,0.382-0.649,0.558-1.038c0.88-1.171,0.917-2.58,1.818-3.781
				c0.543-1.24,0.841-2.54,1.494-3.802c0.354-1.029,0.647-2.097,1.239-3.118c0.074-0.316,0.172-0.668,0.429-0.963
				c-0.207-0.146,0.076-0.296,0.068-0.473c0.344-0.569,0.157-1.276,0.678-1.824c0.086-0.27,0.268-0.634,0.118-0.913
				c0.337-0.722,0.47-1.586,0.702-2.366c0.043-0.339,0.11-0.707,0.329-1.027c-0.091-0.286,0.12-0.527,0.171-0.813
				c0.336-0.855,0.704-1.702,0.615-2.632c-0.116-0.391,0.169-0.82-0.058-1.19c0.202-0.286-0.217-0.342-0.397-0.49
				c-0.072-0.855-0.841-1.307-1.244-1.951c-0.803,0.062-1.285-0.671-2.007-0.772c-0.224-0.088-0.112-0.365-0.261-0.518
				c-0.603-0.479-1.064-1.266-0.851-2.018c-0.188-0.453,0.449-0.739,0.698-1.062c0.266-0.252,0.663-0.446,1.006-0.457
				c0.239-0.245,0.742-0.077,0.829-0.472c0.68-0.222,1.496,0.044,1.994-0.347c0.42-0.072,0.575,0.357,1.009,0.235
				c0.92,0.322,0.997,1.205,1.905,1.504c0.485,0.477,0.913,0.96,1.16,1.555c0.062,0.143,0.252,0.211,0.234,0.396
				c0.436,0.125,0.499,0.548,0.512,0.877c-0.053,0.29-0.124,0.61,0.051,0.881c0.625,0.202-0.029,0.671,0.043,0.988
				c-0.227,0.574,0.122,1.228-0.351,1.719c-0.01,0.231-0.279,0.329-0.164,0.589c-0.181,0.108,0.011,0.302-0.045,0.439
				c-0.23,0.958-0.485,1.919-0.859,2.851c-0.191,1.257-0.81,2.431-1.035,3.645c-0.439,0.661-0.439,1.45-0.909,2.093
				c-0.011,0.488-0.58,0.814-0.522,1.343c-0.024,0.408-0.642,0.67-0.419,1.139c-0.203,0.545-0.674,1.035-0.722,1.631
				c-0.296,0.227-0.188,0.591-0.477,0.87c0.011,0.456,0.041,0.988-0.399,1.369c-0.208,0.371-0.407,0.782-0.432,1.197
				c-0.387,0.243-0.029,0.668-0.353,0.926c0.075,0.473-0.334,0.851-0.416,1.27c-0.399,1.113-0.827,2.209-1.175,3.288
				c-0.427,1.092-0.864,2.158-1.354,3.24C63.258,40.816,62.88,41.059,62.826,41.35"/>
		</g>
		<g>
			<defs>
				<rect id="SVGID_79_" width="318.27" height="73.375"/>
			</defs>
			<clipPath id="SVGID_80_">
				<use xlink:href="#SVGID_79_"  overflow="visible"/>
			</clipPath>
			<path clip-path="url(#SVGID_80_)" d="M178.395,27.219c-0.969-1.43-2.234-2.443-3.795-3.199c-1.686-0.764-2.524,1.135-3.916,1.305
				c-2.656,1.391-5.604,2.692-7.582,5.139c-3.035,3.121-3.963,7.208-3.332,11.457c0.043,0.761,0.506,1.479,0.213,2.277
				c0.084,0.637,0.754,1.309,0.293,1.899h0.461c0.173,2.19,1.771,3.748,2.656,5.603c0.676,2.147,2.737,3.878,2.067,6.403
				c-0.046,2.235-1.688,4.088-3.755,4.848c-1.387,1.475-3.622,1.264-5.517,1.348c-1.349-0.425-3.115-0.507-3.795-1.982
				c-0.586-0.756-1.555-2.356-2.82-1.936c-0.381,0.715-1.097,1.264-1.35,2.104c-0.291,0.761,1.183,0.927,0.969,1.813
				c0.381,0.466,0.427,0.968,1.097,1.054c2.151-0.209,3.413,1.769,5.522,1.688c3.327,0.378,6.236-1.057,9.014-2.439
				c1.351-1.354,3.073-2.283,4.17-3.714c0.086-1.435,1.226-2.655,0.93-4.3c0.759-3.913-0.757-7.838-2.905-10.996l-0.045-2.822
				c0.59-0.379-0.17-0.759,0.045-1.307c1.808-1.729,3.873-3.409,5.769-5.225c1.351-1.176,2.192-2.697,3.417-4.001
				c0.672-0.168,1.135-0.892,1.895-0.844c1.308-0.167,0.885-1.558,1.053-2.443C179.195,28.187,178.229,28.065,178.395,27.219"/>
		</g>
		<g>
			<defs>
				<rect id="SVGID_81_" width="318.27" height="73.375"/>
			</defs>
			<clipPath id="SVGID_82_">
				<use xlink:href="#SVGID_81_"  overflow="visible"/>
			</clipPath>
			<polygon clip-path="url(#SVGID_82_)" points="160.654,40.323 160.572,39.9 160.654,40.116 			"/>
		</g>
		<g>
			<defs>
				<rect id="SVGID_83_" width="318.27" height="73.375"/>
			</defs>
			<clipPath id="SVGID_84_">
				<use xlink:href="#SVGID_83_"  overflow="visible"/>
			</clipPath>
			<path clip-path="url(#SVGID_84_)" d="M161.204,42.854l-0.236-1.043C161.085,42.164,161.302,42.479,161.204,42.854"/>
		</g>
		<g>
			<defs>
				<rect id="SVGID_85_" width="318.27" height="73.375"/>
			</defs>
			<clipPath id="SVGID_86_">
				<use xlink:href="#SVGID_85_"  overflow="visible"/>
			</clipPath>
			<path clip-path="url(#SVGID_86_)" fill="#FFFFFF" d="M165.585,40.872c-0.298,0.04-0.298-0.295-0.379-0.464
				c-0.255-3.665,1.517-6.997,4.252-9.184c0.509,1.18-0.799,1.516-1.134,2.442C166.893,35.855,165.875,38.215,165.585,40.872"/>
		</g>
		<g>
			<defs>
				<rect id="SVGID_87_" width="318.27" height="73.375"/>
			</defs>
			<clipPath id="SVGID_88_">
				<use xlink:href="#SVGID_87_"  overflow="visible"/>
			</clipPath>
			<path clip-path="url(#SVGID_88_)" fill="#FFFFFF" d="M170.43,37.456c-1.011,0.931-2.232,1.815-3.074,2.826l-0.168-0.167
				c0.422-2.825,2.231-5.056,3.875-7.375c1.135-0.887,2.445-1.977,4-1.436C174.561,33.924,172.033,35.395,170.43,37.456"/>
		</g>
		<g>
			<defs>
				<rect id="SVGID_89_" width="318.27" height="73.375"/>
			</defs>
			<clipPath id="SVGID_90_">
				<use xlink:href="#SVGID_89_"  overflow="visible"/>
			</clipPath>
			<path clip-path="url(#SVGID_90_)" d="M95.361,36.111c0.115,0.52-0.147,0.972-0.52,1.159c-0.373,0.078-0.635,0.153-0.972-0.069
				c-0.413-0.226-0.601-0.861-0.341-1.272C93.975,35.215,95.097,35.513,95.361,36.111"/>
		</g>
		<g>
			<defs>
				<rect id="SVGID_91_" width="318.27" height="73.375"/>
			</defs>
			<clipPath id="SVGID_92_">
				<use xlink:href="#SVGID_91_"  overflow="visible"/>
			</clipPath>
			<path clip-path="url(#SVGID_92_)" d="M98.062,38.42c0.113,0.411-0.148,0.748-0.484,0.938c-0.412,0.002-0.787-0.223-1.012-0.596
				c-0.15-0.486,0.223-0.898,0.633-0.973C97.575,37.789,97.946,38.048,98.062,38.42"/>
		</g>
		<g>
			<defs>
				<rect id="SVGID_93_" width="318.27" height="73.375"/>
			</defs>
			<clipPath id="SVGID_94_">
				<use xlink:href="#SVGID_93_"  overflow="visible"/>
			</clipPath>
			<path clip-path="url(#SVGID_94_)" d="M118.836,31.812c0.562,0.225,1.273,0.334,1.611,0.934c0.825,1.083-0.442,2.506,0.57,3.514
				c0.265,0.897-1.007,0.639-0.931,1.463c-0.258,1.008-0.63,1.832-0.478,2.768c-0.37,1.011-1.789,1.799-1.337,3.107
				c-0.67,1.012-0.665,2.283-0.999,3.444c-0.368,2.17-0.548,4.75-0.653,6.921c0.345,2.614,1.437,5.493-0.128,7.816
				c-0.447,0.522-0.48,1.797-1.453,1.761c-0.746,0.638-1.759-0.033-2.58-0.216c-0.715-1.346-0.383-3.252-1.808-4.299
				c0.032-1.758,0.325-3.775,1.104-5.385c0.112-0.711,0.11-1.498-0.004-2.207c-3.06,1.953-5.557,5.325-9.183,6.158
				c-1.68,0.828-3.853-0.062-5.307,1.286c-0.785,0.229-1.495-0.032-2.096-0.479c-1.348-0.931-2.25-2.571-1.843-4.106
				c0.063-4.076,3.194-7.117,5.505-10.302c3.501-4.723,8.128-8.102,13.209-10.286c0.934-0.002,1.494-0.528,2.43-0.269
				c-0.115-0.749-0.679-1.832,0.217-2.47c0.672-0.49,1.87-0.268,2.617-0.234C117.896,30.994,118.461,31.254,118.836,31.812
				 M112.046,37.82c-3.364,0.197-6.088,2.6-8.663,4.66c-2.124,2.215-4.474,4.539-5.813,7.236c-0.336,0.711-0.33,1.794,0.269,2.354
				c1.161,0.334,2.242-0.191,3.027-0.869c3.772-1.805,6.23-5.479,9.326-8.067c0.409-0.636,1.344-0.825,1.491-1.35
				c1.345-0.528,1.49-2.214,1.449-3.482C112.796,38.079,112.457,37.893,112.046,37.82"/>
		</g>
		<g>
			<defs>
				<rect id="SVGID_95_" width="318.27" height="73.375"/>
			</defs>
			<clipPath id="SVGID_96_">
				<use xlink:href="#SVGID_95_"  overflow="visible"/>
			</clipPath>
			<path clip-path="url(#SVGID_96_)" d="M95.115,41.794l0.004,1.272c-0.559,0.377-1.007,0.639-1.681,0.529
				c-0.185,0.26-0.411,0.299-0.673,0.262c-0.26-0.187-0.336-0.56-0.226-0.856c0.411-0.454-0.266-1.347,0.407-1.834
				C93.616,40.49,94.74,40.973,95.115,41.794"/>
		</g>
		<g>
			<defs>
				<rect id="SVGID_97_" width="318.27" height="73.375"/>
			</defs>
			<clipPath id="SVGID_98_">
				<use xlink:href="#SVGID_97_"  overflow="visible"/>
			</clipPath>
			<path clip-path="url(#SVGID_98_)" d="M210.439,30.934c1.967-0.394,4.088-0.689,6.01-1.275c0.215,0.594-0.59,0.929-0.754,1.467
				c-0.059,0.374-0.026,0.935-0.154,1.354c-0.135,1.058-0.075,2.293-0.282,3.39c-0.327,0.204-0.124,0.605-0.144,0.942
				c-0.635,0.779-0.395,1.856-0.764,2.735c-0.603,1.456-0.938,3.014-1.621,4.391c-0.041,0.639-0.353,1.221-0.584,1.795
				c-0.002,0.674-0.58,1.153-0.506,1.785c-0.766,1.31-1.141,2.791-1.822,4.174c-0.133,1.808-1.375,3.217-1.588,4.994
				c0.041,0.785-0.568,1.377-0.683,2.129c0.347,1.67-0.862,3.006-1.164,4.556c-0.903,0.569-0.396,1.706-0.396,2.532
				c0.076,0.104,0.232,0.174,0.277,0.324c0.982,0.254,2.021-0.026,2.979,0.377c0.426-0.506,1.02,0.141,1.451-0.224
				c0.601,0.011,0.947-0.537,1.345-0.891c0.229-0.646,1.229-0.101,1.487-0.935c1.046-1.587,0.906-3.648,2.148-5.097
				c0.221-1.583,1.66-2.741,2.418-4.13c0.995-1.102,0.957-2.594,2.026-3.657c0.438-0.246,0.634-0.858,1.065-1.185
				c0.266-0.721,0.98-1.432,1.519-1.943c0.264-0.729,1.04-0.95,1.312-1.564c0.916-0.422,0.858-1.543,1.858-1.74
				c-0.058-0.486,0.562-0.815,0.69-1.273c1.131-1.365,2.297-2.773,3.623-3.999c0.744-0.079,0.922-1.06,1.623-1.286
				c0.34-0.763,1.17-1.328,1.782-1.843c1.323-0.483,2.337-1.996,3.892-1.624c0.849,0.452,1.048,1.414,1.129,2.348
				c-0.149,0.717-0.184,1.582,0.043,2.32c-0.518,1.678-0.807,3.448-1.514,5.061c-0.072,0.756-0.416,1.373-0.606,2.091
				c-1.024,2.786-1.824,5.604-2.619,8.452c-0.522,0.74,0.14,1.945-0.39,2.681c0.015,1.086-0.139,2.519,0.871,3.179
				c1.193-0.057,2.631,0.172,3.612-0.438c0.562-0.742,1.64-0.945,2.001-1.898c0.606-0.357,0.67-1.051,1.004-1.564
				c-0.718-1.896-1.341-3.782-1.439-5.762c-0.023-0.094-0.02-0.205,0.004-0.324c-0.018-0.805,0.038-1.621,0.227-2.463
				c0.071-0.316,0.289-0.498,0.537-0.574c0.018-0.064,0.034-0.129,0.029-0.2c0.477-0.687,0.381-1.575,0.686-2.328
				c0.118-1.987,0.496-3.978,0.856-5.96c-0.004-0.021-0.001-0.044-0.006-0.068c0.007-0.064,0.034-0.13,0.055-0.193
				c0.112-0.629,0.22-1.26,0.315-1.889c-0.061-0.605-0.397-1.143-0.377-1.783c-0.528-0.87-0.766-1.874-1.146-2.793
				c-0.364-0.541-0.955-1.074-1.625-0.966c-0.739,0.149-1.532,0.037-2.188,0.447c-0.795-0.188-1.09,0.614-1.688,0.755
				c-1.156,0.806-2.482,1.362-3.479,2.421c-1.023,2.079-3.166,2.668-4.506,4.461c-0.264,0.685-0.982,1.285-1.558,1.728
				c-0.907,1.391-2.378,2.026-3.247,3.347c-0.701,0.184-0.968,0.908-1.391,1.416c-0.422,1.297-1.903,1.71-2.29,3.002
				c-0.021-0.334-0.228-0.816,0.095-1.096c-0.016-1.047,0.469-1.93,0.604-2.952c0.244-0.385,0.531-0.66,0.775-1.052
				c-0.025-0.485,0.482-0.774,0.348-1.291c0.188-0.795,0.481-1.6,0.631-2.428c0.568-0.551,0.146-1.508,0.609-2.127
				c1.125-0.656,0.532-2.018,1.584-2.743c0.186-0.832,0.748-1.577,1.313-2.2c-0.019-0.452,0.34-0.732,0.584-1.08
				c0.497-2.047,1.819-4.175,0.771-6.409l-0.556-0.574c-1.094-0.135-2.44-0.144-3.59,0.14c-0.397,0.283-0.97,0.157-1.201,0.734
				c-0.987,0.423-1.729,1.401-2.89,1.453c-0.434,0.327-0.998,0.315-1.396,0.595c-2.775,0.666-5.508,1.474-8.429,1.582
				c-0.091-0.002-0.175,0-0.265-0.002c-0.109,0.286-0.211,0.574-0.295,0.874C208.438,31.154,209.297,30.962,210.439,30.934"/>
		</g>
		<g>
			<g>
				<defs>
					<rect id="SVGID_99_" width="318.27" height="73.375"/>
				</defs>
				<clipPath id="SVGID_100_">
					<use xlink:href="#SVGID_99_"  overflow="visible"/>
				</clipPath>
				<path clip-path="url(#SVGID_100_)" d="M153.452,24.24c-1.222-0.461-2.627,0.172-3.6,1.005c-1.234,2.175,1.701,3.358,1.933,5.365
					c-0.038,0.938-0.492,2.344,0.67,2.943l0.764-0.05c1.514-1.447,2.121-3.445,2.611-5.309c-0.127-1.435,0.524-3.207-0.903-4.051
					C154.518,23.917,153.815,23.96,153.452,24.24"/>
			</g>
		</g>
	</g>
</g>
</svg>
