<?xml version="1.0" encoding="utf-8"?>
<!-- Generator: Adobe Illustrator 16.2.1, SVG Export Plug-In . SVG Version: 6.00 Build 0)  -->
<!DOCTYPE svg PUBLIC "-//W3C//DTD SVG 1.1//EN" "http://www.w3.org/Graphics/SVG/1.1/DTD/svg11.dtd">
<svg version="1.1" id="Layer_1" xmlns="http://www.w3.org/2000/svg" xmlns:xlink="http://www.w3.org/1999/xlink" x="0px" y="0px"
	 width="602px" height="167px" viewBox="0 0 602 167" enable-background="new 0 0 602 167" xml:space="preserve">
<g>
	<defs>
		<rect id="SVGID_1_" x="2.409" y="2.141" width="597.182" height="162.719"/>
	</defs>
	<clipPath id="SVGID_2_">
		<use xlink:href="#SVGID_1_"  overflow="visible"/>
	</clipPath>
	<path clip-path="url(#SVGID_2_)" d="M546.304,59.415c-1.186-2.994,0.034-7.013-2.582-9.356c-2.15-0.857-3.977,0.668-5.665,1.602
		c-6.118,5.602-10.914,12.131-14.021,19.266l-1.102,1.018l-0.058-1.475c1.368-4.901,2.271-9.815,3.639-14.6
		c-1.508-2.3,1.478-4.775,0.163-7.131c-0.63-0.672-1.254,0.306-1.781,0.164c0.121-0.047,0.066-0.231,0.069-0.289
		c-0.109-0.181-0.521-0.197-0.592,0.035c-1.029-0.804-1.844,0.459-2.4,0.967c-0.543,0.511-0.229,1.469-0.886,1.798
		c-0.5-0.845-1.382-0.999-2.091-0.907c-1.312,0.357-1.488,1.824-1.702,2.762c-0.354,7.536-3.125,13.73-5.046,20.501
		c-0.308,0.272-0.585,0.592-0.853,0.929c-0.422,1.185-0.726,2.396-0.933,3.626c0.198-0.164,0.39-0.341,0.566-0.537
		c0.049,0.236-0.195,0.582-0.271,0.935c-0.29,2.993-0.907,6.623,0.04,9.433c0.81,1.976,2.977,2.296,4.668,2.952
		c6.378-0.283,4.849-7.945,7.241-11.918c0.414,0.075,0.705,0.147,1.012-0.196c0.021-0.536-0.443-0.727-0.731-0.974
		c2.996-7.136,5.87-14.334,10.771-20.57c2.754-2.547,5.242-5.867,9.244-5.711c1.671,1.069,1.182,2.932,1.956,4.324
		c0.346,1.604,0.278,3.31,0.873,4.811c-0.283,1.224,0.241,2.779,0.613,3.971l0.704-0.088
		C546.333,63.188,546.112,61.12,546.304,59.415"/>
	<path clip-path="url(#SVGID_2_)" d="M570.527,42.687c0.888-0.591,2.031-0.444,2.995-0.852c5.105-0.703,10.28-1.293,15.383-1.812
		c2.735-0.185,5.252-0.518,7.838,0.075c-0.035,0.296,0.408,0.517,0.15,0.813c0.629,0.518,1.26,0.112,2.07,0.334
		c0.332-0.148,0.111-0.703,0.592-0.593c0.148-0.296-0.221-0.296-0.26-0.482c-0.113-0.888-0.924-0.369-1.407-0.811
		c-4.88-0.593-9.91,0.183-14.714,0.627c-2.924,0.592-6.252,0.37-8.988,1.184c-0.738-0.11-1.923,0.149-2.33-0.739
		c0.963-0.963,1.629-1.887,2.257-2.997c1.146-0.591,2.592-1.516,2.626-2.994c-1.147-0.998-0.295-2.624-1.666-3.44
		c-1.222-0.035-1.959-1.218-3.067-1.478c-0.738,0.555-1.74-0.223-2.551,0.147c-0.852,0.445-1.333,1.371-1.593,2.255
		c-1.221,1.518-1.812,3.44-2.515,5.252c-0.185,2.072-1.44,3.699-2.218,5.511c-3.403,0.406-6.62,1.331-9.985,1.812
		c-1.146,0.851-2.993,0.371-3.845,1.738c-0.036,0.37-0.26,0.999,0.182,1.259c0.446,0.146,1.002,0.295,1.485,0.146
		c3.914-1.07,7.649-2.811,11.721-3.329c-0.147,0.704-0.261,1.146-0.411,1.85c-0.33,0.814-0.703,1.776-0.518,2.588
		c-1.182,1.777-0.704,4.253-1.885,5.99c0.04,2.145-1.588,3.734-1.848,5.807c0.073,1.295-0.738,1.998-0.668,3.329
		c-0.482,0.778-0.109,1.629-0.593,2.402c-0.072,1.259-0.368,2.293-0.554,3.439c-0.591,1.74-0.479,3.737-0.852,5.548
		c0.335,0.372-0.108,0.779-0.144,1.185c0.035,1.405-0.63,2.738-0.669,3.993c0.187,0.925,1.111,1.221,1.886,1.515
		c0.78,0.851,1.996,1.333,3.181,1.481c0.591,0.074-0.074,0.811,0.665,0.594c-0.108-0.929,0.445-1.594,0.521-2.444
		c0.145-0.481-0.04-1.033,0.294-1.403c0.592-0.741,0.147-1.666-0.224-2.331c0.371-4.809,1.297-9.246,2.074-14.051
		c0.407-0.777,0.556-1.702,0.664-2.588c1.59-4.513,2.627-9.212,4.731-13.538C569.268,46.125,569.637,44.24,570.527,42.687"/>
	<path clip-path="url(#SVGID_2_)" d="M172.683,23.914c0.212,0.296,0.764,0.381,0.551,1.017c-0.126,0.168,0.213,0.593,0.298,0.888
		c0,0.594-0.085,1.231,0.04,1.78c0.805-0.169,0.298-2.202,1.568-1.186v0.212c-0.38,0.042-0.127,0.551-0.339,0.763
		c-0.467,0.466-0.424,1.439-0.803,2.032c0.168,0.68-0.34,0.721-0.297,1.357c-0.254-0.084-0.169,0.254-0.169,0.382
		c-0.424,1.016-0.51,2.329-0.849,3.388h-0.127c-0.042,0.678-0.128,1.229-0.466,1.653l0.127,0.338
		c-0.127,0.383-0.254,0.764-0.38,1.145c0.126,0.72-0.299,1.017-0.171,1.78c-0.253,0.254-0.083,0.805-0.128,1.185
		c0.806,0.255,1.273-0.17,2.034-0.127v-0.127c1.103,0.169,1.78-0.298,2.84-0.126c0.381-0.298,1.144,0,1.527-0.298
		c0.506-0.042,1.27,0.17,1.523-0.169c0.678-0.084,1.482,0.085,1.992-0.17c0.296,0.339,0.551-0.168,1.015,0
		c0.128,0,0.34,0.086,0.467-0.042v-0.085c0.381,0.424,0.636-0.211,1.144,0h3.05c0.297,0.424,0.466-0.211,0.891,0
		c0.975,0.382,1.226,1.781,2.921,1.23c1.527,0.125,1.824-0.256,3.306-0.213v-0.127h1.778c0,0.084-0.041,0.169,0.043,0.213
		c0.254-0.552,0.381,0.17,0.678,0.127c0.128,0.551-0.083,0.888-0.592,0.888v0.127c-0.764-0.169-1.695,0.297-2.798,0.127
		c-0.125-0.38-0.125,0.213-0.38,0c-2.075,0.086-3.602-0.211-5.381,0.297c-0.931-0.424-1.822,0.128-2.881,0.042v0.128h-0.212
		c0.043-0.254-0.253-0.17-0.423-0.17c-0.084,0-0.212-0.084-0.254,0.042v0.128h-0.339v-0.128c-1.059,0.086-1.864-0.466-2.797-0.042
		c-0.38,0.042-1.017-0.17-1.144,0.17c-0.507-0.128-0.593,0.297-1.101,0.17c-0.212,0.847-1.566,0.254-1.821,1.058
		c-0.679-0.127-0.933,0.297-1.611,0.127c-0.338,0.17-0.804,0.255-1.015,0.508c-1.103,0.085-2.035,0.383-3.263,0.255
		c-0.382,0.297-0.678,0.678-0.594,1.357c-0.253,0.253-0.379,0.677-0.423,1.101c0.127,1.017-0.467,1.397-0.339,2.413
		c-0.338,0.467-0.423,1.188-0.466,1.823c0.043,0.593-0.339,0.762-0.211,1.356h-0.128c0.128,1.059-0.466,1.44-0.339,2.457
		c-0.297,0.297,0,1.018-0.297,1.271c0.042,0.635-0.424,1.017-0.254,1.779c-0.083,0-0.083,0.043-0.127,0.085l0.127,0.254
		c-0.255,0.169-0.083,0.593-0.127,0.89h-0.128c-0.126,0.255-0.126,0.636,0,0.89h0.128l-0.211,0.17
		c0.042,0.084,0.127,0.084,0.211,0.084v0.254h-0.128c0,1.186-0.338,1.991-0.211,3.221c-0.296,0.126,0,0.677-0.296,0.804
		c0.169,0.636-0.254,0.849-0.128,1.485c-0.295,0.126,0.044,0.679-0.251,0.805v1.017c-0.341,0.297,0.168,0.551,0,1.017
		c-0.087,0.932,0.251,1.483,0.125,2.457c0.678,0.339,0.17,2.543,1.483,1.483c0.508-0.169,0.551-0.678,0.974-0.932
		c0.211-0.127,0.466-0.296,0.593-0.551l-0.127-0.34c0.254-0.338,0-0.888,0.38-1.141v-0.552c0.299,0.043,0.213-0.254,0.213-0.424
		c0.212-1.272,1.864-1.272,2.244-2.501c0.425-0.084,0.764-0.424,1.104-0.465c-0.085,0.424,0.422,0,0.466,0.338
		c0.296,0.213,0.59,0.764,0.253,1.144c0.043,0.044,0.083,0.085,0.126,0.085c0,0.806-0.423,1.356-0.676,2.034
		c-0.254,0.255-0.298,0.72-0.467,1.06c-0.212,1.313-1.568,1.482-2.076,2.583c-0.507,0.127-0.423,0.806-0.974,0.806
		c-0.213,0.084-0.253,0.381-0.593,0.297c-0.466,0.127-0.466,0.763-1.017,0.719c-0.211,0.425-0.72,0.553-0.89,0.975
		c-0.381-0.126-0.466,0.212-0.593,0.381c-0.297,0.637-0.548,1.272-0.846,1.908c-0.51,0.338-0.806,1.016-1.696,0.89
		c-0.338,0.718-0.932,1.142-1.737,1.396v0.172c-0.126-0.467-1.059,0.085-1.144-0.509c-0.212-0.044-0.338,0.083-0.297,0.295v0.214
		c-0.635,0.294-1.144,1.1-2.075,0.592c-0.211-0.678,0.297-0.848,0.592-1.145c-0.72-0.211-1.737,0.17-1.906-0.677
		c-0.125-0.55-0.297-1.652,0.128-2.034c-0.933-1.822-0.762-5-0.381-7.329c-0.17-0.678,0.253-0.89,0.128-1.567
		c0.253-0.382,0.082-1.018,0.125-1.569c0.086,0.043,0.128,0,0.128-0.043c-0.212-0.297,0.127-1.101,0-1.314
		c0.296-0.168,0-0.806,0.296-1.017c-0.169-0.721,0.296-1.019,0.128-1.738c0.254-0.168,0.083-0.593,0.128-0.889h0.126
		c0.126-1.187,0.551-2.161,0.764-3.263c-0.087-0.466,0.124-0.677,0.124-1.143c0.255-0.297,0.382-0.763,0.425-1.228
		c0.126-0.976,0.043-1.315,0.466-2.077c-0.34-0.763,0.593-0.677,0.254-1.44c0.212-0.467,0.255-1.018,0.635-1.356
		c0.086-1.017,0.424-1.822,0.677-2.711c-0.166-0.849,0.807-0.764,0.468-1.781c0.085,0.043,0.085,0,0.128-0.041
		c0-0.339-0.298-0.466-0.679-0.425c-0.466,0.086-0.55,0.552-1.143,0.466c-0.34,0.383-0.934,0.425-1.568,0.511
		c-0.722,0.253-1.654,0.465-2.289,0.845c-1.355,0.17-2.413,0.721-3.6,1.102v0.127c-0.425,0.169-1.103,0.212-1.228,0.762
		c-0.467,0.128-0.977,0.044-1.357,0.255h-0.34c-0.125-0.38-0.125,0.211-0.38,0c-0.255,0.042-0.509-0.042-0.678,0.084V50.9h-0.211
		c0-0.084,0-0.169-0.086-0.211c-0.043,0.678-0.974,0.127-1.271,0.466c-0.55-0.085-0.89,0.17-1.313,0.212
		c-0.169,0.297-0.593,0.254-1.017,0.34c-0.254,0.041-0.551,0.169-0.677,0.422c-0.679,0.044-1.185,0.382-1.61,0.721
		c-0.34-0.084-0.764-0.128-1.229-0.128c0.127-0.211-0.212-0.127-0.212-0.338c-0.211,0-0.381-0.255-0.339-0.55
		c0.636-0.425-0.169-1.103,0.297-1.696c0-0.127,0.042-0.422-0.212-0.339h-0.213c-0.083-0.592,0.89-0.424,1.017-0.847
		c0.551,0.255,0.381-0.509,0.891-0.296c0.042-0.296,0.593,0.084,0.549-0.34c0.467-0.465,1.484-0.168,1.907-0.718
		c0.425,0.083,0.508-0.257,1.018-0.171c0.296-0.551,1.186-0.254,1.61-0.72c0.169-0.042,0.338,0.042,0.465-0.086v-0.126
		c0.68-0.254,1.738-0.043,2.034-0.762c0.848,0.253,0.89-0.51,1.694-0.341v-0.126c0.636-0.211,1.526-0.084,1.908-0.593
		c0.593,0.128,0.803-0.296,1.44-0.127c0.422-0.126,0.763-0.34,1.355-0.34v-0.168c0.381,0.127,0.595-0.127,0.677-0.383
		c0.171,0.383,0.763,0.298,1.018,0.595c-0.043-0.297,0.424-0.17,0.466-0.467c0.593,0.128,0.846-0.255,1.398-0.212v-0.127
		c0.932,0.211,1.059-0.55,1.991-0.252c0.381-0.086,0.508-0.383,0.89-0.552c0.041-0.467,0.721-0.551,0.466-1.229
		c0.339-1.06,0.381-2.373,1.017-3.178c-0.128-0.89,0.593-1.144,0.38-2.118c0.17-0.254,0.298-0.551,0.425-0.804
		c-0.17-0.594,0.298-0.721,0.127-1.272c0.551-0.126,0.085-1.102,0.636-1.313c0.338-0.973,0.295-2.288,1.017-3.052
		c0.126-0.676,0.21-1.312,0.676-1.82c0.043-0.763,0.51-1.229,0.722-1.906c-0.127-0.424,0.296-0.509,0.126-0.934
		c0.382-0.677,0.805-1.396,1.695-1.481C171.709,23.448,171.837,24.21,172.683,23.914"/>
	<path clip-path="url(#SVGID_2_)" d="M97.529,19.887c0.206,0.287,0.741,0.37,0.534,0.986c-0.122,0.163,0.207,0.575,0.289,0.863
		c0,0.576-0.082,1.193,0.039,1.726c0.781-0.164,0.289-2.137,1.522-1.15v0.205c-0.369,0.041-0.123,0.535-0.329,0.74
		c-0.453,0.452-0.412,1.397-0.78,1.972c0.163,0.659-0.329,0.699-0.288,1.316c-0.246-0.082-0.164,0.246-0.164,0.37
		c-0.411,0.987-0.494,2.26-0.823,3.287h-0.123c-0.041,0.659-0.124,1.193-0.452,1.604l0.123,0.328
		c-0.123,0.371-0.246,0.741-0.368,1.111c0.122,0.699-0.29,0.987-0.166,1.727c-0.246,0.246-0.081,0.78-0.124,1.149
		c0.781,0.247,1.234-0.165,1.972-0.123v-0.123c1.071,0.164,1.728-0.289,2.755-0.123c0.37-0.289,1.11,0,1.482-0.289
		c0.491-0.04,1.232,0.165,1.477-0.163c0.658-0.082,1.439,0.082,1.933-0.165c0.287,0.328,0.535-0.163,0.985,0
		c0.124,0,0.329,0.083,0.453-0.041v-0.082c0.369,0.411,0.616-0.205,1.11,0h2.959c0.288,0.411,0.452-0.205,0.864,0
		c0.946,0.37,1.189,1.728,2.834,1.192c1.481,0.122,1.769-0.248,3.207-0.206v-0.123h1.725c0,0.081-0.04,0.164,0.041,0.206
		c0.248-0.535,0.371,0.165,0.659,0.123c0.124,0.536-0.081,0.863-0.575,0.863v0.123c-0.741-0.164-1.644,0.288-2.714,0.123
		c-0.121-0.369-0.121,0.207-0.369,0c-2.013,0.083-3.495-0.205-5.22,0.288c-0.904-0.411-1.768,0.124-2.795,0.041v0.124h-0.206
		c0.042-0.246-0.245-0.165-0.41-0.165c-0.081,0-0.206-0.081-0.246,0.041v0.124h-0.33v-0.124c-1.027,0.083-1.808-0.452-2.713-0.041
		c-0.369,0.041-0.987-0.165-1.11,0.165c-0.492-0.124-0.575,0.288-1.068,0.165c-0.205,0.821-1.52,0.246-1.767,1.026
		c-0.658-0.123-0.905,0.288-1.562,0.123c-0.328,0.165-0.781,0.247-0.986,0.493c-1.069,0.083-1.973,0.372-3.165,0.248
		c-0.371,0.288-0.658,0.658-0.576,1.316c-0.246,0.245-0.368,0.657-0.41,1.068c0.123,0.987-0.453,1.356-0.329,2.341
		c-0.328,0.453-0.411,1.152-0.452,1.769c0.041,0.575-0.329,0.739-0.205,1.315h-0.124c0.124,1.027-0.453,1.398-0.329,2.384
		c-0.289,0.288,0,0.987-0.289,1.233c0.042,0.616-0.411,0.987-0.246,1.726c-0.081,0-0.081,0.042-0.123,0.082l0.123,0.247
		c-0.247,0.164-0.081,0.575-0.123,0.863h-0.124c-0.123,0.247-0.123,0.617,0,0.864h0.124l-0.205,0.165
		c0.041,0.081,0.123,0.081,0.205,0.081v0.247h-0.124c0,1.15-0.328,1.931-0.205,3.124c-0.287,0.123,0,0.657-0.287,0.78
		c0.164,0.617-0.246,0.824-0.124,1.44c-0.286,0.124,0.042,0.66-0.244,0.782v0.986c-0.33,0.288,0.163,0.535,0,0.987
		c-0.084,0.905,0.244,1.439,0.122,2.384c0.657,0.328,0.164,2.467,1.439,1.439c0.492-0.164,0.534-0.659,0.944-0.905
		c0.205-0.123,0.452-0.287,0.576-0.534l-0.124-0.33c0.247-0.328,0-0.861,0.369-1.107v-0.536c0.29,0.042,0.206-0.246,0.206-0.411
		c0.206-1.234,1.809-1.234,2.178-2.426c0.412-0.081,0.741-0.412,1.07-0.452c-0.082,0.412,0.41,0,0.452,0.329
		c0.287,0.207,0.574,0.741,0.246,1.11c0.041,0.042,0.081,0.082,0.122,0.082c0,0.782-0.41,1.315-0.656,1.974
		c-0.246,0.247-0.289,0.698-0.453,1.028c-0.205,1.273-1.52,1.437-2.014,2.506c-0.492,0.123-0.41,0.781-0.945,0.781
		c-0.206,0.082-0.245,0.37-0.575,0.288c-0.452,0.124-0.452,0.74-0.986,0.698c-0.205,0.412-0.699,0.536-0.864,0.946
		c-0.37-0.122-0.452,0.206-0.575,0.37c-0.288,0.618-0.532,1.233-0.821,1.85c-0.494,0.328-0.781,0.987-1.646,0.864
		c-0.327,0.697-0.903,1.108-1.684,1.354v0.167c-0.122-0.453-1.028,0.082-1.111-0.494c-0.205-0.042-0.327,0.081-0.288,0.286v0.208
		c-0.615,0.285-1.109,1.067-2.012,0.574c-0.205-0.657,0.288-0.822,0.574-1.11c-0.698-0.205-1.685,0.165-1.849-0.657
		c-0.122-0.533-0.288-1.603,0.124-1.973c-0.905-1.768-0.739-4.851-0.37-7.11c-0.165-0.658,0.246-0.864,0.124-1.521
		c0.246-0.371,0.08-0.987,0.122-1.522c0.083,0.042,0.124,0,0.124-0.041c-0.206-0.288,0.123-1.069,0-1.276
		c0.287-0.163,0-0.781,0.287-0.986c-0.164-0.699,0.287-0.988,0.124-1.687c0.247-0.163,0.081-0.575,0.124-0.862h0.123
		c0.122-1.151,0.535-2.096,0.741-3.165c-0.084-0.452,0.121-0.657,0.121-1.109c0.247-0.288,0.37-0.74,0.412-1.192
		c0.122-0.946,0.041-1.275,0.452-2.014c-0.33-0.741,0.575-0.658,0.246-1.398c0.206-0.453,0.247-0.987,0.616-1.315
		c0.083-0.986,0.412-1.768,0.657-2.63c-0.161-0.823,0.783-0.741,0.454-1.728c0.083,0.041,0.083,0,0.124-0.04
		c0-0.329-0.289-0.452-0.658-0.412c-0.453,0.083-0.535,0.535-1.11,0.452c-0.329,0.372-0.905,0.413-1.52,0.496
		c-0.701,0.246-1.605,0.451-2.221,0.82c-1.314,0.165-2.341,0.699-3.493,1.069v0.123c-0.412,0.164-1.07,0.205-1.192,0.739
		c-0.452,0.125-0.947,0.042-1.316,0.248h-0.329c-0.122-0.37-0.122,0.205-0.369,0c-0.247,0.041-0.494-0.041-0.658,0.082v0.123h-0.205
		c0-0.082,0-0.164-0.083-0.205c-0.042,0.658-0.945,0.123-1.233,0.452c-0.534-0.082-0.863,0.165-1.273,0.206
		c-0.165,0.288-0.577,0.246-0.988,0.329c-0.246,0.04-0.534,0.164-0.656,0.41c-0.659,0.042-1.15,0.37-1.562,0.699
		c-0.33-0.082-0.742-0.124-1.193-0.124c0.123-0.205-0.205-0.123-0.205-0.328c-0.205,0-0.37-0.247-0.329-0.534
		c0.617-0.412-0.164-1.069,0.288-1.645c0-0.124,0.041-0.41-0.206-0.329h-0.206c-0.081-0.574,0.863-0.411,0.986-0.822
		c0.535,0.248,0.37-0.493,0.865-0.287c0.041-0.287,0.575,0.082,0.533-0.329c0.453-0.451,1.439-0.163,1.849-0.697
		c0.412,0.081,0.493-0.249,0.988-0.166c0.288-0.535,1.151-0.247,1.562-0.699c0.164-0.041,0.328,0.041,0.451-0.083v-0.122
		c0.66-0.247,1.686-0.042,1.973-0.739c0.823,0.245,0.864-0.495,1.644-0.331v-0.122c0.617-0.205,1.48-0.082,1.851-0.575
		c0.575,0.124,0.778-0.288,1.397-0.124c0.409-0.122,0.74-0.33,1.314-0.33V39.41c0.37,0.123,0.577-0.123,0.657-0.372
		c0.166,0.372,0.74,0.289,0.988,0.577c-0.042-0.288,0.411-0.165,0.452-0.453c0.575,0.125,0.821-0.247,1.356-0.205v-0.123
		c0.904,0.204,1.028-0.534,1.932-0.245c0.369-0.083,0.493-0.371,0.863-0.535c0.04-0.453,0.699-0.534,0.452-1.192
		c0.329-1.029,0.369-2.302,0.987-3.083c-0.124-0.864,0.575-1.111,0.369-2.055c0.165-0.247,0.289-0.535,0.412-0.78
		c-0.165-0.577,0.289-0.7,0.123-1.235c0.535-0.122,0.083-1.068,0.617-1.273c0.328-0.945,0.286-2.22,0.986-2.961
		c0.122-0.655,0.205-1.273,0.657-1.766c0.042-0.74,0.494-1.192,0.7-1.848c-0.123-0.413,0.287-0.495,0.122-0.907
		c0.371-0.657,0.781-1.354,1.644-1.437C96.584,19.435,96.709,20.174,97.529,19.887"/>
	<path clip-path="url(#SVGID_2_)" d="M430.762,30.703c0.098-0.699,0.575-1.393,1.254-1.821c1.192-1.735,2.866-3.331,4.208-5.093
		c0.855-0.688,1.859-1.403,2.369-2.331c1.851-0.644,4.195-2.288,6.369-1.176c0.569,1.03,0.114,2.25,0.011,3.33
		c-1.985,4.833-3.184,9.824-5.021,14.63c-0.29,0.887,0.33,1.378,0.964,1.943c0.673-0.049,1.091-0.657,1.362-1.237l-0.62-0.491
		c-0.043-1.051,0.021-2.351,0.649-3.451c0.585-2.985,1.695-5.99,2.992-8.805c0.641-1.859,0.976-3.738,1.542-5.584
		c0.219-0.873-0.662-1.543-1.164-2.208c-2.767-1.457-5.966,0.496-8.092,2.101c-8.945,8.541-15.253,20.304-21.63,30.87
		c-0.119,0.174-0.546,0.329-0.672,0.049c0.36-1.732,0.576-3.438,0.851-5.23c-0.103-0.966,0.016-1.971,0.379-2.872
		c-0.497-1.876,0.797-3.478,0.678-5.349c1.129-1.267,0.685-2.851,0.78-4.382c-1.58-0.769-1.141-2.894-2.573-3.69
		c-1.079-0.103-1.589-1.221-2.521-1.351c-1.104,0.583-2.174-1.113-2.717,0.047c-1.602,0.75-1.69,2.736-2.105,4.174
		c-0.899,2.514-1.404,5.106-2.083,7.577l-0.013,0.76c-0.577,0.561,0.024,1.359-0.627,1.933c-1.265,4.625-1.746,9.407-2.865,14.006
		c-0.485,4.329-1.381,8.506-1.416,12.829c-0.25,1.105-0.119,2.217-0.529,3.276c0.17,1.332-1.406,2.229-1.322,3.501
		c-0.715,1.872-0.761,4.076,0.116,5.959c1.143,1.682,2.897,2.568,4.809,2.671c1.418-0.111,2.358,0.473,3.868,0.042
		c0.52-0.474,1.844-0.266,2.208-1.164c-0.511-1.95-0.638-4.275-0.33-6.3c-0.055-3.169,1.068-6.101,2.339-9.062
		c1.082-1.108,1.018-2.686,1.142-4.073c2.264-2.083,0.863-5.155,2.663-7.304c0.027-1.899,1.876-3.376,1.916-5.201
		c0.822-1.287,1.458-2.766,2.267-4.128c0.64-1.859,2.647-3.29,2.721-5.347C425.677,38.834,427.642,34.308,430.762,30.703"/>
	<path clip-path="url(#SVGID_2_)" d="M499.462,51.952c-0.299,1.964-1.528,3.659-1.924,5.495c-0.604,0.698-0.28,1.667-1.265,2.29
		c0.233,0.471-0.464,0.673-0.102,1.046c-1.341,0.688-1,2.535-2.31,2.997c0.047,0.651-0.651,0.854-1.011,1.288
		c-1.658,2.949-3.568,5.726-5.363,8.333c-1.023,1.217-1.792,3.415-3.771,3.046c-0.651,0.047-1.201-0.146-1.764-0.408
		c-0.034-0.581-0.325-0.969-0.133-1.518c0.321-0.646-0.05-1.46,0.497-2.075c-0.078-0.426,0.127-0.903,0.19-1.356
		c-0.278-0.316-0.073-0.794-0.197-1.065c0.393-0.66,0.493-1.707,1.027-2.392c-0.331-0.6,0.591-0.771,0.487-1.338
		c0.494-0.9,0.511-2.004,1.231-2.872c0.043-0.962,1.248-1.993,1.419-3.052c1.795-2.609,2.801-5.511,5.255-7.726
		c0.914-1.417,2.195-2.829,3.652-3.684c0.579-0.842,1.644-1.039,2.308-1.823c1.472,0.023,3.104-1.086,4.083,0.642
		C501.663,49.562,500.052,50.375,499.462,51.952 M509.229,46.404c0.75,0.081,1.545,0.008,2.218,0.471
		c0.292,0.386,0.427,0.728,0.222,1.207c0.766,0.96,1.628,0.067,2.592,0.109c0.862-0.086,1.669-0.896,2.471-0.53
		c0.764,0.153,1.395-0.404,1.632-1.109c0.16-0.324,0.126-0.905-0.28-1.123c-0.24-0.103-0.627,0.19-0.795,0.074
		c-0.008-0.44-0.713-0.677-1.089-1.121c-0.522-0.05-1.122,0.28-1.524-0.306c-2.235-0.175-4.387-0.292-6.366-1.468
		c0.059-0.084,0.032-0.226,0.077-0.382c-0.499-0.715-1.365-0.629-2.088-0.568c-0.76,0.654-1.898,0.057-2.49,0.826
		c-2.691,0.939-5.777,0.921-8.708,1.756c-1.51,0.572-3.006,1.216-4.651,1.446c-0.606,0.699-1.503,1.012-2.399,1.324
		c-1.522,0.501-2.302,2.261-3.96,2.42c-3.368,0.842-6.49,2.227-8.413,4.932c-1.601,0.883-1.614,2.795-3.13,3.735
		c-0.037,0.594-1.018,0.849-0.675,1.52c-0.796,1.249-1.296,2.516-2.022,3.751l0.252,0.174c-0.339,0.944-0.679,1.888-0.947,2.818
		c-0.565,0.913-0.37,1.978-0.709,2.921c-0.015,1.913-0.121,3.327-0.005,5.142c-0.588,0.402,0.285,0.754-0.159,1.13
		c0.876,1.161-1.274,1.85-0.031,3.017c0.034,0.581,1.076,1.049,0.457,1.677c0.168,0.116,0.55,0.192,0.459,0.503
		c-0.822,1.107,0.698,1.78,0.694,2.956c1.009,0.694,1.245,1.972,2.512,2.473c1.835,0.396,3.64,1.016,5.546,1.399
		c3.931-0.579,8.782-0.154,11.993-2.655c1.843-1.149,2.097-2.957,2.634-4.819c-0.512-0.787,0.391-1.468,0.388-2.274
		c0.161-0.323,0.871-0.455,0.54-1.055c1.355-2.6,2.808-5.071,4.317-7.626c0.212-0.847,0.688-1.449,1.352-2.231
		c0.164-1.5,1.64-2.654,1.79-4.223c0.922-0.978,0.774-2.566,1.864-3.428c0.229-1.144,1.402-1.949,1.548-3.15
		c1.198-0.662,2.288-1.524,3.046-2.986c-0.384-0.883,1.042-1.514,0.769-2.198c0.251-0.634,0.008-1.544,0.906-1.856
		C508.582,48.064,508.58,47.258,509.229,46.404"/>
	<path clip-path="url(#SVGID_2_)" d="M467.58,52.756c-0.236-1.27-0.91-2.44-1.756-3.222c-1.039-0.485-2.013-1.235-3.162-1.217
		l-0.413,0.023c-0.442-0.158-0.902,0.293-1.409,0.127c-0.797,0.176-1.56,0.119-2.359,0.182c-0.515,0.255-1.062,0.36-1.608,0.545
		c-0.541-0.129-0.897,0.361-1.377,0.467c-0.897,0.179-1.461,1.237-2.447,1.1c-0.519,0.454-1.159,0.554-1.77,0.812
		c-0.456,0.413-1,0.474-1.424,0.927c-0.674,0.142-1.227,0.667-1.866,0.843c-1.097,0.592-2.108,1.531-3.228,2.007
		c-0.427,0.495-0.968,0.485-1.387,0.896c-0.456,0.181-1.04,0.706-1.509,0.158c0.075-0.458,0.176-0.917,0.472-1.181
		c-0.053-0.576,0.467-0.914,0.79-1.29c0.14-0.453,0.724-0.943,0.414-1.409c0.021-0.886-0.119-1.728-0.811-2.245
		c-0.669-0.168-0.976,0.822-1.615,0.844c-0.758-0.32-1.472,0.242-2.061,0.882c-0.507,1.375-1.485,2.502-1.99,3.88
		c-0.118,0.996-0.579,1.868-0.696,2.906c-0.589,0.481-0.795,1.282-1.129,1.969c-0.201,0.498-0.188,1.147-0.672,1.481
		c-0.684,0.757-1.52,1.201-2.146,2.068c-1.582,1.046-2.92,2.479-4.2,4.22c-0.294,0.264-0.715,0.484-0.853,0.943
		c-0.579,0.332-1.071,0.975-1.711,1.117c-0.137,0.496-0.654,0.679-0.882,1.019c-0.54,0.101-0.596,0.869-0.888,1.288
		c-0.174,0.649-0.024,1.231,0.152,1.842c0.263,1.046,1.009,1.907,1.962,1.965c0.348,0.622,0.708-0.14,1.186,0.023
		c0.841-0.552,1.245-1.628,1.301-2.736c0.552-0.448,0.092-1.302,0.77-1.673c0.21-0.767,0.73-1.406,1.097-2.095
		c0.569,0.017,0.399-0.835,0.786-1.13c0.063-0.042,0.13,0,0.191,0.08c-0.146,0.954-0.769,1.633-0.758,2.634
		c-0.136,0.384-0.426,0.724-0.437,1.183c-0.632,1.024-0.375,2.526-1.223,3.469c-0.207,0.761-0.668,1.409-0.719,2.287
		c-0.316,1.224-1.6,1.886-1.502,3.352c-0.83,1.402-1.057,3.093-1.409,4.735c-0.131,0.342-0.208,0.729-0.34,1.069
		c-0.049,0.843-0.384,1.563-0.496,2.37c-0.249,1.069-0.652,2.023-0.705,3.133c-0.434,0.99-0.458,2.142-0.737,3.213
		c-0.361,0.53-0.189,1.415-0.519,1.986c0.013,2.342-1.301,4.277-1.16,6.737c0.233,0.889,0.593,1.784,1.352,2.259
		c0.124,0.351-0.14,0.611-0.178,0.917c0.12,0.393-0.396,0.605-0.341,1.032c-0.019,1.035-0.2,2.107,0.16,3.034
		c0.162,1.389,1.27,1.757,2.016,2.503c0.64,0.053,1.153,0.023,1.696-0.152c1.031-0.559,1.886-1.691,2.139-2.995
		c0.363-0.757,0.158-1.684,0.244-2.526c-0.062-0.238-0.283-0.351-0.183-0.661c-0.403-0.355,0.023-1.109-0.314-1.465
		c-0.121-0.577-0.392-1.278-0.126-1.85c-0.329-0.813-0.055-1.768-0.166-2.689c-0.271-0.658,0.348-1.259-0.181-1.844
		c0.507-1.296,0.287-3.11,1.043-4.364c0.502-2.368,1.309-4.581,1.869-6.912c0.168-0.419,0.371-0.878,0.442-1.374
		c0.538-1.14,0.974-2.322,1.227-3.623c0.262-0.419,0.304-0.994,0.57-1.411c-0.087-0.423,0.18-0.842,0.217-1.3
		c0.305-0.843,0.61-1.833,0.823-2.674c0.169-0.337,0.022-0.883,0.374-1.144c0.313-1.301,0.631-2.599,1.163-3.774
		c0.013-0.503,0.461-0.801,0.407-1.341c0.714-1.983,1.334-4.004,2.016-6.027c0.292-0.379,0.234-0.764,0.531-1.141
		c0.17-0.531,0.435-1.029,0.572-1.606c0.469-0.793,0.614-1.868,1.299-2.466c0.493-0.682,1.172-1.164,1.785-1.618
		c1.326-0.816,2.533-2.17,3.886-2.833c1.544-0.66,2.94-1.866,4.544-2.367c0.911-0.787,1.912-1.224,2.909-1.743
		c0.611-0.1,1.067-0.667,1.736-0.695c0.905-0.4,1.83-0.731,2.731-1.173c0.576,0.093,1.026-0.205,1.569-0.231
		c0.772-0.409,1.852-0.121,2.681-0.18c0.981,0.406,2.133,0.353,2.874,1.407c0.812,0.753,0.785,2.015,1.019,3.061
		c-0.233,0.49-0.184,1.148-0.383,1.641c-0.564,0.988-0.812,2.134-1.465,3.04c-0.514,1.411-1.485,2.2-2.274,3.411l-2.06,2.378
		l-1.341,1.51c-1.097,0.666-2.112,1.878-2.994,2.932c-0.871,0.561-1.592,1.541-2.469,2.06c-0.551,0.722-1.348,0.629-1.936,1.191
		c-0.453,0.411-1.032,0.666-1.552,1.08c-0.354,0.147-0.737,0.253-1.029,0.476c-0.493,0.685-1.254,0.401-1.804,0.891
		c-0.581,0.213-1.132,0.627-1.74,0.84c-0.423,0.382-0.908,0.714-1.481,0.78c-0.679,0.408-1.387,0.621-2.061,0.953
		c-0.254,0.074-0.515,0.145-0.714,0.408c-0.695-0.131-1.1,0.823-1.858,0.612c-0.163-0.116-0.247-0.348-0.473-0.311
		c-1.147-0.105-2.185,0.643-2.75,1.86c-0.13,0.226-0.441-0.124-0.518,0.26c-0.309,1.031,0.282,1.847,0.84,2.592
		c0.406,0.469,1.137,0.678,1.711,0.419c1.633-0.273,2.1-2.647,3.7-3.074c2.036,0.237,3.443-1.467,5.058-2.468
		c0.515-0.181,1.094-0.324,1.518-0.771c1.452-0.897,2.779-1.866,4.203-2.835c1.463-1.431,3.111-2.547,4.55-4.207
		c0.451-0.3,0.658-0.87,1.201-1.056c0.756-0.864,1.507-1.73,2.382-2.402c0.425-0.646,1.078-1.402,1.633-1.889l1.961-2.263
		c0.723-1.027,1.542-2.081,2.171-3.185c0.37-0.874,0.989-1.625,1.231-2.586C467.819,56.33,468.12,54.265,467.58,52.756
		 M427.599,95.063c0.072-0.311,0.051-0.767,0.217-1.072C427.934,94.378,427.736,94.715,427.599,95.063 M431.885,80.86
		c-0.076,0.576-0.185,1.111-0.545,1.564c-0.211,0.994-0.515,1.947-0.825,2.901c-0.603,1.296-0.919,2.75-1.297,4.125
		c-0.212,1.03-0.743,1.865-1.109,2.821c0.038-0.574,0.114-1.269,0.292-1.842c0.149-1.225,0.495-2.334,0.838-3.435
		c0.208-0.925,0.359-1.918,0.819-2.711c-0.046-0.806,0.601-1.217,0.555-2.031c0.421-0.297,0.178-0.919,0.536-1.214
		c0.337-0.84,0.449-1.76,0.88-2.516c0.421-0.337,0.175-0.808,0.505-1.145c0.071-0.233,0.168-0.456,0.36-0.607
		c0.13-0.073,0.093,0.158,0.127,0.195C432.577,78.225,432.451,79.646,431.885,80.86"/>
	<path clip-path="url(#SVGID_2_)" d="M416.396,100.397c0.091,0.234,0.109,0.619-0.017,0.843c-0.108,0.385-0.457,0.417-0.715,0.562
		l-0.703-0.05c-0.085-0.312-0.574,0.065-0.534-0.438c0.102-0.186,0.355-0.145,0.425-0.411c-0.022-0.308-0.242-0.542-0.17-0.925
		c0.26-0.297,0.614-0.41,0.966-0.481C415.896,99.773,416.339,99.935,416.396,100.397"/>
	<path clip-path="url(#SVGID_2_)" d="M416.402,106.009l-0.004,0.152c-0.095,0.036-0.158-0.006-0.187-0.081
		C416.15,105.888,416.403,105.893,416.402,106.009"/>
	<path clip-path="url(#SVGID_2_)" d="M401.615,30.181c-0.669-0.259-1.391-0.391-2.1-0.506c-2.144,0.481-3.663,2.37-6.012,2.187
		c-0.92,0.381-0.664,1.446-1.441,2.028c0.529,1.184-0.764,2.183-0.435,3.377c0.738,1.244,2.406,0.956,3.635,1.292
		c2.508-0.934,4.811-3.204,6.239-5.435c-0.177-0.578,0.183-0.904,0.572-1.237C401.999,31.255,401.888,30.652,401.615,30.181"/>
	<path clip-path="url(#SVGID_2_)" d="M379.199,86.729c1.669-0.886,1.739-2.787,3.065-3.855c0.156-2.105,0.304-4.222,0.605-6.309
		c-0.09-0.043-0.224-0.055-0.167-0.168c-1.181,0.734,0.286-0.893-0.468-1.194c-0.166-0.658-0.208-1.469,0.229-2.022
		c0.284-0.958-0.022-1.819-0.272-2.679c0.357-0.659,0.708-1.307,1.051-1.964c-0.183-0.408-0.212-0.886,0.058-1.389
		c0.765-1.424,0.509-3.151,1.143-4.619c0.009-0.021,0.021-0.028,0.028-0.045c-0.122-0.916,1.812-1.783,2.205-2.636
		c0.924-2.028,0.639-3.791,2.438-5.131c0.078-0.055,0.164-0.074,0.246-0.111c0.244-1.08,0.501-2.154,0.708-3.252
		c0.032-0.158,0.105-0.27,0.167-0.403l-0.042-0.802c-1.254-0.71-2.732-1.043-4.257-0.817c-2.505,0.934-3.641,3.747-4.736,5.895
		c-0.92,1.795-1.349,3.835-2.062,5.689c-1.007,1.259-0.661,2.787-1.532,4.104c-0.684,2.322-1.993,4.414-2.338,6.855
		c-0.873,1.245-0.862,2.801-1.666,4.113c-0.215,1.015-0.907,1.933-0.791,2.937c-0.782,1.783-1.964,3.522-1.52,5.656
		c0.383,0.923,0.85,2.178,2.078,2.457c-0.063,0.13-0.268,0.068-0.336,0.073c-0.056,0.045-0.12,0.096-0.185,0.152
		c0.645,0.312,1.331,0.496,2.036,0.596c-0.048-0.12-0.132-0.237-0.152-0.358c0.761,0.227,1.409-0.074,1.99-0.582
		C377.426,87.491,378.553,87.164,379.199,86.729"/>
	<path clip-path="url(#SVGID_2_)" d="M265.369,53.107c-0.876,0.576-1.789,1.098-2.411,2.031c-1.184,0.364-1.641,1.548-2.737,1.912
		c-0.087,0.547-1.091,0-0.908,0.547c-0.457,0-0.367,0.731-0.912,0.457c-0.365,1.548-2.281,1.095-2.916,2.369
		c-1.731,0.092-2.187,2.004-3.737,2.277c-0.638,0.546-1.824,0.73-2.188,1.459c-1.914,0.365-2.461,2.28-4.375,2.369
		c-0.546,0.547-1.365,0.727-2.095,1.004c-2.735,0.273-4.372-1.275-5.467-3.008c-0.363-0.546-0.636-1.094-0.912-1.642
		c0.549-2.184-1.273-4.19,0.454-5.648c1.463-0.454,2.372-1.548,3.92-1.916c0.91-1.73,3.008-1.82,4.56-2.916
		c0.09-1.183,1.822-0.544,2.001-1.728c1.279-0.457,1.914-1.369,3.191-1.915c0.545-1.001,1.821-1.186,2.368-2.371
		c2.737-0.909,2.737-4.374,4.465-6.286c0.457-2.916-0.545-4.742-1.822-6.38c-1.372-0.729-2.094-2.187-4.1-1.915
		c-0.728-0.272-2.007,0.457-2.92,0.637v0.278c-1.635,0.545-2.367,1.729-3.55,2.732c-0.913,0.274-1.006,1.548-2.006,1.912
		c-3.189,4.194-6.107,8.567-8.201,13.579c-0.82,0.729-1.002,1.913-1.276,3.007c-0.182,2.097-1.915,2.918-3.642,3.373
		c-0.274,0.546-1.007,0.729-1.459,1.003c-2.009-0.731-1.736,1.46-3.469,0.911c-1.09,0.549-3.186,0-3.826,1.004
		c-1.636-0.277-1.726,1.184-3.369,0.729c-1.003,0.729-2.918-0.093-3.644,0.272c-0.551-0.365-1.825-0.183-1.735-1.278
		c-2.367-0.909-4.373-0.727-6.833,0c-1.548,1.095-2.096,2.916-2.189,5.104h0.093c0.276,0.183,0.184,0.547,0.184,0.912
		c-0.184,2.186,1.275,3.098,2.731,3.918c1.822,0.82,4.1,0.184,5.74-0.456c0.642-0.546,1.098-1.639,2.461-1.276
		c0.641-0.819,2.279-0.729,2.737-1.822c0.182,0.093,0.182,0.365,0.182,0.457h0.456c-0.183-0.912,1.093,0,1.185-0.729
		c0.911,0,1.365-0.912,2.549-0.549v-0.272c1.368,0.272,1.368-1.184,2.551-1.094c0.365-0.454,0.818-0.819,1.732-0.729
		c0.64-0.274,1.277-0.548,2.187-0.548v-0.273c1.002,0.091,0.456-1.637,1.914-1.001c0.269-0.547,1.093-0.729,1.732-1.093
		c0.184,0.819,0.09,1.822,0.09,2.641c0.548,0.09,0.182,0.729,0.367,1.003h0.273c-0.363,2.003,1.092,2.552,1.002,4.286
		c0.999,0.091-0.089,2.093,1.276,1.91c1.091,1.458,3.557,1.277,5.741,1.277c0.273-0.547,1.093-0.182,1.728-0.274
		c1.37-0.273,1.732-1.732,3.469-1.639c0.634-0.821,1.458-1.367,2.644-1.551c0.175-1,1.638-0.636,1.73-1.822
		c1.545-0.729,3.094-1.368,4.093-2.916c0.37-0.274,1.009-0.454,1.19-1.003c2.461-1.183,4.284-3.188,6.837-4.464
		c0.757-0.648,1.456-1.26,2.199-1.825C264.9,55.123,265.115,54.112,265.369,53.107 M240.173,48.121
		c0.729-0.362,0.912-1.365,1.369-2.187c0.82-2.094,2.914-2.916,3.643-5.193c1.639-1.551,3.009-3.191,4.926-4.375
		c1.455-0.274,2.458,0.182,2.914,1.276c1.088,0.458,0.364,2.186,0.636,3.19c-0.272,0.638-0.821,1.001-0.636,1.912
		c-1.37,2.279-3.647,3.739-5.926,5.015c-0.729,0.909-2.006,1.091-2.643,2.003c-1.821,0.364-2.73,1.642-3.92,2.641
		c-1.366-0.273-1.366,1.004-2.64,0.729v0.094h-0.454C238.076,51.404,239.355,49.942,240.173,48.121"/>
</g>
<g>
	<defs>
		<rect id="SVGID_3_" x="2.409" y="2.141" width="597.182" height="162.719"/>
	</defs>
	<clipPath id="SVGID_4_">
		<use xlink:href="#SVGID_3_"  overflow="visible"/>
	</clipPath>
	<path clip-path="url(#SVGID_4_)" d="M181.826,69.878c-0.863,4.403-1.504,9.045-2.192,13.45c-0.064,1.85-0.273,3.833-0.833,5.584
		c-0.425,1.846,1.824,2.233,2.58,3.277c0.458-0.49,1.128-0.077,1.807-0.294c0.227-0.044,0.405,0.319,0.63,0.055
		c0.947,0.144,1.09-0.802,2.036-0.698c0.415-0.667,1.407-0.706,1.329-1.745c1.554-1.513,0.179-3.466,0.697-5.356
		c2.693-6.91,5.707-13.774,10.374-19.758c1.606-1.873,3.113-3.843,5.206-5.219c0.183,0.227,0.813,0.146,0.624,0.551l0.318-0.04
		c0.98,1.181,0.821,2.897,0.667,4.467c0.081,4.558-0.69,9.013-2.097,13.1c-0.273,0.133-0.584,0.445-0.505,0.807
		c0.622,0.906,0.152,2.478,0.365,3.656c0.759,0.682,1.51,1.909,2.776,1.658c0.168,0.993,1.302,0.917,1.927,1.148
		c0.182-0.677,1.13-0.302,1.539-0.525c0.398,0.505,0.767-0.038,1.127-0.161c0.85,0.365,0.725-0.583,1.54-0.481
		c0.679-0.445-0.218-0.951,0.195-1.533l0.633,0.101l-0.853-0.328c0.731-0.984-0.899-0.327-0.799-1.226
		c0.188-0.54,0.544,0.007,0.857-0.171l-0.624-0.23c0.002-0.226-0.351-0.501,0.009-0.679c0.175,0.004,0.27,0.049,0.401,0.095
		l-0.492-0.322c-0.626-0.417-0.079-1.039,0.197-1.441c-0.58-0.184-0.685,0.989-1.129,0.305c-0.487-0.637,0.458-0.673,0.644-0.984
		l-0.729,0.258c0.053-0.536-0.529-0.771-0.297-1.308c-1.187-2.675-1.503-6.287-0.253-9.026c0.613-2.196-0.487-4.781,0.895-6.655
		c-0.016-2.757,1.109-6.168-1.125-8.175c-2.465-1.161-4.609,0.664-6.515,1.995c-2.834,3.164-6.207,6.236-8.365,9.635
		c-1.135,0.53-1.469,1.924-2.553,2.496c-0.411,0.131-1.141,0.529-1.445-0.104c0.661-6.397,2.491-12.553,4.991-18.249
		c1.842-6.647,6.957-11.866,10.498-17.732c2.481-3.708,5.047-7.335,6.627-11.371c0.656-2.022,2.839-3.616,2.19-5.972
		c-1.233-2.497-4.452-1.179-6.481-1.249c-1.407,1.203-3.091,2.085-3.921,3.873c-0.53,2.614-2.086,4.896-3.823,6.952
		c-2.675,4.738-4.719,9.766-7.256,14.564c-0.373,1.348-0.888,2.603-1.397,3.902c-0.23,0.405-0.103,0.99-0.6,1.303
		c-0.791,1.975-1.761,3.898-2.194,6.062c-1.474,2.734-1.605,6.065-3.484,8.612"/>
	<path clip-path="url(#SVGID_4_)" d="M45.657,79.639c-0.394,0.347-0.645,0.75-0.496,1.293c0.102,0.355,0.445,0.455,0.8,0.504
		c0.594-0.149,0.743-0.652,0.801-1.251C46.555,79.79,46.162,79.542,45.657,79.639 M50.454,66.81c0.15,0.15,0.296,0.348,0.544,0.248
		c0.2-0.15,0.303-0.349,0.256-0.602C50.998,66.06,50.35,66.357,50.454,66.81 M51.149,64.46c-0.15,0.247-0.15,0.652,0.103,0.802
		c0.251,0.097,0.846,0.295,1.001-0.15C52.598,64.41,51.653,63.762,51.149,64.46 M47.405,79.839l-0.199,0.446
		c0,0.204,0.199,0.204,0.348,0.204c0.154-0.151,0.206-0.3,0.206-0.451C47.652,79.889,47.503,79.889,47.405,79.839 M45.31,77.692
		c-0.601-0.354-1.292-0.65-1.45-1.448c-0.694,0.302-0.998-0.55-1.593-0.251c-0.253,0.446-0.997,0.553-1.45,0.698
		c0.299,0.251,0.246,0.451,0.195,0.8c0.151,1.251,1.255,2.051,2.403,1.797c0.798,0.048,0.946-0.647,1.343-1.149
		C44.963,77.99,45.51,78.088,45.31,77.692 M43.264,70.604c-0.205,0.295-0.098,0.699,0.151,0.95c0.346,0.196,0.75,0.047,0.996-0.15
		C44.809,70.655,43.859,69.905,43.264,70.604 M45.409,61.616h-0.996c-0.801,0.45-2.45,0.347-2.351,1.797
		c-0.149,1.194,1.304,0.951,2.003,1.246C45.014,63.915,45.706,62.811,45.409,61.616 M83.501,40.749
		c-0.149-1.002-1.245-1.349-2.042-1.546c-2.551,0.848-4.744,2.344-7.29,3.092c-0.603-0.1-1.502-0.25-2.153-0.197
		c-0.496,0.298-1.195,0.545-1.642,0.448c-0.049,0.501-0.698,0.75-1.252,0.648c-2.645,1.199-5.689,1.297-8.633,1.349l-0.454-0.451
		c0.75-3.445,0.95-7.137,2.647-10.185c0.402-1.244,1.895-1.994,1.945-3.392c0.305-3.994-0.246-7.942,0.802-11.683
		c-0.149-2.45-0.749-4.144-0.497-6.639c0.053-0.754,0.998-1.15,1.049-1.9c0.245-2.596-2.846-1.546-4.196-2.444
		c-0.546,0.1-0.899,1.449-1.445,0.548c-0.107-0.249,0-0.402,0.1-0.648l-0.305-0.251c-2.047,0.149-4.492,0.451-5.187,2.697
		c-5.696,5.192-10.143,11.034-14.478,17.074c-2.801,3.843-5.39,7.937-7.743,11.934c-1.093,1.146-1.442,2.744-2.348,3.792
		c-1.594,3.096-3.539,6.092-4.989,9.234c-3.743,1.002-7.089,2.747-10.736,3.995c-0.896-0.599-1.393-1.447-2.389-1.8
		c-2.251-0.846-3.9,0.552-5.243,1.951c0,1.097-0.801,2.344,0,3.345c-1.5,0.799-3.005,1.647-4.543,2.347
		c-0.454,1.198,1.442,0.746,1.842,1.249c0.645-0.099,1.15,0.599,1.75,0.1c0.15-1.253,1.345-1.751,2.294-2.202
		c1.649,0.553,1.896,2.499,3.446,3.346c1.996,1.898,4.04-0.446,5.993-0.698l0.645,0.252c0,0.949-1.048,1.444-1.247,2.344
		c-3.199,5.491-7.338,10.685-7.535,17.224c-0.75,1.597,0.445,3.998-1.353,5.145c-0.75,0.196-0.347,1.35-0.543,2.142
		c0.543,1.198,1.293,2.001,2.341,3.002c-0.098,0.999,0.298,2.096,1.352,2.694c0.643-0.4,1.097,0.644,1.691,0.448
		c1.798,0.347,3.394-0.849,5.197-0.896c0.046,0.246-0.051,0.697-0.252,0.944c0.349,0.451,0.653,0.65,1.248,0.556
		c0.549,0.095,0.304-0.504,0.652-0.704c0.047-0.55-0.446-0.796-0.853-0.995c1.996-0.9,4.447-0.953,5.792-3.048
		c0.451-1.251,0.253-2.745-0.201-4.043c-0.594-5.643,0.801-11.334,2.598-16.378c2.745-4.692,5.048-9.583,7.389-14.478
		c1.045-2.694,4.245-2.344,6.092-4.093c3.795-1.845,8.385-1.799,12.228-3.543c1.003-0.149,2.547-0.549,3.348,0.4
		c0,2.096,0.698,4.142,0.453,6.44c0.492,5.895,0.445,11.581,0.694,17.367c0.103,1.006,0.103,2.205,0.352,3.052
		c0.098,4.492,0.997,9.136,2.341,13.38c0.552,2.494,1.9,4.944,1.601,7.54c0.149,0.898,0.751,1.692,1.548,1.995
		c1.046-0.1,2.094-0.399,2.797-1.201c0.552-1.69,0.996-3.846,0.799-5.892c-1.245-1.599-1.601-3.938-3.693-4.888
		C61.932,83.283,60.44,77.893,60.44,72.1c0.446-0.451,1.345-0.899,1.247-1.691c0.194-1.105-1.001-1.105-1.552-1.554
		c0.205-5.942-0.297-12.179-0.25-18.223l0.9-0.9c2.299-0.698,4.542-1.544,7.089-1.695c2.849,0.35,6.391,1.149,8.892-0.551
		c2.793-0.097,4.286-3.195,6.735-3.943C84.2,42.545,82.958,41.797,83.501,40.749 M17.451,76.242
		c1.746-4.841,4.148-9.435,5.745-14.279c-0.801-0.148-1.054,0.553-1.597,1.001c-1.898,3.294-3.497,6.738-4.743,10.333
		C16.907,74.296,16.603,75.694,17.451,76.242 M19.899,56.573c1.451-0.301,3.399-0.347,3.942-1.896
		c-0.496,0.201-1.048,0.298-1.544,0.65C21.599,55.975,20.146,55.374,19.899,56.573 M36.522,38.15
		c0.304-0.697,0.801-1.445,1.254-1.894c3.189-4.992,6.035-10.137,10.082-14.828c0.496-0.301-0.354-1.149,0.594-1.001
		c1.797-2.742,4.148-5.039,5.492-7.985c-0.844,0.5-1.846,1.396-2.491,2.245c-9.135,9.786-15.428,21.118-21.421,32.352
		c-0.347,1.548-1.895,2.694-2.042,4.24h0.446l1.943-2.996C31.881,44.691,34.181,41.396,36.522,38.15 M56.639,39.648
		c0.155,1.997-0.445,3.493-0.347,5.494l-0.346,0.299c-4.297,0.848-8.69,1.747-12.678,3.044c-1.002-0.302-2.303,0.251-3.053-0.449
		c1.102-2.397,2.45-4.691,3.646-7.039v-0.448c2.694-4.293,5.34-8.837,8.184-13.181c1.551-1.798,3.153-3.447,5.047-4.943
		c1.345,0.65,0.801,2.593,1.098,3.696C57.791,30.664,56.343,35.055,56.639,39.648 M12.363,71.501
		c-0.207-0.098-0.254-0.399-0.454-0.299c-0.394,0.1-0.394,0.499-0.394,0.8c0.196,0,0.394,0,0.544,0.097
		C12.265,71.948,12.363,71.75,12.363,71.501 M62.237,43.544H62.03l0.207,0.152V43.544z M54.743,62.318
		c-0.098-0.204-0.446,0-0.348,0.199c0.051,0.098,0.199,0.048,0.25,0.048C54.794,62.565,54.743,62.415,54.743,62.318 M38.92,82.633
		c-0.296,0.449-0.15,1.095,0.394,1.45c0.356,0.048,0.703-0.048,0.95-0.305c0.402-0.345,0.253-0.545,0.305-1.047
		C40.264,82.033,39.366,82.085,38.92,82.633 M55.493,66.109c-0.652,0.246-0.848,0.95-0.749,1.598c0.206,0.397,0.6,0.648,1.104,0.547
		c0.445-0.199,0.997-0.698,0.9-1.244C56.748,66.355,55.998,65.908,55.493,66.109 M40.817,85.882h0.295v-0.103
		C40.965,85.575,40.915,85.779,40.817,85.882 M21.144,42.346c0.051-0.553-0.594-0.553-0.997-0.501
		c-0.295,0.252-0.594,0.7-0.149,1.047C20.343,42.994,21.448,43.246,21.144,42.346 M9.567,73.646
		c-0.551,0.052-0.551-0.543-1.002-0.744c-1.446-0.503-2.697,0.497-3.845,1.102c-0.097,0.995-1.394,1.942-0.298,2.939
		c1.198,0.35,3.044,0.3,4.04-0.45C9.016,75.594,9.962,74.896,9.567,73.646 M8.018,88.024c0.543,0.099,0.295-0.546,0.651-0.75
		c0.098-0.597-0.502-0.897-1.007-0.897c-0.594-0.198-0.692,0.698-0.898,1.102C7.17,87.928,7.417,88.123,8.018,88.024 M7.664,98.361
		c-0.543,0.15-0.793,0.694-0.793,1.248c0.1,0.196,0.296,0.599,0.593,0.448c0.453-0.152,1.048-0.349,1.202-0.9l-0.103-0.102
		l0.253-0.344C8.464,98.205,8.117,98.109,7.664,98.361 M25.391,84.231l0.148,0.201l0.098-0.101
		C25.59,84.231,25.441,84.231,25.391,84.231 M31.03,96.813c-0.446-0.097-1.048,0.1-1.442-0.097c0.098,0.695-0.898,0.491-0.801,1.193
		c-0.253,0.604,0.15,1.245,0.445,1.797c0.603,0.202,1.551,0.654,2.153,0c0.246-0.552,0.899-1.3,0.447-1.696
		C31.832,97.615,31.582,96.913,31.03,96.813 M27.889,110.04c0,0.153,0,0.452,0.246,0.354v-0.251
		C28.088,109.988,27.987,110.04,27.889,110.04 M39.471,90.375c-0.304-0.25-0.799-0.551-0.599-1.102l-0.454,0.1
		c-0.051-0.351-0.693-0.445-0.445-0.897c0.75-0.446,0-1.046,0.347-1.695c-0.445-0.849-0.548-0.849-1.245-1.452
		c-0.299-0.048-0.701,0.247-0.899-0.1c-0.703,0.149-1.306,0.703-1.454,1.246c-0.246,0.203-0.593,0.05-0.797,0.203
		c-2.243,0.451-2.294,2.895-2.54,4.745l0.197-0.15c0.25,0.594,1.195,0.846,1.343,1.594c-0.246,0.603,0.405,1.001,0.354,1.601
		c1.099,0.249,0.498,1.648,0.546,2c0.049-0.553,0.147-1.25,0.6-1.452c0.2,0.202,0.102,0.497,0.102,0.748
		c0-0.896,0.899-0.397,1.35-0.896c1.1,0.252,1.395-0.602,2.145-0.999c0.799,0.05,0.396-0.746,0.997-1.001
		c-0.601-0.348,0.349-1,0.653-1.247c-0.05-0.561-0.088-1.066,0.557-1.171C39.94,90.458,39.686,90.287,39.471,90.375 M19.447,98.514
		l-0.297,0.198c0.049,0.096-0.051,0.297,0.096,0.344c0.102,0,0.252,0.052,0.304-0.099C19.498,98.808,19.601,98.61,19.447,98.514
		 M18.999,108.043c-0.551,0.149-0.799,0.75-0.799,1.251c0.102,0.201,0.248,0.599,0.6,0.448c0.447-0.146,1.048-0.351,1.197-0.896
		l-0.098-0.053l0.246-0.398C19.801,107.947,19.395,107.796,18.999,108.043 M16.552,100.307c0,0.201,0.051,0.501,0.304,0.398v-0.298
		C16.806,100.307,16.65,100.307,16.552,100.307 M32.728,85.328c-0.051-0.096-0.149-0.096-0.247-0.096v0.196h0.247V85.328z"/>
	<path clip-path="url(#SVGID_4_)" d="M338.969,74.282c-0.394,0.347-0.645,0.75-0.496,1.293c0.103,0.355,0.445,0.455,0.801,0.504
		c0.594-0.149,0.742-0.652,0.801-1.251C339.867,74.432,339.474,74.185,338.969,74.282 M343.766,61.453
		c0.15,0.149,0.297,0.347,0.544,0.247c0.2-0.15,0.304-0.349,0.257-0.602C344.31,60.703,343.662,61,343.766,61.453 M344.461,59.103
		c-0.149,0.247-0.149,0.652,0.104,0.802c0.251,0.097,0.846,0.295,1.001-0.15C345.91,59.053,344.965,58.405,344.461,59.103
		 M340.717,74.482l-0.198,0.446c0,0.204,0.198,0.204,0.348,0.204c0.154-0.151,0.206-0.3,0.206-0.451
		C340.964,74.532,340.815,74.532,340.717,74.482 M338.622,72.335c-0.601-0.354-1.292-0.65-1.45-1.448
		c-0.693,0.302-0.998-0.55-1.593-0.251c-0.253,0.446-0.997,0.553-1.45,0.698c0.299,0.251,0.246,0.451,0.195,0.8
		c0.15,1.251,1.255,2.051,2.401,1.797c0.8,0.048,0.947-0.646,1.345-1.149C338.275,72.633,338.822,72.731,338.622,72.335
		 M336.576,65.246c-0.205,0.295-0.098,0.699,0.149,0.95c0.348,0.196,0.75,0.048,0.997-0.15
		C338.121,65.298,337.171,64.548,336.576,65.246 M338.721,56.259h-0.996c-0.801,0.45-2.449,0.347-2.351,1.797
		c-0.149,1.194,1.304,0.951,2.003,1.246C338.326,58.557,339.019,57.453,338.721,56.259 M376.813,35.391
		c-0.149-1.002-1.245-1.349-2.042-1.546c-2.552,0.848-4.744,2.344-7.29,3.092c-0.604-0.1-1.502-0.25-2.153-0.197
		c-0.496,0.298-1.195,0.545-1.642,0.448c-0.05,0.501-0.698,0.75-1.254,0.648c-2.644,1.199-5.688,1.297-8.632,1.349l-0.454-0.451
		c0.75-3.445,0.95-7.137,2.647-10.185c0.402-1.244,1.895-1.994,1.945-3.392c0.305-3.994-0.246-7.942,0.802-11.683
		c-0.149-2.45-0.749-4.144-0.497-6.639c0.053-0.754,0.998-1.15,1.049-1.9c0.245-2.596-2.846-1.546-4.196-2.443
		c-0.546,0.099-0.898,1.448-1.444,0.547c-0.107-0.249,0-0.402,0.1-0.648l-0.305-0.251c-2.047,0.149-4.492,0.451-5.188,2.697
		c-5.695,5.192-10.143,11.034-14.478,17.074c-2.801,3.843-5.391,7.937-7.743,11.934c-1.093,1.147-1.442,2.744-2.348,3.792
		c-1.595,3.096-3.539,6.092-4.989,9.234c-3.743,1.002-7.089,2.748-10.736,3.995c-0.896-0.599-1.393-1.447-2.389-1.8
		c-2.251-0.846-3.9,0.553-5.243,1.951c0,1.097-0.801,2.344,0,3.345c-1.5,0.799-3.005,1.647-4.543,2.347
		c-0.454,1.198,1.442,0.746,1.842,1.249c0.645-0.099,1.15,0.599,1.75,0.1c0.15-1.253,1.345-1.751,2.294-2.202
		c1.649,0.553,1.896,2.499,3.446,3.347c1.996,1.897,4.04-0.447,5.993-0.699l0.645,0.252c0,0.949-1.048,1.444-1.247,2.344
		c-3.198,5.491-7.338,10.685-7.534,17.224c-0.75,1.597,0.444,3.997-1.354,5.145c-0.75,0.196-0.347,1.349-0.543,2.141
		c0.543,1.199,1.293,2.001,2.341,3.002c-0.098,0.999,0.298,2.096,1.353,2.695c0.643-0.401,1.097,0.643,1.69,0.447
		c1.798,0.348,3.395-0.849,5.197-0.896c0.046,0.247-0.051,0.698-0.252,0.944c0.349,0.451,0.653,0.65,1.248,0.556
		c0.549,0.095,0.304-0.503,0.652-0.704c0.047-0.549-0.446-0.796-0.854-0.995c1.996-0.9,4.447-0.953,5.792-3.048
		c0.451-1.251,0.253-2.745-0.201-4.043c-0.594-5.642,0.801-11.334,2.599-16.378c2.745-4.692,5.048-9.583,7.389-14.478
		c1.045-2.694,4.245-2.343,6.092-4.093c3.795-1.845,8.385-1.799,12.229-3.543c1.003-0.149,2.547-0.549,3.348,0.4
		c0,2.096,0.698,4.143,0.453,6.44c0.492,5.895,0.445,11.581,0.692,17.367c0.104,1.006,0.104,2.205,0.354,3.052
		c0.098,4.493,0.997,9.136,2.341,13.38c0.552,2.494,1.9,4.944,1.602,7.54c0.148,0.898,0.751,1.692,1.548,1.995
		c1.046-0.1,2.094-0.398,2.797-1.201c0.552-1.69,0.996-3.846,0.799-5.892c-1.245-1.598-1.601-3.938-3.693-4.887
		c-1.353-5.344-2.845-10.735-2.845-16.528c0.446-0.451,1.345-0.899,1.247-1.691c0.194-1.105-1.001-1.105-1.552-1.554
		c0.205-5.942-0.297-12.179-0.25-18.223l0.899-0.9c2.3-0.698,4.542-1.544,7.091-1.695c2.848,0.35,6.39,1.149,8.891-0.551
		c2.793-0.097,4.286-3.195,6.735-3.943C377.512,37.188,376.271,36.44,376.813,35.391 M310.763,70.885
		c1.746-4.841,4.148-9.435,5.745-14.279c-0.8-0.148-1.054,0.553-1.597,1.001c-1.898,3.294-3.497,6.738-4.743,10.333
		C310.219,68.939,309.915,70.337,310.763,70.885 M313.211,51.216c1.451-0.301,3.399-0.347,3.942-1.896
		c-0.496,0.201-1.048,0.299-1.544,0.65C314.911,50.617,313.458,50.016,313.211,51.216 M329.834,32.793
		c0.304-0.697,0.801-1.445,1.254-1.894c3.189-4.992,6.035-10.137,10.082-14.828c0.496-0.301-0.354-1.149,0.594-1.001
		c1.798-2.742,4.148-5.039,5.492-7.985c-0.844,0.5-1.846,1.396-2.491,2.245c-9.135,9.787-15.428,21.118-21.421,32.352
		c-0.347,1.548-1.895,2.694-2.042,4.24h0.446l1.943-2.996C325.193,39.334,327.493,36.039,329.834,32.793 M349.951,34.291
		c0.155,1.997-0.445,3.494-0.347,5.494l-0.347,0.299c-4.297,0.848-8.689,1.747-12.678,3.044c-1.002-0.302-2.303,0.251-3.053-0.449
		c1.102-2.397,2.448-4.691,3.646-7.039v-0.448c2.694-4.293,5.34-8.837,8.185-13.181c1.551-1.798,3.152-3.447,5.047-4.943
		c1.345,0.65,0.801,2.593,1.098,3.696C351.104,25.306,349.655,29.698,349.951,34.291 M305.675,66.144
		c-0.207-0.098-0.254-0.399-0.454-0.299c-0.394,0.1-0.394,0.499-0.394,0.8c0.196,0,0.394,0,0.544,0.097
		C305.577,66.591,305.675,66.392,305.675,66.144 M355.549,38.187h-0.207l0.207,0.152V38.187z M348.055,56.961
		c-0.098-0.204-0.445,0-0.348,0.199c0.051,0.098,0.199,0.048,0.25,0.048C348.106,57.208,348.055,57.057,348.055,56.961
		 M332.232,77.276c-0.296,0.449-0.15,1.095,0.394,1.45c0.356,0.048,0.703-0.048,0.95-0.305c0.402-0.345,0.253-0.545,0.305-1.047
		C333.576,76.676,332.678,76.728,332.232,77.276 M348.805,60.752c-0.651,0.246-0.848,0.951-0.749,1.598
		c0.206,0.397,0.601,0.648,1.104,0.547c0.445-0.199,0.997-0.698,0.899-1.244C350.06,60.998,349.31,60.551,348.805,60.752
		 M334.129,80.524h0.295v-0.102C334.277,80.218,334.226,80.422,334.129,80.524 M314.456,36.989c0.051-0.553-0.594-0.553-0.997-0.501
		c-0.295,0.252-0.594,0.7-0.149,1.047C313.655,37.637,314.76,37.888,314.456,36.989 M302.879,68.288
		c-0.551,0.052-0.551-0.543-1.002-0.744c-1.446-0.503-2.697,0.497-3.845,1.102c-0.097,0.995-1.394,1.942-0.298,2.939
		c1.198,0.35,3.044,0.3,4.041-0.45C302.328,70.237,303.274,69.539,302.879,68.288 M301.33,82.667
		c0.543,0.099,0.295-0.546,0.651-0.75c0.098-0.597-0.502-0.897-1.007-0.897c-0.594-0.199-0.692,0.698-0.898,1.101
		C300.482,82.57,300.729,82.766,301.33,82.667 M300.976,93.004c-0.543,0.15-0.793,0.694-0.793,1.248
		c0.1,0.196,0.296,0.6,0.593,0.448c0.453-0.152,1.048-0.348,1.203-0.9l-0.104-0.102l0.253-0.343
		C301.776,92.849,301.429,92.752,300.976,93.004 M318.703,78.874l0.147,0.201l0.099-0.101
		C318.902,78.874,318.753,78.874,318.703,78.874 M324.342,91.456c-0.445-0.097-1.048,0.101-1.441-0.097
		c0.098,0.695-0.898,0.492-0.801,1.193c-0.254,0.604,0.149,1.245,0.444,1.798c0.604,0.201,1.551,0.653,2.153,0
		c0.246-0.553,0.898-1.301,0.446-1.697C325.144,92.258,324.894,91.557,324.342,91.456 M321.201,104.684c0,0.152,0,0.451,0.246,0.354
		v-0.251C321.4,104.631,321.299,104.684,321.201,104.684 M332.783,85.019c-0.304-0.25-0.799-0.551-0.601-1.103l-0.452,0.1
		c-0.052-0.351-0.693-0.446-0.445-0.897c0.75-0.447,0-1.047,0.347-1.696c-0.444-0.849-0.548-0.849-1.245-1.452
		c-0.299-0.048-0.7,0.247-0.898-0.1c-0.703,0.15-1.307,0.703-1.454,1.246c-0.246,0.203-0.593,0.05-0.797,0.203
		c-2.243,0.452-2.294,2.895-2.54,4.745l0.196-0.15c0.25,0.594,1.195,0.846,1.344,1.594c-0.246,0.603,0.404,1.001,0.354,1.601
		c1.1,0.249,0.498,1.648,0.546,2c0.05-0.552,0.147-1.25,0.601-1.452c0.2,0.202,0.102,0.497,0.102,0.748
		c0-0.896,0.899-0.397,1.351-0.896c1.1,0.252,1.395-0.602,2.145-0.999c0.799,0.051,0.396-0.745,0.997-1.001
		c-0.601-0.348,0.349-1,0.653-1.247c-0.052-0.561-0.088-1.066,0.557-1.171C333.252,85.102,332.998,84.931,332.783,85.019
		 M312.759,93.156l-0.297,0.199c0.049,0.095-0.051,0.296,0.096,0.343c0.103,0,0.252,0.052,0.305-0.098
		C312.81,93.45,312.913,93.253,312.759,93.156 M312.312,102.687c-0.553,0.148-0.801,0.75-0.801,1.251
		c0.103,0.2,0.248,0.598,0.601,0.447c0.446-0.146,1.048-0.35,1.196-0.896l-0.098-0.052l0.247-0.399
		C313.113,102.59,312.707,102.439,312.312,102.687 M309.864,94.949c0,0.201,0.051,0.501,0.304,0.399V95.05
		C310.118,94.949,309.962,94.949,309.864,94.949 M326.04,79.971c-0.051-0.096-0.149-0.096-0.247-0.096v0.196h0.247V79.971z"/>
	<path clip-path="url(#SVGID_4_)" d="M453.412,146.967c-0.586-0.128-1.378,0.131-1.897-0.128c0.129,0.916-1.182,0.647-1.053,1.571
		c-0.334,0.792,0.196,1.638,0.585,2.363c0.793,0.267,2.04,0.86,2.832,0c0.323-0.726,1.183-1.71,0.587-2.232
		C454.466,148.021,454.138,147.098,453.412,146.967"/>
	<path clip-path="url(#SVGID_4_)" d="M449.279,164.367c0,0.202,0,0.596,0.324,0.467v-0.33
		C449.542,164.3,449.408,164.367,449.279,164.367"/>
	<path clip-path="url(#SVGID_4_)" d="M469.234,140.61c-0.577-0.476-1.517-1.046-1.139-2.092l-0.86,0.188
		c-0.098-0.666-1.317-0.847-0.846-1.704c1.425-0.848,0-1.987,0.659-3.22c-0.845-1.613-1.041-1.613-2.365-2.757
		c-0.567-0.091-1.331,0.469-1.707-0.189c-1.335,0.283-2.479,1.333-2.761,2.366c-0.468,0.384-1.127,0.095-1.515,0.384
		c-4.259,0.859-4.355,5.499-4.822,9.012l0.373-0.284c0.475,1.128,2.27,1.605,2.552,3.026c-0.468,1.143,0.769,1.901,0.672,3.038
		c2.088,0.473,0.945,3.132,1.036,3.798c0.094-1.048,0.278-2.374,1.141-2.758c0.379,0.384,0.193,0.944,0.193,1.421
		c0-1.7,1.707-0.753,2.564-1.7c2.088,0.478,2.648-1.145,4.072-1.897c1.517,0.094,0.753-1.417,1.894-1.901
		c-1.141-0.659,0.661-1.898,1.24-2.367c-0.096-1.065-0.167-2.027,1.058-2.225C470.124,140.769,469.643,140.443,469.234,140.61"/>
	<path clip-path="url(#SVGID_4_)" d="M463.792,128.311c-0.391,0.591-0.197,1.441,0.519,1.908c0.469,0.063,0.925-0.062,1.25-0.401
		c0.529-0.453,0.332-0.717,0.401-1.377C465.561,127.521,464.379,127.59,463.792,128.311"/>
	<path clip-path="url(#SVGID_4_)" d="M455.646,131.856c-0.066-0.126-0.195-0.126-0.324-0.126v0.257h0.324V131.856z"/>
	<path clip-path="url(#SVGID_4_)" d="M437.585,161.74c-0.726,0.197-1.053,0.987-1.053,1.646c0.134,0.264,0.327,0.787,0.79,0.59
		c0.588-0.195,1.378-0.462,1.574-1.181l-0.128-0.068l0.324-0.525C438.639,161.614,438.104,161.415,437.585,161.74"/>
	<path clip-path="url(#SVGID_4_)" d="M466.287,132.584h0.388v-0.134C466.482,132.182,466.416,132.45,466.287,132.584"/>
	<path clip-path="url(#SVGID_4_)" d="M488.837,143.982c-0.198,0.325-0.198,0.858,0.136,1.055c0.33,0.129,1.113,0.39,1.317-0.196
		C490.743,143.917,489.5,143.063,488.837,143.982"/>
	<path clip-path="url(#SVGID_4_)" d="M487.922,147.074c0.198,0.196,0.39,0.457,0.716,0.325c0.263-0.197,0.399-0.46,0.337-0.792
		C488.638,146.087,487.786,146.479,487.922,147.074"/>
	<path clip-path="url(#SVGID_4_)" d="M472.655,124.373c-0.519,0.456-0.849,0.987-0.653,1.7c0.135,0.467,0.586,0.599,1.054,0.664
		c0.781-0.197,0.977-0.858,1.053-1.646C473.837,124.57,473.318,124.245,472.655,124.373"/>
	<path clip-path="url(#SVGID_4_)" d="M478.464,152.065c-0.271,0.388-0.13,0.919,0.197,1.249c0.456,0.258,0.987,0.062,1.311-0.197
		C480.495,152.133,479.245,151.146,478.464,152.065"/>
	<path clip-path="url(#SVGID_4_)" d="M493.564,141.165c-0.128-0.269-0.586,0-0.457,0.262c0.066,0.129,0.262,0.063,0.329,0.063
		C493.633,141.49,493.564,141.291,493.564,141.165"/>
	<path clip-path="url(#SVGID_4_)" d="M481.284,140.241h-1.31c-1.054,0.592-3.223,0.456-3.093,2.364
		c-0.196,1.571,1.715,1.251,2.635,1.639C480.766,143.265,481.676,141.812,481.284,140.241"/>
	<path clip-path="url(#SVGID_4_)" d="M474.692,125.222c0,0.27,0.262,0.27,0.459,0.27c0.203-0.2,0.271-0.396,0.271-0.594
		c-0.143-0.197-0.338-0.197-0.468-0.263L474.692,125.222z"/>
	<path clip-path="url(#SVGID_4_)" d="M436.476,134.046c-0.79-0.466-1.7-0.855-1.908-1.904c-0.912,0.396-1.313-0.725-2.096-0.331
		c-0.332,0.588-1.312,0.728-1.907,0.919c0.393,0.33,0.323,0.594,0.257,1.052c0.197,1.646,1.65,2.698,3.16,2.364
		c1.051,0.062,1.245-0.851,1.768-1.512C436.02,134.438,436.738,134.566,436.476,134.046"/>
</g>
</svg>
