<?xml version="1.0" encoding="utf-8"?>
<!-- Generator: Adobe Illustrator 16.2.1, SVG Export Plug-In . SVG Version: 6.00 Build 0)  -->
<!DOCTYPE svg PUBLIC "-//W3C//DTD SVG 1.1//EN" "http://www.w3.org/Graphics/SVG/1.1/DTD/svg11.dtd">
<svg version="1.1" id="Layer_2" xmlns="http://www.w3.org/2000/svg" xmlns:xlink="http://www.w3.org/1999/xlink" x="0px" y="0px"
	 width="52px" height="52px" viewBox="-0.175 0.031 52 52" enable-background="new -0.175 0.031 52 52" xml:space="preserve">
<path fill="#010101" d="M25.828,0.699c-13.99,0-25.332,11.343-25.332,25.332c0,13.991,11.342,25.332,25.332,25.332
	c13.988,0,25.326-11.341,25.326-25.332C51.155,12.041,39.817,0.699,25.828,0.699 M41.081,16.661
	c-0.81,1.172-1.785,2.183-2.935,3.026c-0.076,0.057-0.104,0.113-0.1,0.207c0.057,1.475-0.07,2.933-0.387,4.373
	c-0.64,2.913-1.879,5.538-3.759,7.854c-1.717,2.117-3.813,3.746-6.307,4.858c-2.02,0.9-4.142,1.373-6.346,1.498
	c-0.787,0.045-1.574,0.043-2.361-0.014c-0.819-0.059-1.629-0.17-2.432-0.338c-2.091-0.437-4.038-1.229-5.848-2.361
	c-0.037-0.021-0.071-0.047-0.106-0.07c1.104,0.109,2.2,0.097,3.294-0.062c1.09-0.156,2.141-0.449,3.153-0.881
	c0.957-0.408,2.681-1.443,2.806-1.687c-0.875-0.022-1.71-0.217-2.503-0.586c-0.797-0.373-1.487-0.891-2.068-1.551
	c-0.56-0.635-1.271-1.918-1.244-2.231c0.934,0.172,1.859,0.139,2.775-0.111c-1.461-0.33-2.675-1.062-3.616-2.227
	c-0.942-1.169-1.395-2.512-1.398-4.033c0.449,0.242,0.896,0.431,1.367,0.56c0.564,0.155,1.276,0.255,1.436,0.199
	c-1.338-0.949-2.216-2.209-2.591-3.809c-0.405-1.729,0.014-3.478,0.705-4.562c0.795,0.97,1.677,1.848,2.65,2.633
	c0.976,0.786,2.02,1.463,3.135,2.029c1.119,0.567,2.285,1.012,3.498,1.335c1.102,0.293,3.335,0.631,3.687,0.553
	c-0.005-0.028-0.009-0.055-0.017-0.082c-0.17-0.808-0.192-1.62-0.042-2.431c0.328-1.749,1.23-3.13,2.699-4.133
	c0.838-0.575,1.771-0.911,2.783-1.026c0.123-0.014,0.244-0.029,0.367-0.043H32.1c0.029,0.007,0.06,0.016,0.09,0.02
	c0.181,0.02,0.359,0.029,0.537,0.058c1.164,0.188,2.197,0.662,3.097,1.426c0.18,0.152,0.348,0.319,0.524,0.484
	c0.693-0.138,1.375-0.333,2.041-0.586c0.668-0.253,1.307-0.564,1.93-0.913c-0.483,1.472-1.393,2.606-2.69,3.438
	c0.031,0.007,0.057,0.008,0.078,0.005c0.606-0.083,1.205-0.203,1.797-0.369c0.561-0.157,1.106-0.358,1.645-0.587
	C41.125,16.571,41.108,16.62,41.081,16.661"/>
</svg>
