<?xml version="1.0" encoding="utf-8"?>
<!-- Generator: Adobe Illustrator 16.2.1, SVG Export Plug-In . SVG Version: 6.00 Build 0)  -->
<!DOCTYPE svg PUBLIC "-//W3C//DTD SVG 1.1//EN" "http://www.w3.org/Graphics/SVG/1.1/DTD/svg11.dtd">
<svg version="1.1" id="Layer_1" xmlns="http://www.w3.org/2000/svg" xmlns:xlink="http://www.w3.org/1999/xlink" x="0px" y="0px"
	 width="37px" height="37px" viewBox="0 0 37 37" enable-background="new 0 0 37 37" xml:space="preserve">
<path fill="#010101" d="M18.502,0.499C8.56,0.499,0.5,8.559,0.5,18.5c0,9.942,8.06,18.001,18.002,18.001
	c9.94,0,17.998-8.059,17.998-18.001C36.5,8.559,28.442,0.499,18.502,0.499 M29.341,11.842c-0.575,0.832-1.269,1.551-2.084,2.15
	c-0.055,0.04-0.074,0.081-0.071,0.147c0.04,1.048-0.051,2.084-0.274,3.107c-0.454,2.069-1.336,3.935-2.671,5.582
	c-1.221,1.504-2.711,2.662-4.482,3.452c-1.435,0.641-2.942,0.977-4.509,1.065c-0.56,0.032-1.119,0.03-1.678-0.011
	c-0.582-0.041-1.158-0.12-1.729-0.239c-1.485-0.311-2.869-0.873-4.155-1.678c-0.026-0.017-0.051-0.034-0.076-0.051
	c0.786,0.077,1.564,0.068,2.341-0.045c0.775-0.11,1.521-0.318,2.241-0.626c0.68-0.29,1.905-1.024,1.994-1.196
	c-0.622-0.017-1.216-0.154-1.779-0.417c-0.566-0.265-1.057-0.633-1.469-1.102c-0.398-0.452-0.903-1.363-0.885-1.587
	c0.663,0.122,1.321,0.098,1.972-0.079c-1.038-0.235-1.9-0.755-2.569-1.583c-0.67-0.83-0.991-1.784-0.994-2.865
	c0.32,0.173,0.638,0.306,0.973,0.397c0.4,0.11,0.906,0.182,1.02,0.142c-0.951-0.675-1.574-1.57-1.841-2.706
	c-0.288-1.229,0.01-2.472,0.501-3.242c0.564,0.688,1.191,1.312,1.884,1.871s1.435,1.039,2.228,1.441
	c0.795,0.403,1.624,0.719,2.485,0.948c0.782,0.209,2.37,0.449,2.619,0.394c-0.003-0.02-0.006-0.039-0.011-0.059
	c-0.121-0.574-0.138-1.151-0.03-1.728c0.232-1.243,0.875-2.224,1.918-2.937c0.596-0.409,1.26-0.647,1.979-0.729
	c0.087-0.01,0.174-0.021,0.261-0.03h0.512c0.021,0.005,0.042,0.011,0.064,0.015c0.127,0.013,0.255,0.021,0.381,0.04
	c0.827,0.134,1.562,0.471,2.2,1.014c0.128,0.107,0.247,0.227,0.374,0.344c0.492-0.098,0.977-0.237,1.45-0.417s0.928-0.4,1.371-0.648
	c-0.344,1.046-0.989,1.853-1.912,2.443c0.021,0.005,0.039,0.005,0.056,0.003c0.432-0.059,0.855-0.144,1.275-0.262
	c0.399-0.112,0.788-0.256,1.17-0.417C29.373,11.777,29.36,11.812,29.341,11.842"/>
</svg>
