<?xml version="1.0" encoding="utf-8"?>
<!-- Generator: Adobe Illustrator 16.2.1, SVG Export Plug-In . SVG Version: 6.00 Build 0)  -->
<!DOCTYPE svg PUBLIC "-//W3C//DTD SVG 1.1//EN" "http://www.w3.org/Graphics/SVG/1.1/DTD/svg11.dtd">
<svg version="1.1" id="Layer_1" xmlns="http://www.w3.org/2000/svg" xmlns:xlink="http://www.w3.org/1999/xlink" x="0px" y="0px"
	 width="37px" height="37px" viewBox="0 0 37 37" enable-background="new 0 0 37 37" xml:space="preserve">
<g>
	<polygon fill="#010101" points="11.17,19.081 12.352,19.081 12.352,24.94 13.489,24.94 13.489,19.081 14.669,19.081 14.669,18.086 
		11.17,18.086 	"/>
	<path fill="#010101" d="M16.989,23.727c-0.097,0.108-0.199,0.199-0.313,0.27c-0.115,0.071-0.209,0.107-0.283,0.107
		c-0.094,0-0.163-0.025-0.206-0.082c-0.041-0.052-0.064-0.138-0.064-0.259v-3.88h-1.009v4.229c0,0.303,0.059,0.526,0.178,0.679
		c0.119,0.15,0.293,0.224,0.527,0.224c0.191,0,0.386-0.049,0.587-0.16c0.203-0.106,0.396-0.261,0.584-0.468v0.555H18v-5.058h-1.011
		V23.727z"/>
	<path fill="#010101" d="M20.681,19.822c-0.156,0-0.312,0.039-0.464,0.12c-0.151,0.077-0.299,0.196-0.435,0.35v-2.206h-1.021v6.855
		h1.021v-0.386c0.132,0.154,0.279,0.268,0.434,0.34c0.152,0.075,0.328,0.111,0.528,0.111c0.299,0,0.527-0.095,0.688-0.286
		c0.156-0.193,0.237-0.467,0.237-0.823v-2.809c0-0.413-0.084-0.729-0.255-0.945C21.248,19.928,21.001,19.822,20.681,19.822
		 M20.626,23.759c0,0.161-0.029,0.276-0.087,0.347c-0.059,0.069-0.148,0.105-0.273,0.105c-0.085,0-0.164-0.015-0.244-0.054
		c-0.077-0.032-0.158-0.098-0.239-0.177v-3.151c0.069-0.069,0.139-0.121,0.208-0.154c0.072-0.033,0.142-0.049,0.216-0.049
		c0.134,0,0.239,0.043,0.313,0.132c0.072,0.088,0.106,0.216,0.106,0.388V23.759z"/>
	<path fill="#010101" d="M23.733,19.756c-0.452,0-0.818,0.139-1.105,0.414c-0.286,0.28-0.43,0.637-0.43,1.072v2.273
		c0,0.489,0.131,0.87,0.391,1.148c0.261,0.277,0.617,0.419,1.068,0.419c0.505,0,0.884-0.134,1.137-0.396
		c0.254-0.261,0.381-0.652,0.381-1.172v-0.259h-1.041v0.231c0,0.297-0.033,0.487-0.101,0.573c-0.066,0.09-0.183,0.135-0.353,0.135
		c-0.159,0-0.274-0.053-0.341-0.155c-0.067-0.104-0.098-0.288-0.098-0.553v-0.955h1.933v-1.291c0-0.478-0.124-0.845-0.374-1.102
		C24.554,19.884,24.198,19.756,23.733,19.756 M24.134,21.745h-0.892v-0.51c0-0.209,0.03-0.363,0.103-0.453
		c0.071-0.094,0.187-0.14,0.346-0.14c0.157,0,0.27,0.046,0.338,0.14c0.07,0.09,0.105,0.244,0.105,0.453V21.745z"/>
	<path fill="#010101" d="M18.169,14.216c0.156,0,0.276-0.043,0.368-0.128c0.094-0.087,0.137-0.204,0.137-0.354v-3.035
		c0-0.122-0.046-0.219-0.14-0.293c-0.094-0.074-0.214-0.114-0.365-0.114c-0.139,0-0.249,0.04-0.338,0.114
		c-0.086,0.074-0.131,0.171-0.131,0.293v3.035c0,0.154,0.042,0.272,0.122,0.355C17.903,14.174,18.019,14.216,18.169,14.216z"/>
	<path fill="#010101" d="M17.7,10.699c0-0.121,0.045-0.219,0.131-0.293c0.089-0.073,0.199-0.113,0.338-0.113
		c0.151,0,0.271,0.04,0.365,0.113c0.094,0.074,0.14,0.173,0.14,0.293v3.035c0,0.15-0.043,0.267-0.137,0.354
		c-0.092,0.085-0.212,0.128-0.368,0.128c-0.15,0-0.266-0.042-0.347-0.126c-0.079-0.083-0.122-0.201-0.122-0.355V10.699z"/>
	<path fill="#010101" d="M18.501,0.499C8.56,0.499,0.5,8.559,0.5,18.5c0,9.941,8.06,18.001,18.001,18.001
		c9.942,0,17.999-8.06,17.999-18.001C36.5,8.559,28.443,0.499,18.501,0.499 M20.757,9.468h1.138v4.271
		c0,0.133,0.025,0.229,0.072,0.285c0.047,0.062,0.124,0.093,0.231,0.093c0.084,0,0.189-0.042,0.318-0.119
		c0.128-0.081,0.245-0.178,0.35-0.3V9.468h1.138v5.572h-1.138v-0.615c-0.208,0.224-0.426,0.398-0.653,0.516
		c-0.228,0.118-0.447,0.179-0.661,0.179c-0.264,0-0.462-0.083-0.597-0.25c-0.132-0.167-0.198-0.415-0.198-0.747V9.468z
		 M16.529,10.744c0-0.433,0.153-0.777,0.46-1.033c0.306-0.255,0.72-0.386,1.237-0.386c0.471,0,0.856,0.136,1.159,0.407
		c0.298,0.268,0.449,0.617,0.449,1.042v2.877c0,0.478-0.148,0.849-0.441,1.122c-0.296,0.272-0.703,0.408-1.22,0.408
		c-0.498,0-0.898-0.14-1.195-0.42c-0.3-0.279-0.449-0.657-0.449-1.131V10.744z M13.43,7.486l0.833,3.02h0.079l0.794-3.02h1.302
		l-1.491,4.42v3.134h-1.282v-2.992l-1.525-4.562H13.43z M29.69,24.039c0,2.055-1.679,3.73-3.73,3.73H11.04
		c-2.053,0-3.731-1.676-3.731-3.73v-3.962c0-1.924,1.573-3.498,3.496-3.498h15.387c1.924,0,3.499,1.574,3.499,3.498V24.039z"/>
</g>
</svg>
