<?xml version="1.0" encoding="utf-8"?>
<!-- Generator: Adobe Illustrator 16.2.1, SVG Export Plug-In . SVG Version: 6.00 Build 0)  -->
<!DOCTYPE svg PUBLIC "-//W3C//DTD SVG 1.1//EN" "http://www.w3.org/Graphics/SVG/1.1/DTD/svg11.dtd">
<svg version="1.1" id="Layer_3" xmlns="http://www.w3.org/2000/svg" xmlns:xlink="http://www.w3.org/1999/xlink" x="0px" y="0px"
	 width="52px" height="52px" viewBox="-0.175 0.031 52 52" enable-background="new -0.175 0.031 52 52" xml:space="preserve">
<path fill="#010101" d="M15.51,25.448h4.924v1.399h-1.66v8.244h-1.602v-8.244H15.51V25.448z M23.7,33.385
	c-0.138,0.152-0.281,0.279-0.441,0.379c-0.162,0.101-0.295,0.15-0.398,0.15c-0.133,0-0.229-0.035-0.291-0.115
	c-0.057-0.072-0.09-0.193-0.09-0.363v-5.461h-1.42v5.951c0,0.426,0.082,0.74,0.25,0.955c0.168,0.211,0.412,0.313,0.742,0.313
	c0.271,0,0.543-0.067,0.826-0.225c0.285-0.15,0.557-0.367,0.822-0.658v0.779h1.422v-7.117H23.7V33.385z M28.893,27.891
	c0.451,0,0.799,0.148,1.033,0.451c0.24,0.305,0.357,0.75,0.357,1.33v3.953c0,0.502-0.113,0.887-0.334,1.158
	c-0.226,0.27-0.548,0.401-0.968,0.401c-0.28,0-0.528-0.051-0.744-0.156c-0.217-0.102-0.424-0.262-0.608-0.479v0.543h-1.438v-9.646
	h1.438v3.103c0.19-0.215,0.397-0.383,0.611-0.492C28.456,27.946,28.674,27.891,28.893,27.891 M28.817,29.752
	c0-0.242-0.049-0.422-0.149-0.545c-0.104-0.125-0.252-0.187-0.441-0.187c-0.104,0-0.201,0.021-0.303,0.068
	c-0.098,0.047-0.195,0.119-0.293,0.217v4.437c0.113,0.11,0.229,0.202,0.336,0.248c0.113,0.055,0.225,0.075,0.344,0.075
	c0.176,0,0.303-0.051,0.385-0.147c0.082-0.101,0.123-0.262,0.123-0.488L28.817,29.752L28.817,29.752z M33.19,27.797
	c0.654,0,1.154,0.18,1.502,0.541c0.353,0.361,0.525,0.879,0.525,1.551v1.816h-2.718v1.344c0,0.373,0.043,0.633,0.137,0.777
	c0.094,0.144,0.256,0.219,0.48,0.219c0.237,0,0.401-0.062,0.495-0.189c0.095-0.121,0.142-0.389,0.142-0.807v-0.326h1.465v0.365
	c0,0.729-0.178,1.281-0.535,1.647c-0.354,0.369-0.889,0.558-1.6,0.558c-0.635,0-1.138-0.199-1.504-0.59
	c-0.365-0.392-0.549-0.929-0.549-1.615v-3.199c0-0.613,0.2-1.115,0.604-1.51C32.038,27.993,32.553,27.797,33.19,27.797
	 M33.752,29.879c0-0.295-0.049-0.512-0.148-0.639c-0.096-0.132-0.254-0.195-0.475-0.195c-0.226,0-0.387,0.063-0.486,0.195
	c-0.102,0.127-0.145,0.344-0.145,0.639v0.717h1.254V29.879L33.752,29.879z M25.36,20.002c0.22,0,0.39-0.062,0.519-0.18
	c0.131-0.123,0.19-0.287,0.19-0.498v-4.271c0-0.171-0.063-0.308-0.194-0.412c-0.133-0.104-0.301-0.16-0.515-0.16
	c-0.194,0-0.352,0.058-0.477,0.16c-0.121,0.104-0.184,0.241-0.184,0.412v4.271c0,0.217,0.059,0.383,0.172,0.5
	C24.985,19.943,25.147,20.002,25.36,20.002z M24.7,19.324c0,0.217,0.061,0.383,0.172,0.5c0.112,0.118,0.274,0.178,0.487,0.178
	c0.22,0,0.39-0.062,0.519-0.18c0.131-0.123,0.19-0.287,0.19-0.498v-4.271c0-0.17-0.063-0.309-0.194-0.413
	c-0.133-0.103-0.301-0.159-0.515-0.159c-0.194,0-0.352,0.058-0.477,0.159c-0.121,0.104-0.184,0.243-0.184,0.413L24.7,19.324
	L24.7,19.324z M25.827,0.699c13.989,0,25.328,11.342,25.328,25.332c0,13.989-11.339,25.332-25.328,25.332
	c-13.99,0-25.332-11.344-25.332-25.333S11.836,0.699,25.827,0.699 M29,19.873c0,0.467,0.094,0.815,0.278,1.051
	c0.189,0.234,0.47,0.352,0.841,0.352c0.301,0,0.608-0.086,0.93-0.252s0.627-0.412,0.92-0.727v0.865h1.602V13.32h-1.602v5.951
	c-0.146,0.172-0.312,0.31-0.492,0.422c-0.182,0.109-0.33,0.168-0.446,0.168c-0.152,0-0.261-0.043-0.326-0.131
	c-0.066-0.078-0.103-0.213-0.103-0.399V13.32H29V19.873z M23.051,19.176c0,0.668,0.211,1.199,0.633,1.592
	c0.418,0.396,0.98,0.592,1.683,0.592c0.727,0,1.301-0.19,1.717-0.573c0.412-0.384,0.621-0.906,0.621-1.578v-4.049
	c0-0.6-0.213-1.091-0.634-1.468c-0.426-0.381-0.969-0.571-1.631-0.571c-0.729,0-1.311,0.184-1.739,0.543
	c-0.433,0.359-0.648,0.844-0.648,1.453L23.051,19.176L23.051,19.176z M16.874,10.531l2.146,6.42v4.211h1.806v-4.41l2.098-6.221
	h-1.832l-1.117,4.25h-0.11l-1.173-4.25H16.874z M41.573,28.249c0-2.707-2.218-4.92-4.925-4.92H14.997c-2.707,0-4.92,2.214-4.92,4.92
	v5.576c0,2.891,2.36,5.25,5.25,5.25h20.996c2.887,0,5.25-2.359,5.25-5.25V28.249z"/>
</svg>
